<?xml version="1.0" encoding="UTF-8"?>
<svg xmlns="http://www.w3.org/2000/svg" width="800.0000" height="800.0000" viewBox="0 0 800.0000 800.0000">
  <defs>
    <path id="shape-c0" d="M 4.5000 -0.8660 L 1.5000 -0.8660 L 3.0000 1.7321 L 1.5000 4.3301 L 0.0000 1.7321 L -3.0000 1.7321 L -1.5000 -0.8660 L -3.0000 -3.4641 L -1.5000 -6.0622 L 1.5000 -6.0622 L 0.0000 -3.4641 L 3.0000 -3.4641 Z" fill="rgb(255,255,102)" stroke="black" stroke-width="0.0820"/>
    <path id="shape-c1" d="M 4.5000 -0.8660 L 1.5000 -0.8660 L 3.0000 1.7321 L 1.5000 4.3301 L 0.0000 1.7321 L -3.0000 1.7321 L -1.5000 -0.8660 L -3.0000 -3.4641 L -1.5000 -6.0622 L 1.5000 -6.0622 L 0.0000 -3.4641 L 3.0000 -3.4641 Z" fill="rgb(204,204,204)" stroke="black" stroke-width="0.0820"/>
    <path id="shape-c2" d="M 4.5000 -0.8660 L 1.5000 -0.8660 L 3.0000 1.7321 L 1.5000 4.3301 L 0.0000 1.7321 L -3.0000 1.7321 L -1.5000 -0.8660 L -3.0000 -3.4641 L -1.5000 -6.0622 L 1.5000 -6.0622 L 0.0000 -3.4641 L 3.0000 -3.4641 Z" fill="rgb(127,127,127)" stroke="black" stroke-width="0.0820"/>
    <path id="shape-c3" d="M 4.5000 -0.8660 L 1.5000 -0.8660 L 3.0000 1.7321 L 1.5000 4.3301 L 0.0000 1.7321 L -3.0000 1.7321 L -1.5000 -0.8660 L -3.0000 -3.4641 L -1.5000 -6.0622 L 1.5000 -6.0622 L 0.0000 -3.4641 L 3.0000 -3.4641 Z" fill="rgb(204,204,204)" stroke="black" stroke-width="0.0820"/>
  </defs>
  <rect width="100%" height="100%" fill="white"/>
  <g transform="translate(372.5759,410.5556) scale(12.1885)">
    <use href="#shape-c0" transform="matrix(1.0000,0.0000,0.0000,1.0000,0.0000,0.0000)"/>
    <use href="#shape-c1" transform="matrix(-0.5000,-0.8660,0.8660,-0.5000,1.5000,7.7942)"/>
    <use href="#shape-c1" transform="matrix(1.0000,0.0000,0.0000,-1.0000,3.0000,-12.1244)"/>
    <use href="#shape-c1" transform="matrix(-0.5000,0.8660,-0.8660,-0.5000,-7.5000,-2.5981)"/>
    <use href="#shape-c1" transform="matrix(-0.5000,-0.8660,0.8660,-0.5000,-1.5000,-7.7942)"/>
    <use href="#shape-c1" transform="matrix(-0.5000,-0.8660,-0.8660,0.5000,4.5000,-4.3301)"/>
    <use href="#shape-c1" transform="matrix(0.5000,0.8660,-0.8660,0.5000,4.5000,0.8660)"/>
    <use href="#shape-c1" transform="matrix(-0.5000,0.8660,-0.8660,-0.5000,-4.5000,2.5981)"/>
    <use href="#shape-c3" transform="matrix(0.5000,-0.8660,0.8660,0.5000,13.5000,11.2583)"/>
    <use href="#shape-c2" transform="matrix(0.5000,0.8660,-0.8660,0.5000,-4.5000,16.4545)"/>
    <use href="#shape-c2" transform="matrix(-1.0000,0.0000,0.0000,-1.0000,3.0000,13.8564)"/>
    <use href="#shape-c2" transform="matrix(-1.0000,0.0000,0.0000,-1.0000,6.0000,8.6603)"/>
    <use href="#shape-c2" transform="matrix(0.5000,-0.8660,0.8660,0.5000,10.5000,6.0622)"/>
    <use href="#shape-c2" transform="matrix(1.0000,0.0000,0.0000,1.0000,-6.0000,10.3923)"/>
    <use href="#shape-c3" transform="matrix(1.0000,0.0000,0.0000,1.0000,-9.0000,15.5885)"/>
    <use href="#shape-c2" transform="matrix(-1.0000,0.0000,0.0000,-1.0000,-10.5000,0.8660)"/>
    <use href="#shape-c3" transform="matrix(0.5000,-0.8660,0.8660,0.5000,-12.0000,8.6603)"/>
    <use href="#shape-c3" transform="matrix(0.5000,0.8660,-0.8660,0.5000,-18.0000,3.4641)"/>
    <use href="#shape-c2" transform="matrix(0.5000,0.8660,-0.8660,0.5000,3.0000,-17.3205)"/>
    <use href="#shape-c2" transform="matrix(-1.0000,0.0000,0.0000,-1.0000,-1.5000,-19.9186)"/>
    <use href="#shape-c2" transform="matrix(0.5000,-0.8660,0.8660,0.5000,-3.0000,-12.1244)"/>
    <use href="#shape-c2" transform="matrix(0.5000,0.8660,-0.8660,0.5000,9.0000,-17.3205)"/>
    <use href="#shape-c2" transform="matrix(-0.5000,0.8660,0.8660,0.5000,10.5000,-9.5263)"/>
    <use href="#shape-c2" transform="matrix(1.0000,0.0000,0.0000,1.0000,-15.0000,-5.1962)"/>
    <use href="#shape-c2" transform="matrix(-0.5000,-0.8660,0.8660,-0.5000,-7.5000,-7.7942)"/>
    <use href="#shape-c3" transform="matrix(-0.5000,0.8660,-0.8660,-0.5000,-13.5000,-12.9904)"/>
    <use href="#shape-c2" transform="matrix(-1.0000,0.0000,0.0000,-1.0000,12.0000,-1.7321)"/>
    <use href="#shape-c3" transform="matrix(0.5000,-0.8660,0.8660,0.5000,-18.0000,-1.7321)"/>
    <use href="#shape-c2" transform="matrix(-1.0000,0.0000,0.0000,-1.0000,15.0000,-6.9282)"/>
    <use href="#shape-c3" transform="matrix(1.0000,0.0000,0.0000,-1.0000,16.5000,0.8660)"/>
    <use href="#shape-c3" transform="matrix(0.5000,0.8660,-0.8660,0.5000,7.5000,16.4545)"/>
    <use href="#shape-c3" transform="matrix(-0.5000,-0.8660,-0.8660,0.5000,18.0000,8.6603)"/>
    <use href="#shape-c3" transform="matrix(0.5000,0.8660,0.8660,-0.5000,24.0000,-5.1962)"/>
    <use href="#shape-c3" transform="matrix(0.5000,-0.8660,0.8660,0.5000,1.5000,21.6506)"/>
    <use href="#shape-c3" transform="matrix(-1.0000,0.0000,0.0000,-1.0000,-3.0000,24.2487)"/>
    <use href="#shape-c3" transform="matrix(-0.5000,0.8660,0.8660,0.5000,-7.5000,21.6506)"/>
    <use href="#shape-c3" transform="matrix(-1.0000,0.0000,0.0000,1.0000,6.0000,25.9808)"/>
    <use href="#shape-c3" transform="matrix(-1.0000,0.0000,0.0000,1.0000,19.5000,-7.7942)"/>
    <use href="#shape-c3" transform="matrix(0.5000,-0.8660,0.8660,0.5000,15.0000,-12.1244)"/>
    <use href="#shape-c3" transform="matrix(-1.0000,0.0000,0.0000,1.0000,-19.5000,-7.7942)"/>
    <use href="#shape-c3" transform="matrix(0.5000,0.8660,-0.8660,0.5000,-9.0000,-17.3205)"/>
    <use href="#shape-c3" transform="matrix(-0.5000,-0.8660,-0.8660,0.5000,9.0000,-22.5167)"/>
    <use href="#shape-c3" transform="matrix(-1.0000,0.0000,0.0000,-1.0000,1.5000,-25.1147)"/>
    <use href="#shape-c3" transform="matrix(-1.0000,0.0000,0.0000,1.0000,6.0000,-25.9808)"/>
    <use href="#shape-c3" transform="matrix(-0.5000,-0.8660,0.8660,-0.5000,-7.5000,-23.3827)"/>
    <use href="#shape-c3" transform="matrix(-1.0000,0.0000,0.0000,1.0000,-3.0000,-25.9808)"/>
    <use href="#shape-c3" transform="matrix(-1.0000,0.0000,0.0000,-1.0000,16.5000,-19.9186)"/>
  </g>
</svg>
