<svg width="1080" height="1236" xmlns="http://www.w3.org/2000/svg">
<rect width="100%" height="100%" fill="white"/>
<g transform="translate(540.0, 661.5767664977294) scale(20, 20)">
<polygon points="-0.5,-5.484827557301445 0.5,-5.484827557301445 0.0,-4.618802153517006" fill="#FF6B6B" stroke="black" stroke-width="0.03" opacity="0.9"/>
<polygon points="-2.0,-4.04145188432738 -1.0,-4.04145188432738 -1.5,-4.907477288111819" fill="#FF6B6B" stroke="black" stroke-width="0.03" opacity="0.9"/>
<polygon points="-2.0,-2.886751345948129 -1.0,-2.886751345948129 -1.5,-2.0207259421636903" fill="#FF6B6B" stroke="black" stroke-width="0.03" opacity="0.9"/>
<polygon points="1.0,-2.886751345948129 2.0,-2.886751345948129 1.5,-2.0207259421636903" fill="#FF6B6B" stroke="black" stroke-width="0.03" opacity="0.9"/>
<polygon points="-0.5,-1.4433756729740643 0.5,-1.4433756729740643 0.0,-2.309401076758503" fill="#FF6B6B" stroke="black" stroke-width="0.03" opacity="0.9"/>
<polygon points="2.5,-1.4433756729740643 3.5,-1.4433756729740643 3.0,-2.309401076758503" fill="#FF6B6B" stroke="black" stroke-width="0.03" opacity="0.9"/>
<polygon points="-0.5,-0.28867513459481287 0.5,-0.28867513459481287 0.0,0.5773502691896257" fill="#FF6B6B" stroke="black" stroke-width="0.03" opacity="0.9"/>
<polygon points="-2.0,1.1547005383792515 -1.0,1.1547005383792515 -1.5,0.28867513459481287" fill="#FF6B6B" stroke="black" stroke-width="0.03" opacity="0.9"/>
<polygon points="1.0,1.1547005383792515 2.0,1.1547005383792515 1.5,0.28867513459481287" fill="#FF6B6B" stroke="black" stroke-width="0.03" opacity="0.9"/>
<polygon points="1.0,2.309401076758503 2.0,2.309401076758503 1.5,3.1754264805429417" fill="#FF6B6B" stroke="black" stroke-width="0.03" opacity="0.9"/>
<polygon points="-6.5,8.948929172439199 -5.5,8.948929172439199 -6.0,8.08290376865476" fill="#4ECDC4" stroke="black" stroke-width="0.03" opacity="0.9"/>
<polygon points="-8.0,7.505553499465134 -7.0,7.505553499465134 -7.5,8.371578903249572" fill="#4ECDC4" stroke="black" stroke-width="0.03" opacity="0.9"/>
<polygon points="-8.0,6.3508529610858835 -7.0,6.3508529610858835 -7.5,5.484827557301445" fill="#4ECDC4" stroke="black" stroke-width="0.03" opacity="0.9"/>
<polygon points="-5.0,6.3508529610858835 -4.0,6.3508529610858835 -4.5,5.484827557301445" fill="#4ECDC4" stroke="black" stroke-width="0.03" opacity="0.9"/>
<polygon points="-6.5,4.907477288111819 -5.5,4.907477288111819 -6.0,5.773502691896258" fill="#4ECDC4" stroke="black" stroke-width="0.03" opacity="0.9"/>
<polygon points="-3.5,4.907477288111819 -2.5,4.907477288111819 -3.0,5.773502691896258" fill="#4ECDC4" stroke="black" stroke-width="0.03" opacity="0.9"/>
<polygon points="-6.5,3.7527767497325675 -5.5,3.7527767497325675 -6.0,2.8867513459481287" fill="#4ECDC4" stroke="black" stroke-width="0.03" opacity="0.9"/>
<polygon points="-8.0,2.309401076758503 -7.0,2.309401076758503 -7.5,3.1754264805429417" fill="#4ECDC4" stroke="black" stroke-width="0.03" opacity="0.9"/>
<polygon points="-5.0,2.309401076758503 -4.0,2.309401076758503 -4.5,3.1754264805429417" fill="#4ECDC4" stroke="black" stroke-width="0.03" opacity="0.9"/>
<polygon points="-5.0,1.1547005383792515 -4.0,1.1547005383792515 -4.5,0.28867513459481287" fill="#4ECDC4" stroke="black" stroke-width="0.03" opacity="0.9"/>
<polygon points="-3.5,-0.28867513459481287 -2.5,-0.28867513459481287 -3.0,0.5773502691896257" fill="#4ECDC4" stroke="black" stroke-width="0.03" opacity="0.9"/>
<polygon points="-3.5,-1.4433756729740643 -2.5,-1.4433756729740643 -3.0,-2.309401076758503" fill="#4ECDC4" stroke="black" stroke-width="0.03" opacity="0.9"/>
<polygon points="-5.0,-2.886751345948129 -4.0,-2.886751345948129 -4.5,-2.0207259421636903" fill="#4ECDC4" stroke="black" stroke-width="0.03" opacity="0.9"/>
<polygon points="-6.5,-0.28867513459481287 -5.5,-0.28867513459481287 -6.0,0.5773502691896257" fill="#4ECDC4" stroke="black" stroke-width="0.03" opacity="0.9"/>
<polygon points="-6.5,-1.4433756729740643 -5.5,-1.4433756729740643 -6.0,-2.309401076758503" fill="#4ECDC4" stroke="black" stroke-width="0.03" opacity="0.9"/>
<polygon points="-8.0,1.1547005383792515 -7.0,1.1547005383792515 -7.5,0.28867513459481287" fill="#4ECDC4" stroke="black" stroke-width="0.03" opacity="0.9"/>
<polygon points="-8.0,-2.886751345948129 -7.0,-2.886751345948129 -7.5,-2.0207259421636903" fill="#4ECDC4" stroke="black" stroke-width="0.03" opacity="0.9"/>
<polygon points="-8.0,-4.04145188432738 -7.0,-4.04145188432738 -7.5,-4.907477288111819" fill="#4ECDC4" stroke="black" stroke-width="0.03" opacity="0.9"/>
<polygon points="-9.5,-1.4433756729740643 -8.5,-1.4433756729740643 -9.0,-2.309401076758503" fill="#4ECDC4" stroke="black" stroke-width="0.03" opacity="0.9"/>
<polygon points="-11.0,-2.886751345948129 -10.0,-2.886751345948129 -10.5,-2.0207259421636903" fill="#4ECDC4" stroke="black" stroke-width="0.03" opacity="0.9"/>
<polygon points="-6.5,-5.484827557301445 -5.5,-5.484827557301445 -6.0,-4.618802153517006" fill="#4ECDC4" stroke="black" stroke-width="0.03" opacity="0.9"/>
<polygon points="-5.0,-4.04145188432738 -4.0,-4.04145188432738 -4.5,-4.907477288111819" fill="#4ECDC4" stroke="black" stroke-width="0.03" opacity="0.9"/>
<polygon points="-3.5,-5.484827557301445 -2.5,-5.484827557301445 -3.0,-4.618802153517006" fill="#4ECDC4" stroke="black" stroke-width="0.03" opacity="0.9"/>
<polygon points="-5.0,-8.08290376865476 -4.0,-8.08290376865476 -4.5,-7.216878364870322" fill="#4ECDC4" stroke="black" stroke-width="0.03" opacity="0.9"/>
<polygon points="-3.5,-6.639528095680696 -2.5,-6.639528095680696 -3.0,-7.505553499465135" fill="#4ECDC4" stroke="black" stroke-width="0.03" opacity="0.9"/>
<polygon points="-5.0,-9.237604307034012 -4.0,-9.237604307034012 -4.5,-10.103629710818451" fill="#4ECDC4" stroke="black" stroke-width="0.03" opacity="0.9"/>
<polygon points="-2.0,-8.08290376865476 -1.0,-8.08290376865476 -1.5,-7.216878364870322" fill="#4ECDC4" stroke="black" stroke-width="0.03" opacity="0.9"/>
<polygon points="-0.5,-6.639528095680696 0.5,-6.639528095680696 0.0,-7.505553499465135" fill="#4ECDC4" stroke="black" stroke-width="0.03" opacity="0.9"/>
<polygon points="-2.0,-9.237604307034012 -1.0,-9.237604307034012 -1.5,-10.103629710818451" fill="#4ECDC4" stroke="black" stroke-width="0.03" opacity="0.9"/>
<polygon points="-0.5,-10.680979980008077 0.5,-10.680979980008077 0.0,-9.814954576223638" fill="#4ECDC4" stroke="black" stroke-width="0.03" opacity="0.9"/>
<polygon points="2.5,-10.680979980008077 3.5,-10.680979980008077 3.0,-9.814954576223638" fill="#4ECDC4" stroke="black" stroke-width="0.03" opacity="0.9"/>
<polygon points="1.0,-9.237604307034012 2.0,-9.237604307034012 1.5,-10.103629710818451" fill="#4ECDC4" stroke="black" stroke-width="0.03" opacity="0.9"/>
<polygon points="1.0,-8.08290376865476 2.0,-8.08290376865476 1.5,-7.216878364870322" fill="#4ECDC4" stroke="black" stroke-width="0.03" opacity="0.9"/>
<polygon points="4.0,-8.08290376865476 5.0,-8.08290376865476 4.5,-7.216878364870322" fill="#4ECDC4" stroke="black" stroke-width="0.03" opacity="0.9"/>
<polygon points="2.5,-6.639528095680696 3.5,-6.639528095680696 3.0,-7.505553499465135" fill="#4ECDC4" stroke="black" stroke-width="0.03" opacity="0.9"/>
<polygon points="5.5,-6.639528095680696 6.5,-6.639528095680696 6.0,-7.505553499465135" fill="#4ECDC4" stroke="black" stroke-width="0.03" opacity="0.9"/>
<polygon points="2.5,-5.484827557301445 3.5,-5.484827557301445 3.0,-4.618802153517006" fill="#4ECDC4" stroke="black" stroke-width="0.03" opacity="0.9"/>
<polygon points="1.0,-4.04145188432738 2.0,-4.04145188432738 1.5,-4.907477288111819" fill="#4ECDC4" stroke="black" stroke-width="0.03" opacity="0.9"/>
<polygon points="4.0,-4.04145188432738 5.0,-4.04145188432738 4.5,-4.907477288111819" fill="#4ECDC4" stroke="black" stroke-width="0.03" opacity="0.9"/>
<polygon points="4.0,-2.886751345948129 5.0,-2.886751345948129 4.5,-2.0207259421636903" fill="#4ECDC4" stroke="black" stroke-width="0.03" opacity="0.9"/>
<polygon points="-3.5,3.7527767497325675 -2.5,3.7527767497325675 -3.0,2.8867513459481287" fill="#4ECDC4" stroke="black" stroke-width="0.03" opacity="0.9"/>
<polygon points="-2.0,2.309401076758503 -1.0,2.309401076758503 -1.5,3.1754264805429417" fill="#4ECDC4" stroke="black" stroke-width="0.03" opacity="0.9"/>
<polygon points="-0.5,3.7527767497325675 0.5,3.7527767497325675 0.0,2.8867513459481287" fill="#4ECDC4" stroke="black" stroke-width="0.03" opacity="0.9"/>
<polygon points="-2.0,6.3508529610858835 -1.0,6.3508529610858835 -1.5,5.484827557301445" fill="#4ECDC4" stroke="black" stroke-width="0.03" opacity="0.9"/>
<polygon points="-0.5,4.907477288111819 0.5,4.907477288111819 0.0,5.773502691896258" fill="#4ECDC4" stroke="black" stroke-width="0.03" opacity="0.9"/>
<polygon points="-2.0,7.505553499465134 -1.0,7.505553499465134 -1.5,8.371578903249572" fill="#4ECDC4" stroke="black" stroke-width="0.03" opacity="0.9"/>
<polygon points="1.0,6.3508529610858835 2.0,6.3508529610858835 1.5,5.484827557301445" fill="#4ECDC4" stroke="black" stroke-width="0.03" opacity="0.9"/>
<polygon points="2.5,4.907477288111819 3.5,4.907477288111819 3.0,5.773502691896258" fill="#4ECDC4" stroke="black" stroke-width="0.03" opacity="0.9"/>
<polygon points="1.0,7.505553499465134 2.0,7.505553499465134 1.5,8.371578903249572" fill="#4ECDC4" stroke="black" stroke-width="0.03" opacity="0.9"/>
<polygon points="2.5,8.948929172439199 3.5,8.948929172439199 3.0,8.08290376865476" fill="#4ECDC4" stroke="black" stroke-width="0.03" opacity="0.9"/>
<polygon points="8.5,-1.4433756729740643 9.5,-1.4433756729740643 9.0,-2.309401076758503" fill="#4ECDC4" stroke="black" stroke-width="0.03" opacity="0.9"/>
<polygon points="7.0,-2.886751345948129 8.0,-2.886751345948129 7.5,-2.0207259421636903" fill="#4ECDC4" stroke="black" stroke-width="0.03" opacity="0.9"/>
<polygon points="5.5,-1.4433756729740643 6.5,-1.4433756729740643 6.0,-2.309401076758503" fill="#4ECDC4" stroke="black" stroke-width="0.03" opacity="0.9"/>
<polygon points="7.0,1.1547005383792515 8.0,1.1547005383792515 7.5,0.28867513459481287" fill="#4ECDC4" stroke="black" stroke-width="0.03" opacity="0.9"/>
<polygon points="5.5,-0.28867513459481287 6.5,-0.28867513459481287 6.0,0.5773502691896257" fill="#4ECDC4" stroke="black" stroke-width="0.03" opacity="0.9"/>
<polygon points="7.0,2.309401076758503 8.0,2.309401076758503 7.5,3.1754264805429417" fill="#4ECDC4" stroke="black" stroke-width="0.03" opacity="0.9"/>
<polygon points="4.0,1.1547005383792515 5.0,1.1547005383792515 4.5,0.28867513459481287" fill="#4ECDC4" stroke="black" stroke-width="0.03" opacity="0.9"/>
<polygon points="2.5,-0.28867513459481287 3.5,-0.28867513459481287 3.0,0.5773502691896257" fill="#4ECDC4" stroke="black" stroke-width="0.03" opacity="0.9"/>
<polygon points="4.0,2.309401076758503 5.0,2.309401076758503 4.5,3.1754264805429417" fill="#4ECDC4" stroke="black" stroke-width="0.03" opacity="0.9"/>
<polygon points="2.5,3.7527767497325675 3.5,3.7527767497325675 3.0,2.8867513459481287" fill="#4ECDC4" stroke="black" stroke-width="0.03" opacity="0.9"/>
<polygon points="8.5,8.948929172439199 9.5,8.948929172439199 9.0,8.08290376865476" fill="#FFA07A" stroke="black" stroke-width="0.03" opacity="0.9"/>
<polygon points="8.5,10.103629710818451 9.5,10.103629710818451 9.0,10.96965511460289" fill="#FFA07A" stroke="black" stroke-width="0.03" opacity="0.9"/>
<polygon points="10.0,11.547005383792515 11.0,11.547005383792515 10.5,10.680979980008075" fill="#FFA07A" stroke="black" stroke-width="0.03" opacity="0.9"/>
<polygon points="11.5,8.948929172439199 12.5,8.948929172439199 12.0,8.08290376865476" fill="#FFA07A" stroke="black" stroke-width="0.03" opacity="0.9"/>
<polygon points="11.5,10.103629710818451 12.5,10.103629710818451 12.0,10.96965511460289" fill="#FFA07A" stroke="black" stroke-width="0.03" opacity="0.9"/>
<polygon points="13.0,7.505553499465134 14.0,7.505553499465134 13.5,8.371578903249572" fill="#FFA07A" stroke="black" stroke-width="0.03" opacity="0.9"/>
<polygon points="13.0,11.547005383792515 14.0,11.547005383792515 13.5,10.680979980008075" fill="#FFA07A" stroke="black" stroke-width="0.03" opacity="0.9"/>
<polygon points="13.0,12.701705922171765 14.0,12.701705922171765 13.5,13.567731325956204" fill="#FFA07A" stroke="black" stroke-width="0.03" opacity="0.9"/>
<polygon points="14.5,10.103629710818451 15.5,10.103629710818451 15.0,10.96965511460289" fill="#FFA07A" stroke="black" stroke-width="0.03" opacity="0.9"/>
<polygon points="16.0,11.547005383792515 17.0,11.547005383792515 16.5,10.680979980008075" fill="#FFA07A" stroke="black" stroke-width="0.03" opacity="0.9"/>
<polygon points="-3.5,15.299782133525081 -2.5,15.299782133525081 -3.0,16.16580753730952" fill="#45B7D1" stroke="black" stroke-width="0.03" opacity="0.9"/>
<polygon points="-3.5,14.14508159514583 -2.5,14.14508159514583 -3.0,13.279056191361391" fill="#45B7D1" stroke="black" stroke-width="0.03" opacity="0.9"/>
<polygon points="-2.0,12.701705922171765 -1.0,12.701705922171765 -1.5,13.567731325956204" fill="#45B7D1" stroke="black" stroke-width="0.03" opacity="0.9"/>
<polygon points="-0.5,15.299782133525081 0.5,15.299782133525081 0.0,16.16580753730952" fill="#45B7D1" stroke="black" stroke-width="0.03" opacity="0.9"/>
<polygon points="-0.5,14.14508159514583 0.5,14.14508159514583 0.0,13.279056191361391" fill="#45B7D1" stroke="black" stroke-width="0.03" opacity="0.9"/>
<polygon points="1.0,16.743157806499145 2.0,16.743157806499145 1.5,15.877132402714707" fill="#45B7D1" stroke="black" stroke-width="0.03" opacity="0.9"/>
<polygon points="1.0,12.701705922171765 2.0,12.701705922171765 1.5,13.567731325956204" fill="#45B7D1" stroke="black" stroke-width="0.03" opacity="0.9"/>
<polygon points="1.0,11.547005383792515 2.0,11.547005383792515 1.5,10.680979980008075" fill="#45B7D1" stroke="black" stroke-width="0.03" opacity="0.9"/>
<polygon points="2.5,14.14508159514583 3.5,14.14508159514583 3.0,13.279056191361391" fill="#45B7D1" stroke="black" stroke-width="0.03" opacity="0.9"/>
<polygon points="4.0,12.701705922171765 5.0,12.701705922171765 4.5,13.567731325956204" fill="#45B7D1" stroke="black" stroke-width="0.03" opacity="0.9"/>
<polygon points="5.5,14.14508159514583 6.5,14.14508159514583 6.0,13.279056191361391" fill="#45B7D1" stroke="black" stroke-width="0.03" opacity="0.9"/>
<polygon points="7.0,12.701705922171765 8.0,12.701705922171765 7.5,13.567731325956204" fill="#45B7D1" stroke="black" stroke-width="0.03" opacity="0.9"/>
<polygon points="7.0,11.547005383792515 8.0,11.547005383792515 7.5,10.680979980008075" fill="#45B7D1" stroke="black" stroke-width="0.03" opacity="0.9"/>
<polygon points="4.0,11.547005383792515 5.0,11.547005383792515 4.5,10.680979980008075" fill="#45B7D1" stroke="black" stroke-width="0.03" opacity="0.9"/>
<polygon points="5.5,10.103629710818451 6.5,10.103629710818451 6.0,10.96965511460289" fill="#45B7D1" stroke="black" stroke-width="0.03" opacity="0.9"/>
<polygon points="2.5,10.103629710818451 3.5,10.103629710818451 3.0,10.96965511460289" fill="#45B7D1" stroke="black" stroke-width="0.03" opacity="0.9"/>
<polygon points="5.5,8.948929172439199 6.5,8.948929172439199 6.0,8.08290376865476" fill="#45B7D1" stroke="black" stroke-width="0.03" opacity="0.9"/>
<polygon points="7.0,7.505553499465134 8.0,7.505553499465134 7.5,8.371578903249572" fill="#45B7D1" stroke="black" stroke-width="0.03" opacity="0.9"/>
<polygon points="4.0,7.505553499465134 5.0,7.505553499465134 4.5,8.371578903249572" fill="#45B7D1" stroke="black" stroke-width="0.03" opacity="0.9"/>
<polygon points="4.0,6.3508529610858835 5.0,6.3508529610858835 4.5,5.484827557301445" fill="#45B7D1" stroke="black" stroke-width="0.03" opacity="0.9"/>
<polygon points="5.5,3.7527767497325675 6.5,3.7527767497325675 6.0,2.8867513459481287" fill="#45B7D1" stroke="black" stroke-width="0.03" opacity="0.9"/>
<polygon points="5.5,4.907477288111819 6.5,4.907477288111819 6.0,5.773502691896258" fill="#45B7D1" stroke="black" stroke-width="0.03" opacity="0.9"/>
<polygon points="7.0,6.3508529610858835 8.0,6.3508529610858835 7.5,5.484827557301445" fill="#45B7D1" stroke="black" stroke-width="0.03" opacity="0.9"/>
<polygon points="8.5,3.7527767497325675 9.5,3.7527767497325675 9.0,2.8867513459481287" fill="#45B7D1" stroke="black" stroke-width="0.03" opacity="0.9"/>
<polygon points="8.5,4.907477288111819 9.5,4.907477288111819 9.0,5.773502691896258" fill="#45B7D1" stroke="black" stroke-width="0.03" opacity="0.9"/>
<polygon points="10.0,2.309401076758503 11.0,2.309401076758503 10.5,3.1754264805429417" fill="#45B7D1" stroke="black" stroke-width="0.03" opacity="0.9"/>
<polygon points="10.0,6.3508529610858835 11.0,6.3508529610858835 10.5,5.484827557301445" fill="#45B7D1" stroke="black" stroke-width="0.03" opacity="0.9"/>
<polygon points="10.0,7.505553499465134 11.0,7.505553499465134 10.5,8.371578903249572" fill="#45B7D1" stroke="black" stroke-width="0.03" opacity="0.9"/>
<polygon points="11.5,4.907477288111819 12.5,4.907477288111819 12.0,5.773502691896258" fill="#45B7D1" stroke="black" stroke-width="0.03" opacity="0.9"/>
<polygon points="13.0,6.3508529610858835 14.0,6.3508529610858835 13.5,5.484827557301445" fill="#45B7D1" stroke="black" stroke-width="0.03" opacity="0.9"/>
<polygon points="-14.0,11.547005383792515 -13.0,11.547005383792515 -13.5,10.680979980008075" fill="#45B7D1" stroke="black" stroke-width="0.03" opacity="0.9"/>
<polygon points="-14.0,12.701705922171765 -13.0,12.701705922171765 -13.5,13.567731325956204" fill="#45B7D1" stroke="black" stroke-width="0.03" opacity="0.9"/>
<polygon points="-12.5,14.14508159514583 -11.5,14.14508159514583 -12.0,13.279056191361391" fill="#45B7D1" stroke="black" stroke-width="0.03" opacity="0.9"/>
<polygon points="-11.0,11.547005383792515 -10.0,11.547005383792515 -10.5,10.680979980008075" fill="#45B7D1" stroke="black" stroke-width="0.03" opacity="0.9"/>
<polygon points="-11.0,12.701705922171765 -10.0,12.701705922171765 -10.5,13.567731325956204" fill="#45B7D1" stroke="black" stroke-width="0.03" opacity="0.9"/>
<polygon points="-9.5,10.103629710818451 -8.5,10.103629710818451 -9.0,10.96965511460289" fill="#45B7D1" stroke="black" stroke-width="0.03" opacity="0.9"/>
<polygon points="-9.5,14.14508159514583 -8.5,14.14508159514583 -9.0,13.279056191361391" fill="#45B7D1" stroke="black" stroke-width="0.03" opacity="0.9"/>
<polygon points="-9.5,15.299782133525081 -8.5,15.299782133525081 -9.0,16.16580753730952" fill="#45B7D1" stroke="black" stroke-width="0.03" opacity="0.9"/>
<polygon points="-8.0,12.701705922171765 -7.0,12.701705922171765 -7.5,13.567731325956204" fill="#45B7D1" stroke="black" stroke-width="0.03" opacity="0.9"/>
<polygon points="-6.5,14.14508159514583 -5.5,14.14508159514583 -6.0,13.279056191361391" fill="#45B7D1" stroke="black" stroke-width="0.03" opacity="0.9"/>
<polygon points="-0.5,8.948929172439199 0.5,8.948929172439199 0.0,8.08290376865476" fill="#45B7D1" stroke="black" stroke-width="0.03" opacity="0.9"/>
<polygon points="-0.5,10.103629710818451 0.5,10.103629710818451 0.0,10.96965511460289" fill="#45B7D1" stroke="black" stroke-width="0.03" opacity="0.9"/>
<polygon points="-2.0,11.547005383792515 -1.0,11.547005383792515 -1.5,10.680979980008075" fill="#45B7D1" stroke="black" stroke-width="0.03" opacity="0.9"/>
<polygon points="-3.5,8.948929172439199 -2.5,8.948929172439199 -3.0,8.08290376865476" fill="#45B7D1" stroke="black" stroke-width="0.03" opacity="0.9"/>
<polygon points="-3.5,10.103629710818451 -2.5,10.103629710818451 -3.0,10.96965511460289" fill="#45B7D1" stroke="black" stroke-width="0.03" opacity="0.9"/>
<polygon points="-5.0,7.505553499465134 -4.0,7.505553499465134 -4.5,8.371578903249572" fill="#45B7D1" stroke="black" stroke-width="0.03" opacity="0.9"/>
<polygon points="-5.0,11.547005383792515 -4.0,11.547005383792515 -4.5,10.680979980008075" fill="#45B7D1" stroke="black" stroke-width="0.03" opacity="0.9"/>
<polygon points="-5.0,12.701705922171765 -4.0,12.701705922171765 -4.5,13.567731325956204" fill="#45B7D1" stroke="black" stroke-width="0.03" opacity="0.9"/>
<polygon points="-6.5,10.103629710818451 -5.5,10.103629710818451 -6.0,10.96965511460289" fill="#45B7D1" stroke="black" stroke-width="0.03" opacity="0.9"/>
<polygon points="-8.0,11.547005383792515 -7.0,11.547005383792515 -7.5,10.680979980008075" fill="#45B7D1" stroke="black" stroke-width="0.03" opacity="0.9"/>
<polygon points="-11.0,6.3508529610858835 -10.0,6.3508529610858835 -10.5,5.484827557301445" fill="#45B7D1" stroke="black" stroke-width="0.03" opacity="0.9"/>
<polygon points="-9.5,4.907477288111819 -8.5,4.907477288111819 -9.0,5.773502691896258" fill="#45B7D1" stroke="black" stroke-width="0.03" opacity="0.9"/>
<polygon points="-9.5,3.7527767497325675 -8.5,3.7527767497325675 -9.0,2.8867513459481287" fill="#45B7D1" stroke="black" stroke-width="0.03" opacity="0.9"/>
<polygon points="-12.5,3.7527767497325675 -11.5,3.7527767497325675 -12.0,2.8867513459481287" fill="#45B7D1" stroke="black" stroke-width="0.03" opacity="0.9"/>
<polygon points="-11.0,2.309401076758503 -10.0,2.309401076758503 -10.5,3.1754264805429417" fill="#45B7D1" stroke="black" stroke-width="0.03" opacity="0.9"/>
<polygon points="-14.0,2.309401076758503 -13.0,2.309401076758503 -13.5,3.1754264805429417" fill="#45B7D1" stroke="black" stroke-width="0.03" opacity="0.9"/>
<polygon points="-11.0,1.1547005383792515 -10.0,1.1547005383792515 -10.5,0.28867513459481287" fill="#45B7D1" stroke="black" stroke-width="0.03" opacity="0.9"/>
<polygon points="-9.5,-0.28867513459481287 -8.5,-0.28867513459481287 -9.0,0.5773502691896257" fill="#45B7D1" stroke="black" stroke-width="0.03" opacity="0.9"/>
<polygon points="-12.5,-0.28867513459481287 -11.5,-0.28867513459481287 -12.0,0.5773502691896257" fill="#45B7D1" stroke="black" stroke-width="0.03" opacity="0.9"/>
<polygon points="-12.5,-1.4433756729740643 -11.5,-1.4433756729740643 -12.0,-2.309401076758503" fill="#45B7D1" stroke="black" stroke-width="0.03" opacity="0.9"/>
<polygon points="-17.0,6.3508529610858835 -16.0,6.3508529610858835 -16.5,5.484827557301445" fill="#45B7D1" stroke="black" stroke-width="0.03" opacity="0.9"/>
<polygon points="-17.0,7.505553499465134 -16.0,7.505553499465134 -16.5,8.371578903249572" fill="#45B7D1" stroke="black" stroke-width="0.03" opacity="0.9"/>
<polygon points="-15.5,8.948929172439199 -14.5,8.948929172439199 -15.0,8.08290376865476" fill="#45B7D1" stroke="black" stroke-width="0.03" opacity="0.9"/>
<polygon points="-14.0,6.3508529610858835 -13.0,6.3508529610858835 -13.5,5.484827557301445" fill="#45B7D1" stroke="black" stroke-width="0.03" opacity="0.9"/>
<polygon points="-14.0,7.505553499465134 -13.0,7.505553499465134 -13.5,8.371578903249572" fill="#45B7D1" stroke="black" stroke-width="0.03" opacity="0.9"/>
<polygon points="-12.5,4.907477288111819 -11.5,4.907477288111819 -12.0,5.773502691896258" fill="#45B7D1" stroke="black" stroke-width="0.03" opacity="0.9"/>
<polygon points="-12.5,8.948929172439199 -11.5,8.948929172439199 -12.0,8.08290376865476" fill="#45B7D1" stroke="black" stroke-width="0.03" opacity="0.9"/>
<polygon points="-12.5,10.103629710818451 -11.5,10.103629710818451 -12.0,10.96965511460289" fill="#45B7D1" stroke="black" stroke-width="0.03" opacity="0.9"/>
<polygon points="-11.0,7.505553499465134 -10.0,7.505553499465134 -10.5,8.371578903249572" fill="#45B7D1" stroke="black" stroke-width="0.03" opacity="0.9"/>
<polygon points="-9.5,8.948929172439199 -8.5,8.948929172439199 -9.0,8.08290376865476" fill="#45B7D1" stroke="black" stroke-width="0.03" opacity="0.9"/>
<polygon points="7.0,21.939310229205777 8.0,21.939310229205777 7.5,21.07328482542134" fill="#FFA07A" stroke="black" stroke-width="0.03" opacity="0.9"/>
<polygon points="5.5,20.495934556231717 6.5,20.495934556231717 6.0,21.361959960016154" fill="#FFA07A" stroke="black" stroke-width="0.03" opacity="0.9"/>
<polygon points="5.5,19.34123401785246 6.5,19.34123401785246 6.0,18.475208614068023" fill="#FFA07A" stroke="black" stroke-width="0.03" opacity="0.9"/>
<polygon points="8.5,19.34123401785246 9.5,19.34123401785246 9.0,18.475208614068023" fill="#FFA07A" stroke="black" stroke-width="0.03" opacity="0.9"/>
<polygon points="7.0,17.8978583448784 8.0,17.8978583448784 7.5,18.76388374866284" fill="#FFA07A" stroke="black" stroke-width="0.03" opacity="0.9"/>
<polygon points="10.0,17.8978583448784 11.0,17.8978583448784 10.5,18.76388374866284" fill="#FFA07A" stroke="black" stroke-width="0.03" opacity="0.9"/>
<polygon points="7.0,16.743157806499145 8.0,16.743157806499145 7.5,15.877132402714707" fill="#FFA07A" stroke="black" stroke-width="0.03" opacity="0.9"/>
<polygon points="5.5,15.299782133525081 6.5,15.299782133525081 6.0,16.16580753730952" fill="#FFA07A" stroke="black" stroke-width="0.03" opacity="0.9"/>
<polygon points="8.5,15.299782133525081 9.5,15.299782133525081 9.0,16.16580753730952" fill="#FFA07A" stroke="black" stroke-width="0.03" opacity="0.9"/>
<polygon points="8.5,14.14508159514583 9.5,14.14508159514583 9.0,13.279056191361391" fill="#FFA07A" stroke="black" stroke-width="0.03" opacity="0.9"/>
<polygon points="2.5,15.299782133525081 3.5,15.299782133525081 3.0,16.16580753730952" fill="#FFA07A" stroke="black" stroke-width="0.03" opacity="0.9"/>
<polygon points="4.0,16.743157806499145 5.0,16.743157806499145 4.5,15.877132402714707" fill="#FFA07A" stroke="black" stroke-width="0.03" opacity="0.9"/>
<polygon points="4.0,17.8978583448784 5.0,17.8978583448784 4.5,18.76388374866284" fill="#FFA07A" stroke="black" stroke-width="0.03" opacity="0.9"/>
<polygon points="1.0,17.8978583448784 2.0,17.8978583448784 1.5,18.76388374866284" fill="#FFA07A" stroke="black" stroke-width="0.03" opacity="0.9"/>
<polygon points="2.5,19.34123401785246 3.5,19.34123401785246 3.0,18.475208614068023" fill="#FFA07A" stroke="black" stroke-width="0.03" opacity="0.9"/>
<polygon points="-0.5,19.34123401785246 0.5,19.34123401785246 0.0,18.475208614068023" fill="#FFA07A" stroke="black" stroke-width="0.03" opacity="0.9"/>
<polygon points="2.5,20.495934556231717 3.5,20.495934556231717 3.0,21.361959960016154" fill="#FFA07A" stroke="black" stroke-width="0.03" opacity="0.9"/>
<polygon points="4.0,21.939310229205777 5.0,21.939310229205777 4.5,21.07328482542134" fill="#FFA07A" stroke="black" stroke-width="0.03" opacity="0.9"/>
<polygon points="1.0,21.939310229205777 2.0,21.939310229205777 1.5,21.07328482542134" fill="#FFA07A" stroke="black" stroke-width="0.03" opacity="0.9"/>
<polygon points="1.0,23.09401076758503 2.0,23.09401076758503 1.5,23.960036171369467" fill="#FFA07A" stroke="black" stroke-width="0.03" opacity="0.9"/>
<polygon points="5.5,-5.484827557301445 6.5,-5.484827557301445 6.0,-4.618802153517006" fill="#45B7D1" stroke="black" stroke-width="0.03" opacity="0.9"/>
<polygon points="7.0,-4.04145188432738 8.0,-4.04145188432738 7.5,-4.907477288111819" fill="#45B7D1" stroke="black" stroke-width="0.03" opacity="0.9"/>
<polygon points="8.5,-5.484827557301445 9.5,-5.484827557301445 9.0,-4.618802153517006" fill="#45B7D1" stroke="black" stroke-width="0.03" opacity="0.9"/>
<polygon points="7.0,-8.08290376865476 8.0,-8.08290376865476 7.5,-7.216878364870322" fill="#45B7D1" stroke="black" stroke-width="0.03" opacity="0.9"/>
<polygon points="8.5,-6.639528095680696 9.5,-6.639528095680696 9.0,-7.505553499465135" fill="#45B7D1" stroke="black" stroke-width="0.03" opacity="0.9"/>
<polygon points="7.0,-9.237604307034012 8.0,-9.237604307034012 7.5,-10.103629710818451" fill="#45B7D1" stroke="black" stroke-width="0.03" opacity="0.9"/>
<polygon points="10.0,-8.08290376865476 11.0,-8.08290376865476 10.5,-7.216878364870322" fill="#45B7D1" stroke="black" stroke-width="0.03" opacity="0.9"/>
<polygon points="11.5,-6.639528095680696 12.5,-6.639528095680696 12.0,-7.505553499465135" fill="#45B7D1" stroke="black" stroke-width="0.03" opacity="0.9"/>
<polygon points="10.0,-9.237604307034012 11.0,-9.237604307034012 10.5,-10.103629710818451" fill="#45B7D1" stroke="black" stroke-width="0.03" opacity="0.9"/>
<polygon points="11.5,-10.680979980008077 12.5,-10.680979980008077 12.0,-9.814954576223638" fill="#45B7D1" stroke="black" stroke-width="0.03" opacity="0.9"/>
<polygon points="-14.0,1.1547005383792515 -13.0,1.1547005383792515 -13.5,0.28867513459481287" fill="#FFA07A" stroke="black" stroke-width="0.03" opacity="0.9"/>
<polygon points="-15.5,-0.28867513459481287 -14.5,-0.28867513459481287 -15.0,0.5773502691896257" fill="#FFA07A" stroke="black" stroke-width="0.03" opacity="0.9"/>
<polygon points="-17.0,1.1547005383792515 -16.0,1.1547005383792515 -16.5,0.28867513459481287" fill="#FFA07A" stroke="black" stroke-width="0.03" opacity="0.9"/>
<polygon points="-15.5,3.7527767497325675 -14.5,3.7527767497325675 -15.0,2.8867513459481287" fill="#FFA07A" stroke="black" stroke-width="0.03" opacity="0.9"/>
<polygon points="-17.0,2.309401076758503 -16.0,2.309401076758503 -16.5,3.1754264805429417" fill="#FFA07A" stroke="black" stroke-width="0.03" opacity="0.9"/>
<polygon points="-15.5,4.907477288111819 -14.5,4.907477288111819 -15.0,5.773502691896258" fill="#FFA07A" stroke="black" stroke-width="0.03" opacity="0.9"/>
<polygon points="-18.5,3.7527767497325675 -17.5,3.7527767497325675 -18.0,2.8867513459481287" fill="#FFA07A" stroke="black" stroke-width="0.03" opacity="0.9"/>
<polygon points="-20.0,2.309401076758503 -19.0,2.309401076758503 -19.5,3.1754264805429417" fill="#FFA07A" stroke="black" stroke-width="0.03" opacity="0.9"/>
<polygon points="-18.5,4.907477288111819 -17.5,4.907477288111819 -18.0,5.773502691896258" fill="#FFA07A" stroke="black" stroke-width="0.03" opacity="0.9"/>
<polygon points="-20.0,6.3508529610858835 -19.0,6.3508529610858835 -19.5,5.484827557301445" fill="#FFA07A" stroke="black" stroke-width="0.03" opacity="0.9"/>
<polygon points="8.5,-10.680979980008077 9.5,-10.680979980008077 9.0,-9.814954576223638" fill="#45B7D1" stroke="black" stroke-width="0.03" opacity="0.9"/>
<polygon points="8.5,-11.835680518387328 9.5,-11.835680518387328 9.0,-12.701705922171767" fill="#45B7D1" stroke="black" stroke-width="0.03" opacity="0.9"/>
<polygon points="7.0,-13.279056191361391 8.0,-13.279056191361391 7.5,-12.413030787576952" fill="#45B7D1" stroke="black" stroke-width="0.03" opacity="0.9"/>
<polygon points="5.5,-10.680979980008077 6.5,-10.680979980008077 6.0,-9.814954576223638" fill="#45B7D1" stroke="black" stroke-width="0.03" opacity="0.9"/>
<polygon points="5.5,-11.835680518387328 6.5,-11.835680518387328 6.0,-12.701705922171767" fill="#45B7D1" stroke="black" stroke-width="0.03" opacity="0.9"/>
<polygon points="4.0,-9.237604307034012 5.0,-9.237604307034012 4.5,-10.103629710818451" fill="#45B7D1" stroke="black" stroke-width="0.03" opacity="0.9"/>
<polygon points="4.0,-13.279056191361391 5.0,-13.279056191361391 4.5,-12.413030787576952" fill="#45B7D1" stroke="black" stroke-width="0.03" opacity="0.9"/>
<polygon points="4.0,-14.433756729740644 5.0,-14.433756729740644 4.5,-15.299782133525083" fill="#45B7D1" stroke="black" stroke-width="0.03" opacity="0.9"/>
<polygon points="2.5,-11.835680518387328 3.5,-11.835680518387328 3.0,-12.701705922171767" fill="#45B7D1" stroke="black" stroke-width="0.03" opacity="0.9"/>
<polygon points="1.0,-13.279056191361391 2.0,-13.279056191361391 1.5,-12.413030787576952" fill="#45B7D1" stroke="black" stroke-width="0.03" opacity="0.9"/>
<polygon points="-5.0,-13.279056191361391 -4.0,-13.279056191361391 -4.5,-12.413030787576952" fill="#45B7D1" stroke="black" stroke-width="0.03" opacity="0.9"/>
<polygon points="-6.5,-11.835680518387328 -5.5,-11.835680518387328 -6.0,-12.701705922171767" fill="#45B7D1" stroke="black" stroke-width="0.03" opacity="0.9"/>
<polygon points="-8.0,-13.279056191361391 -7.0,-13.279056191361391 -7.5,-12.413030787576952" fill="#45B7D1" stroke="black" stroke-width="0.03" opacity="0.9"/>
<polygon points="-6.5,-15.877132402714707 -5.5,-15.877132402714707 -6.0,-15.011106998930268" fill="#45B7D1" stroke="black" stroke-width="0.03" opacity="0.9"/>
<polygon points="-8.0,-14.433756729740644 -7.0,-14.433756729740644 -7.5,-15.299782133525083" fill="#45B7D1" stroke="black" stroke-width="0.03" opacity="0.9"/>
<polygon points="-6.5,-17.03183294109396 -5.5,-17.03183294109396 -6.0,-17.897858344878397" fill="#45B7D1" stroke="black" stroke-width="0.03" opacity="0.9"/>
<polygon points="-9.5,-15.877132402714707 -8.5,-15.877132402714707 -9.0,-15.011106998930268" fill="#45B7D1" stroke="black" stroke-width="0.03" opacity="0.9"/>
<polygon points="-11.0,-14.433756729740644 -10.0,-14.433756729740644 -10.5,-15.299782133525083" fill="#45B7D1" stroke="black" stroke-width="0.03" opacity="0.9"/>
<polygon points="-9.5,-17.03183294109396 -8.5,-17.03183294109396 -9.0,-17.897858344878397" fill="#45B7D1" stroke="black" stroke-width="0.03" opacity="0.9"/>
<polygon points="-11.0,-18.475208614068023 -10.0,-18.475208614068023 -10.5,-17.609183210283586" fill="#45B7D1" stroke="black" stroke-width="0.03" opacity="0.9"/>
<polygon points="7.0,-19.629909152447276 8.0,-19.629909152447276 7.5,-20.495934556231713" fill="#FFA07A" stroke="black" stroke-width="0.03" opacity="0.9"/>
<polygon points="5.5,-21.07328482542134 6.5,-21.07328482542134 6.0,-20.207259421636902" fill="#FFA07A" stroke="black" stroke-width="0.03" opacity="0.9"/>
<polygon points="4.0,-19.629909152447276 5.0,-19.629909152447276 4.5,-20.495934556231713" fill="#FFA07A" stroke="black" stroke-width="0.03" opacity="0.9"/>
<polygon points="5.5,-17.03183294109396 6.5,-17.03183294109396 6.0,-17.897858344878397" fill="#FFA07A" stroke="black" stroke-width="0.03" opacity="0.9"/>
<polygon points="4.0,-18.475208614068023 5.0,-18.475208614068023 4.5,-17.609183210283586" fill="#FFA07A" stroke="black" stroke-width="0.03" opacity="0.9"/>
<polygon points="5.5,-15.877132402714707 6.5,-15.877132402714707 6.0,-15.011106998930268" fill="#FFA07A" stroke="black" stroke-width="0.03" opacity="0.9"/>
<polygon points="2.5,-17.03183294109396 3.5,-17.03183294109396 3.0,-17.897858344878397" fill="#FFA07A" stroke="black" stroke-width="0.03" opacity="0.9"/>
<polygon points="1.0,-18.475208614068023 2.0,-18.475208614068023 1.5,-17.609183210283586" fill="#FFA07A" stroke="black" stroke-width="0.03" opacity="0.9"/>
<polygon points="2.5,-15.877132402714707 3.5,-15.877132402714707 3.0,-15.011106998930268" fill="#FFA07A" stroke="black" stroke-width="0.03" opacity="0.9"/>
<polygon points="1.0,-14.433756729740644 2.0,-14.433756729740644 1.5,-15.299782133525083" fill="#FFA07A" stroke="black" stroke-width="0.03" opacity="0.9"/>
<polygon points="13.0,-13.279056191361391 14.0,-13.279056191361391 13.5,-12.413030787576952" fill="#FFA07A" stroke="black" stroke-width="0.03" opacity="0.9"/>
<polygon points="11.5,-11.835680518387328 12.5,-11.835680518387328 12.0,-12.701705922171767" fill="#FFA07A" stroke="black" stroke-width="0.03" opacity="0.9"/>
<polygon points="10.0,-13.279056191361391 11.0,-13.279056191361391 10.5,-12.413030787576952" fill="#FFA07A" stroke="black" stroke-width="0.03" opacity="0.9"/>
<polygon points="11.5,-15.877132402714707 12.5,-15.877132402714707 12.0,-15.011106998930268" fill="#FFA07A" stroke="black" stroke-width="0.03" opacity="0.9"/>
<polygon points="10.0,-14.433756729740644 11.0,-14.433756729740644 10.5,-15.299782133525083" fill="#FFA07A" stroke="black" stroke-width="0.03" opacity="0.9"/>
<polygon points="11.5,-17.03183294109396 12.5,-17.03183294109396 12.0,-17.897858344878397" fill="#FFA07A" stroke="black" stroke-width="0.03" opacity="0.9"/>
<polygon points="8.5,-15.877132402714707 9.5,-15.877132402714707 9.0,-15.011106998930268" fill="#FFA07A" stroke="black" stroke-width="0.03" opacity="0.9"/>
<polygon points="7.0,-14.433756729740644 8.0,-14.433756729740644 7.5,-15.299782133525083" fill="#FFA07A" stroke="black" stroke-width="0.03" opacity="0.9"/>
<polygon points="8.5,-17.03183294109396 9.5,-17.03183294109396 9.0,-17.897858344878397" fill="#FFA07A" stroke="black" stroke-width="0.03" opacity="0.9"/>
<polygon points="7.0,-18.475208614068023 8.0,-18.475208614068023 7.5,-17.609183210283586" fill="#FFA07A" stroke="black" stroke-width="0.03" opacity="0.9"/>
<polygon points="-2.0,-18.475208614068023 -1.0,-18.475208614068023 -1.5,-17.609183210283586" fill="#45B7D1" stroke="black" stroke-width="0.03" opacity="0.9"/>
<polygon points="-0.5,-17.03183294109396 0.5,-17.03183294109396 0.0,-17.897858344878397" fill="#45B7D1" stroke="black" stroke-width="0.03" opacity="0.9"/>
<polygon points="-0.5,-15.877132402714707 0.5,-15.877132402714707 0.0,-15.011106998930268" fill="#45B7D1" stroke="black" stroke-width="0.03" opacity="0.9"/>
<polygon points="-3.5,-15.877132402714707 -2.5,-15.877132402714707 -3.0,-15.011106998930268" fill="#45B7D1" stroke="black" stroke-width="0.03" opacity="0.9"/>
<polygon points="-2.0,-14.433756729740644 -1.0,-14.433756729740644 -1.5,-15.299782133525083" fill="#45B7D1" stroke="black" stroke-width="0.03" opacity="0.9"/>
<polygon points="-5.0,-14.433756729740644 -4.0,-14.433756729740644 -4.5,-15.299782133525083" fill="#45B7D1" stroke="black" stroke-width="0.03" opacity="0.9"/>
<polygon points="-2.0,-13.279056191361391 -1.0,-13.279056191361391 -1.5,-12.413030787576952" fill="#45B7D1" stroke="black" stroke-width="0.03" opacity="0.9"/>
<polygon points="-0.5,-11.835680518387328 0.5,-11.835680518387328 0.0,-12.701705922171767" fill="#45B7D1" stroke="black" stroke-width="0.03" opacity="0.9"/>
<polygon points="-3.5,-11.835680518387328 -2.5,-11.835680518387328 -3.0,-12.701705922171767" fill="#45B7D1" stroke="black" stroke-width="0.03" opacity="0.9"/>
<polygon points="-3.5,-10.680979980008077 -2.5,-10.680979980008077 -3.0,-9.814954576223638" fill="#45B7D1" stroke="black" stroke-width="0.03" opacity="0.9"/>
<polygon points="-12.5,-11.835680518387328 -11.5,-11.835680518387328 -12.0,-12.701705922171767" fill="#45B7D1" stroke="black" stroke-width="0.03" opacity="0.9"/>
<polygon points="-11.0,-13.279056191361391 -10.0,-13.279056191361391 -10.5,-12.413030787576952" fill="#45B7D1" stroke="black" stroke-width="0.03" opacity="0.9"/>
<polygon points="-9.5,-11.835680518387328 -8.5,-11.835680518387328 -9.0,-12.701705922171767" fill="#45B7D1" stroke="black" stroke-width="0.03" opacity="0.9"/>
<polygon points="-11.0,-9.237604307034012 -10.0,-9.237604307034012 -10.5,-10.103629710818451" fill="#45B7D1" stroke="black" stroke-width="0.03" opacity="0.9"/>
<polygon points="-9.5,-10.680979980008077 -8.5,-10.680979980008077 -9.0,-9.814954576223638" fill="#45B7D1" stroke="black" stroke-width="0.03" opacity="0.9"/>
<polygon points="-11.0,-8.08290376865476 -10.0,-8.08290376865476 -10.5,-7.216878364870322" fill="#45B7D1" stroke="black" stroke-width="0.03" opacity="0.9"/>
<polygon points="-8.0,-9.237604307034012 -7.0,-9.237604307034012 -7.5,-10.103629710818451" fill="#45B7D1" stroke="black" stroke-width="0.03" opacity="0.9"/>
<polygon points="-6.5,-10.680979980008077 -5.5,-10.680979980008077 -6.0,-9.814954576223638" fill="#45B7D1" stroke="black" stroke-width="0.03" opacity="0.9"/>
<polygon points="-8.0,-8.08290376865476 -7.0,-8.08290376865476 -7.5,-7.216878364870322" fill="#45B7D1" stroke="black" stroke-width="0.03" opacity="0.9"/>
<polygon points="-6.5,-6.639528095680696 -5.5,-6.639528095680696 -6.0,-7.505553499465135" fill="#45B7D1" stroke="black" stroke-width="0.03" opacity="0.9"/>
<polygon points="-9.5,-6.639528095680696 -8.5,-6.639528095680696 -9.0,-7.505553499465135" fill="#45B7D1" stroke="black" stroke-width="0.03" opacity="0.9"/>
<polygon points="-9.5,-5.484827557301445 -8.5,-5.484827557301445 -9.0,-4.618802153517006" fill="#45B7D1" stroke="black" stroke-width="0.03" opacity="0.9"/>
<polygon points="-11.0,-4.04145188432738 -10.0,-4.04145188432738 -10.5,-4.907477288111819" fill="#45B7D1" stroke="black" stroke-width="0.03" opacity="0.9"/>
<polygon points="-12.5,-6.639528095680696 -11.5,-6.639528095680696 -12.0,-7.505553499465135" fill="#45B7D1" stroke="black" stroke-width="0.03" opacity="0.9"/>
<polygon points="-12.5,-5.484827557301445 -11.5,-5.484827557301445 -12.0,-4.618802153517006" fill="#45B7D1" stroke="black" stroke-width="0.03" opacity="0.9"/>
<polygon points="-14.0,-8.08290376865476 -13.0,-8.08290376865476 -13.5,-7.216878364870322" fill="#45B7D1" stroke="black" stroke-width="0.03" opacity="0.9"/>
<polygon points="-14.0,-4.04145188432738 -13.0,-4.04145188432738 -13.5,-4.907477288111819" fill="#45B7D1" stroke="black" stroke-width="0.03" opacity="0.9"/>
<polygon points="-14.0,-2.886751345948129 -13.0,-2.886751345948129 -13.5,-2.0207259421636903" fill="#45B7D1" stroke="black" stroke-width="0.03" opacity="0.9"/>
<polygon points="-15.5,-5.484827557301445 -14.5,-5.484827557301445 -15.0,-4.618802153517006" fill="#45B7D1" stroke="black" stroke-width="0.03" opacity="0.9"/>
<polygon points="-17.0,-4.04145188432738 -16.0,-4.04145188432738 -16.5,-4.907477288111819" fill="#45B7D1" stroke="black" stroke-width="0.03" opacity="0.9"/>
<polygon points="11.5,3.7527767497325675 12.5,3.7527767497325675 12.0,2.8867513459481287" fill="#45B7D1" stroke="black" stroke-width="0.03" opacity="0.9"/>
<polygon points="13.0,2.309401076758503 14.0,2.309401076758503 13.5,3.1754264805429417" fill="#45B7D1" stroke="black" stroke-width="0.03" opacity="0.9"/>
<polygon points="13.0,1.1547005383792515 14.0,1.1547005383792515 13.5,0.28867513459481287" fill="#45B7D1" stroke="black" stroke-width="0.03" opacity="0.9"/>
<polygon points="10.0,1.1547005383792515 11.0,1.1547005383792515 10.5,0.28867513459481287" fill="#45B7D1" stroke="black" stroke-width="0.03" opacity="0.9"/>
<polygon points="11.5,-0.28867513459481287 12.5,-0.28867513459481287 12.0,0.5773502691896257" fill="#45B7D1" stroke="black" stroke-width="0.03" opacity="0.9"/>
<polygon points="8.5,-0.28867513459481287 9.5,-0.28867513459481287 9.0,0.5773502691896257" fill="#45B7D1" stroke="black" stroke-width="0.03" opacity="0.9"/>
<polygon points="11.5,-1.4433756729740643 12.5,-1.4433756729740643 12.0,-2.309401076758503" fill="#45B7D1" stroke="black" stroke-width="0.03" opacity="0.9"/>
<polygon points="13.0,-2.886751345948129 14.0,-2.886751345948129 13.5,-2.0207259421636903" fill="#45B7D1" stroke="black" stroke-width="0.03" opacity="0.9"/>
<polygon points="10.0,-2.886751345948129 11.0,-2.886751345948129 10.5,-2.0207259421636903" fill="#45B7D1" stroke="black" stroke-width="0.03" opacity="0.9"/>
<polygon points="10.0,-4.04145188432738 11.0,-4.04145188432738 10.5,-4.907477288111819" fill="#45B7D1" stroke="black" stroke-width="0.03" opacity="0.9"/>
<polygon points="-23.0,-4.04145188432738 -22.0,-4.04145188432738 -22.5,-4.907477288111819" fill="#FFA07A" stroke="black" stroke-width="0.03" opacity="0.9"/>
<polygon points="-23.0,-2.886751345948129 -22.0,-2.886751345948129 -22.5,-2.0207259421636903" fill="#FFA07A" stroke="black" stroke-width="0.03" opacity="0.9"/>
<polygon points="-21.5,-1.4433756729740643 -20.5,-1.4433756729740643 -21.0,-2.309401076758503" fill="#FFA07A" stroke="black" stroke-width="0.03" opacity="0.9"/>
<polygon points="-20.0,-4.04145188432738 -19.0,-4.04145188432738 -19.5,-4.907477288111819" fill="#FFA07A" stroke="black" stroke-width="0.03" opacity="0.9"/>
<polygon points="-20.0,-2.886751345948129 -19.0,-2.886751345948129 -19.5,-2.0207259421636903" fill="#FFA07A" stroke="black" stroke-width="0.03" opacity="0.9"/>
<polygon points="-18.5,-5.484827557301445 -17.5,-5.484827557301445 -18.0,-4.618802153517006" fill="#FFA07A" stroke="black" stroke-width="0.03" opacity="0.9"/>
<polygon points="-18.5,-1.4433756729740643 -17.5,-1.4433756729740643 -18.0,-2.309401076758503" fill="#FFA07A" stroke="black" stroke-width="0.03" opacity="0.9"/>
<polygon points="-18.5,-0.28867513459481287 -17.5,-0.28867513459481287 -18.0,0.5773502691896257" fill="#FFA07A" stroke="black" stroke-width="0.03" opacity="0.9"/>
<polygon points="-17.0,-2.886751345948129 -16.0,-2.886751345948129 -16.5,-2.0207259421636903" fill="#FFA07A" stroke="black" stroke-width="0.03" opacity="0.9"/>
<polygon points="-15.5,-1.4433756729740643 -14.5,-1.4433756729740643 -15.0,-2.309401076758503" fill="#FFA07A" stroke="black" stroke-width="0.03" opacity="0.9"/>
<polygon points="14.5,-1.4433756729740643 15.5,-1.4433756729740643 15.0,-2.309401076758503" fill="#FFA07A" stroke="black" stroke-width="0.03" opacity="0.9"/>
<polygon points="16.0,-2.886751345948129 17.0,-2.886751345948129 16.5,-2.0207259421636903" fill="#FFA07A" stroke="black" stroke-width="0.03" opacity="0.9"/>
<polygon points="16.0,-4.04145188432738 17.0,-4.04145188432738 16.5,-4.907477288111819" fill="#FFA07A" stroke="black" stroke-width="0.03" opacity="0.9"/>
<polygon points="13.0,-4.04145188432738 14.0,-4.04145188432738 13.5,-4.907477288111819" fill="#FFA07A" stroke="black" stroke-width="0.03" opacity="0.9"/>
<polygon points="14.5,-5.484827557301445 15.5,-5.484827557301445 15.0,-4.618802153517006" fill="#FFA07A" stroke="black" stroke-width="0.03" opacity="0.9"/>
<polygon points="11.5,-5.484827557301445 12.5,-5.484827557301445 12.0,-4.618802153517006" fill="#FFA07A" stroke="black" stroke-width="0.03" opacity="0.9"/>
<polygon points="14.5,-6.639528095680696 15.5,-6.639528095680696 15.0,-7.505553499465135" fill="#FFA07A" stroke="black" stroke-width="0.03" opacity="0.9"/>
<polygon points="16.0,-8.08290376865476 17.0,-8.08290376865476 16.5,-7.216878364870322" fill="#FFA07A" stroke="black" stroke-width="0.03" opacity="0.9"/>
<polygon points="13.0,-8.08290376865476 14.0,-8.08290376865476 13.5,-7.216878364870322" fill="#FFA07A" stroke="black" stroke-width="0.03" opacity="0.9"/>
<polygon points="13.0,-9.237604307034012 14.0,-9.237604307034012 13.5,-10.103629710818451" fill="#FFA07A" stroke="black" stroke-width="0.03" opacity="0.9"/>
<polygon points="16.0,6.3508529610858835 17.0,6.3508529610858835 16.5,5.484827557301445" fill="#FFA07A" stroke="black" stroke-width="0.03" opacity="0.9"/>
<polygon points="14.5,4.907477288111819 15.5,4.907477288111819 15.0,5.773502691896258" fill="#FFA07A" stroke="black" stroke-width="0.03" opacity="0.9"/>
<polygon points="14.5,3.7527767497325675 15.5,3.7527767497325675 15.0,2.8867513459481287" fill="#FFA07A" stroke="black" stroke-width="0.03" opacity="0.9"/>
<polygon points="17.5,3.7527767497325675 18.5,3.7527767497325675 18.0,2.8867513459481287" fill="#FFA07A" stroke="black" stroke-width="0.03" opacity="0.9"/>
<polygon points="16.0,2.309401076758503 17.0,2.309401076758503 16.5,3.1754264805429417" fill="#FFA07A" stroke="black" stroke-width="0.03" opacity="0.9"/>
<polygon points="19.0,2.309401076758503 20.0,2.309401076758503 19.5,3.1754264805429417" fill="#FFA07A" stroke="black" stroke-width="0.03" opacity="0.9"/>
<polygon points="16.0,1.1547005383792515 17.0,1.1547005383792515 16.5,0.28867513459481287" fill="#FFA07A" stroke="black" stroke-width="0.03" opacity="0.9"/>
<polygon points="14.5,-0.28867513459481287 15.5,-0.28867513459481287 15.0,0.5773502691896257" fill="#FFA07A" stroke="black" stroke-width="0.03" opacity="0.9"/>
<polygon points="17.5,-0.28867513459481287 18.5,-0.28867513459481287 18.0,0.5773502691896257" fill="#FFA07A" stroke="black" stroke-width="0.03" opacity="0.9"/>
<polygon points="17.5,-1.4433756729740643 18.5,-1.4433756729740643 18.0,-2.309401076758503" fill="#FFA07A" stroke="black" stroke-width="0.03" opacity="0.9"/>
<polygon points="16.0,17.8978583448784 17.0,17.8978583448784 16.5,18.76388374866284" fill="#FFA07A" stroke="black" stroke-width="0.03" opacity="0.9"/>
<polygon points="14.5,19.34123401785246 15.5,19.34123401785246 15.0,18.475208614068023" fill="#FFA07A" stroke="black" stroke-width="0.03" opacity="0.9"/>
<polygon points="13.0,17.8978583448784 14.0,17.8978583448784 13.5,18.76388374866284" fill="#FFA07A" stroke="black" stroke-width="0.03" opacity="0.9"/>
<polygon points="14.5,15.299782133525081 15.5,15.299782133525081 15.0,16.16580753730952" fill="#FFA07A" stroke="black" stroke-width="0.03" opacity="0.9"/>
<polygon points="13.0,16.743157806499145 14.0,16.743157806499145 13.5,15.877132402714707" fill="#FFA07A" stroke="black" stroke-width="0.03" opacity="0.9"/>
<polygon points="14.5,14.14508159514583 15.5,14.14508159514583 15.0,13.279056191361391" fill="#FFA07A" stroke="black" stroke-width="0.03" opacity="0.9"/>
<polygon points="11.5,15.299782133525081 12.5,15.299782133525081 12.0,16.16580753730952" fill="#FFA07A" stroke="black" stroke-width="0.03" opacity="0.9"/>
<polygon points="10.0,16.743157806499145 11.0,16.743157806499145 10.5,15.877132402714707" fill="#FFA07A" stroke="black" stroke-width="0.03" opacity="0.9"/>
<polygon points="11.5,14.14508159514583 12.5,14.14508159514583 12.0,13.279056191361391" fill="#FFA07A" stroke="black" stroke-width="0.03" opacity="0.9"/>
<polygon points="10.0,12.701705922171765 11.0,12.701705922171765 10.5,13.567731325956204" fill="#FFA07A" stroke="black" stroke-width="0.03" opacity="0.9"/>
<polygon points="-0.5,20.495934556231717 0.5,20.495934556231717 0.0,21.361959960016154" fill="#FFA07A" stroke="black" stroke-width="0.03" opacity="0.9"/>
<polygon points="-2.0,21.939310229205777 -1.0,21.939310229205777 -1.5,21.07328482542134" fill="#FFA07A" stroke="black" stroke-width="0.03" opacity="0.9"/>
<polygon points="-3.5,20.495934556231717 -2.5,20.495934556231717 -3.0,21.361959960016154" fill="#FFA07A" stroke="black" stroke-width="0.03" opacity="0.9"/>
<polygon points="-2.0,17.8978583448784 -1.0,17.8978583448784 -1.5,18.76388374866284" fill="#FFA07A" stroke="black" stroke-width="0.03" opacity="0.9"/>
<polygon points="-3.5,19.34123401785246 -2.5,19.34123401785246 -3.0,18.475208614068023" fill="#FFA07A" stroke="black" stroke-width="0.03" opacity="0.9"/>
<polygon points="-2.0,16.743157806499145 -1.0,16.743157806499145 -1.5,15.877132402714707" fill="#FFA07A" stroke="black" stroke-width="0.03" opacity="0.9"/>
<polygon points="-5.0,17.8978583448784 -4.0,17.8978583448784 -4.5,18.76388374866284" fill="#FFA07A" stroke="black" stroke-width="0.03" opacity="0.9"/>
<polygon points="-6.5,19.34123401785246 -5.5,19.34123401785246 -6.0,18.475208614068023" fill="#FFA07A" stroke="black" stroke-width="0.03" opacity="0.9"/>
<polygon points="-5.0,16.743157806499145 -4.0,16.743157806499145 -4.5,15.877132402714707" fill="#FFA07A" stroke="black" stroke-width="0.03" opacity="0.9"/>
<polygon points="-6.5,15.299782133525081 -5.5,15.299782133525081 -6.0,16.16580753730952" fill="#FFA07A" stroke="black" stroke-width="0.03" opacity="0.9"/>
<polygon points="22.0,6.3508529610858835 23.0,6.3508529610858835 22.5,5.484827557301445" fill="#FFA07A" stroke="black" stroke-width="0.03" opacity="0.9"/>
<polygon points="22.0,7.505553499465134 23.0,7.505553499465134 22.5,8.371578903249572" fill="#FFA07A" stroke="black" stroke-width="0.03" opacity="0.9"/>
<polygon points="20.5,8.948929172439199 21.5,8.948929172439199 21.0,8.08290376865476" fill="#FFA07A" stroke="black" stroke-width="0.03" opacity="0.9"/>
<polygon points="19.0,6.3508529610858835 20.0,6.3508529610858835 19.5,5.484827557301445" fill="#FFA07A" stroke="black" stroke-width="0.03" opacity="0.9"/>
<polygon points="19.0,7.505553499465134 20.0,7.505553499465134 19.5,8.371578903249572" fill="#FFA07A" stroke="black" stroke-width="0.03" opacity="0.9"/>
<polygon points="17.5,4.907477288111819 18.5,4.907477288111819 18.0,5.773502691896258" fill="#FFA07A" stroke="black" stroke-width="0.03" opacity="0.9"/>
<polygon points="17.5,8.948929172439199 18.5,8.948929172439199 18.0,8.08290376865476" fill="#FFA07A" stroke="black" stroke-width="0.03" opacity="0.9"/>
<polygon points="17.5,10.103629710818451 18.5,10.103629710818451 18.0,10.96965511460289" fill="#FFA07A" stroke="black" stroke-width="0.03" opacity="0.9"/>
<polygon points="16.0,7.505553499465134 17.0,7.505553499465134 16.5,8.371578903249572" fill="#FFA07A" stroke="black" stroke-width="0.03" opacity="0.9"/>
<polygon points="14.5,8.948929172439199 15.5,8.948929172439199 15.0,8.08290376865476" fill="#FFA07A" stroke="black" stroke-width="0.03" opacity="0.9"/>
<polygon points="-23.0,17.8978583448784 -22.0,17.8978583448784 -22.5,18.76388374866284" fill="#FFA07A" stroke="black" stroke-width="0.03" opacity="0.9"/>
<polygon points="-23.0,16.743157806499145 -22.0,16.743157806499145 -22.5,15.877132402714707" fill="#FFA07A" stroke="black" stroke-width="0.03" opacity="0.9"/>
<polygon points="-21.5,15.299782133525081 -20.5,15.299782133525081 -21.0,16.16580753730952" fill="#FFA07A" stroke="black" stroke-width="0.03" opacity="0.9"/>
<polygon points="-20.0,17.8978583448784 -19.0,17.8978583448784 -19.5,18.76388374866284" fill="#FFA07A" stroke="black" stroke-width="0.03" opacity="0.9"/>
<polygon points="-20.0,16.743157806499145 -19.0,16.743157806499145 -19.5,15.877132402714707" fill="#FFA07A" stroke="black" stroke-width="0.03" opacity="0.9"/>
<polygon points="-18.5,19.34123401785246 -17.5,19.34123401785246 -18.0,18.475208614068023" fill="#FFA07A" stroke="black" stroke-width="0.03" opacity="0.9"/>
<polygon points="-18.5,15.299782133525081 -17.5,15.299782133525081 -18.0,16.16580753730952" fill="#FFA07A" stroke="black" stroke-width="0.03" opacity="0.9"/>
<polygon points="-18.5,14.14508159514583 -17.5,14.14508159514583 -18.0,13.279056191361391" fill="#FFA07A" stroke="black" stroke-width="0.03" opacity="0.9"/>
<polygon points="-17.0,16.743157806499145 -16.0,16.743157806499145 -16.5,15.877132402714707" fill="#FFA07A" stroke="black" stroke-width="0.03" opacity="0.9"/>
<polygon points="-15.5,15.299782133525081 -14.5,15.299782133525081 -15.0,16.16580753730952" fill="#FFA07A" stroke="black" stroke-width="0.03" opacity="0.9"/>
<polygon points="-21.5,8.948929172439199 -20.5,8.948929172439199 -21.0,8.08290376865476" fill="#FFA07A" stroke="black" stroke-width="0.03" opacity="0.9"/>
<polygon points="-20.0,7.505553499465134 -19.0,7.505553499465134 -19.5,8.371578903249572" fill="#FFA07A" stroke="black" stroke-width="0.03" opacity="0.9"/>
<polygon points="-18.5,8.948929172439199 -17.5,8.948929172439199 -18.0,8.08290376865476" fill="#FFA07A" stroke="black" stroke-width="0.03" opacity="0.9"/>
<polygon points="-20.0,11.547005383792515 -19.0,11.547005383792515 -19.5,10.680979980008075" fill="#FFA07A" stroke="black" stroke-width="0.03" opacity="0.9"/>
<polygon points="-18.5,10.103629710818451 -17.5,10.103629710818451 -18.0,10.96965511460289" fill="#FFA07A" stroke="black" stroke-width="0.03" opacity="0.9"/>
<polygon points="-20.0,12.701705922171765 -19.0,12.701705922171765 -19.5,13.567731325956204" fill="#FFA07A" stroke="black" stroke-width="0.03" opacity="0.9"/>
<polygon points="-17.0,11.547005383792515 -16.0,11.547005383792515 -16.5,10.680979980008075" fill="#FFA07A" stroke="black" stroke-width="0.03" opacity="0.9"/>
<polygon points="-15.5,10.103629710818451 -14.5,10.103629710818451 -15.0,10.96965511460289" fill="#FFA07A" stroke="black" stroke-width="0.03" opacity="0.9"/>
<polygon points="-17.0,12.701705922171765 -16.0,12.701705922171765 -16.5,13.567731325956204" fill="#FFA07A" stroke="black" stroke-width="0.03" opacity="0.9"/>
<polygon points="-15.5,14.14508159514583 -14.5,14.14508159514583 -15.0,13.279056191361391" fill="#FFA07A" stroke="black" stroke-width="0.03" opacity="0.9"/>
<polygon points="-9.5,24.537386440559093 -8.5,24.537386440559093 -9.0,23.671361036774655" fill="#FFA07A" stroke="black" stroke-width="0.03" opacity="0.9"/>
<polygon points="-11.0,23.09401076758503 -10.0,23.09401076758503 -10.5,23.960036171369467" fill="#FFA07A" stroke="black" stroke-width="0.03" opacity="0.9"/>
<polygon points="-11.0,21.939310229205777 -10.0,21.939310229205777 -10.5,21.07328482542134" fill="#FFA07A" stroke="black" stroke-width="0.03" opacity="0.9"/>
<polygon points="-8.0,21.939310229205777 -7.0,21.939310229205777 -7.5,21.07328482542134" fill="#FFA07A" stroke="black" stroke-width="0.03" opacity="0.9"/>
<polygon points="-9.5,20.495934556231717 -8.5,20.495934556231717 -9.0,21.361959960016154" fill="#FFA07A" stroke="black" stroke-width="0.03" opacity="0.9"/>
<polygon points="-6.5,20.495934556231717 -5.5,20.495934556231717 -6.0,21.361959960016154" fill="#FFA07A" stroke="black" stroke-width="0.03" opacity="0.9"/>
<polygon points="-9.5,19.34123401785246 -8.5,19.34123401785246 -9.0,18.475208614068023" fill="#FFA07A" stroke="black" stroke-width="0.03" opacity="0.9"/>
<polygon points="-11.0,17.8978583448784 -10.0,17.8978583448784 -10.5,18.76388374866284" fill="#FFA07A" stroke="black" stroke-width="0.03" opacity="0.9"/>
<polygon points="-8.0,17.8978583448784 -7.0,17.8978583448784 -7.5,18.76388374866284" fill="#FFA07A" stroke="black" stroke-width="0.03" opacity="0.9"/>
<polygon points="-8.0,16.743157806499145 -7.0,16.743157806499145 -7.5,15.877132402714707" fill="#FFA07A" stroke="black" stroke-width="0.03" opacity="0.9"/>
<polygon points="-11.0,16.743157806499145 -10.0,16.743157806499145 -10.5,15.877132402714707" fill="#FFA07A" stroke="black" stroke-width="0.03" opacity="0.9"/>
<polygon points="-12.5,15.299782133525081 -11.5,15.299782133525081 -12.0,16.16580753730952" fill="#FFA07A" stroke="black" stroke-width="0.03" opacity="0.9"/>
<polygon points="-14.0,16.743157806499145 -13.0,16.743157806499145 -13.5,15.877132402714707" fill="#FFA07A" stroke="black" stroke-width="0.03" opacity="0.9"/>
<polygon points="-12.5,19.34123401785246 -11.5,19.34123401785246 -12.0,18.475208614068023" fill="#FFA07A" stroke="black" stroke-width="0.03" opacity="0.9"/>
<polygon points="-14.0,17.8978583448784 -13.0,17.8978583448784 -13.5,18.76388374866284" fill="#FFA07A" stroke="black" stroke-width="0.03" opacity="0.9"/>
<polygon points="-12.5,20.495934556231717 -11.5,20.495934556231717 -12.0,21.361959960016154" fill="#FFA07A" stroke="black" stroke-width="0.03" opacity="0.9"/>
<polygon points="-15.5,19.34123401785246 -14.5,19.34123401785246 -15.0,18.475208614068023" fill="#FFA07A" stroke="black" stroke-width="0.03" opacity="0.9"/>
<polygon points="-17.0,17.8978583448784 -16.0,17.8978583448784 -16.5,18.76388374866284" fill="#FFA07A" stroke="black" stroke-width="0.03" opacity="0.9"/>
<polygon points="-15.5,20.495934556231717 -14.5,20.495934556231717 -15.0,21.361959960016154" fill="#FFA07A" stroke="black" stroke-width="0.03" opacity="0.9"/>
<polygon points="-17.0,21.939310229205777 -16.0,21.939310229205777 -16.5,21.07328482542134" fill="#FFA07A" stroke="black" stroke-width="0.03" opacity="0.9"/>
<polygon points="-15.5,-6.639528095680696 -14.5,-6.639528095680696 -15.0,-7.505553499465135" fill="#FFA07A" stroke="black" stroke-width="0.03" opacity="0.9"/>
<polygon points="-17.0,-8.08290376865476 -16.0,-8.08290376865476 -16.5,-7.216878364870322" fill="#FFA07A" stroke="black" stroke-width="0.03" opacity="0.9"/>
<polygon points="-17.0,-9.237604307034012 -16.0,-9.237604307034012 -16.5,-10.103629710818451" fill="#FFA07A" stroke="black" stroke-width="0.03" opacity="0.9"/>
<polygon points="-14.0,-9.237604307034012 -13.0,-9.237604307034012 -13.5,-10.103629710818451" fill="#FFA07A" stroke="black" stroke-width="0.03" opacity="0.9"/>
<polygon points="-15.5,-10.680979980008077 -14.5,-10.680979980008077 -15.0,-9.814954576223638" fill="#FFA07A" stroke="black" stroke-width="0.03" opacity="0.9"/>
<polygon points="-12.5,-10.680979980008077 -11.5,-10.680979980008077 -12.0,-9.814954576223638" fill="#FFA07A" stroke="black" stroke-width="0.03" opacity="0.9"/>
<polygon points="-15.5,-11.835680518387328 -14.5,-11.835680518387328 -15.0,-12.701705922171767" fill="#FFA07A" stroke="black" stroke-width="0.03" opacity="0.9"/>
<polygon points="-17.0,-13.279056191361391 -16.0,-13.279056191361391 -16.5,-12.413030787576952" fill="#FFA07A" stroke="black" stroke-width="0.03" opacity="0.9"/>
<polygon points="-14.0,-13.279056191361391 -13.0,-13.279056191361391 -13.5,-12.413030787576952" fill="#FFA07A" stroke="black" stroke-width="0.03" opacity="0.9"/>
<polygon points="-14.0,-14.433756729740644 -13.0,-14.433756729740644 -13.5,-15.299782133525083" fill="#FFA07A" stroke="black" stroke-width="0.03" opacity="0.9"/>
<polygon points="14.5,-11.835680518387328 15.5,-11.835680518387328 15.0,-12.701705922171767" fill="#FFA07A" stroke="black" stroke-width="0.03" opacity="0.9"/>
<polygon points="14.5,-10.680979980008077 15.5,-10.680979980008077 15.0,-9.814954576223638" fill="#FFA07A" stroke="black" stroke-width="0.03" opacity="0.9"/>
<polygon points="16.0,-9.237604307034012 17.0,-9.237604307034012 16.5,-10.103629710818451" fill="#FFA07A" stroke="black" stroke-width="0.03" opacity="0.9"/>
<polygon points="17.5,-11.835680518387328 18.5,-11.835680518387328 18.0,-12.701705922171767" fill="#FFA07A" stroke="black" stroke-width="0.03" opacity="0.9"/>
<polygon points="17.5,-10.680979980008077 18.5,-10.680979980008077 18.0,-9.814954576223638" fill="#FFA07A" stroke="black" stroke-width="0.03" opacity="0.9"/>
<polygon points="19.0,-13.279056191361391 20.0,-13.279056191361391 19.5,-12.413030787576952" fill="#FFA07A" stroke="black" stroke-width="0.03" opacity="0.9"/>
<polygon points="19.0,-9.237604307034012 20.0,-9.237604307034012 19.5,-10.103629710818451" fill="#FFA07A" stroke="black" stroke-width="0.03" opacity="0.9"/>
<polygon points="19.0,-8.08290376865476 20.0,-8.08290376865476 19.5,-7.216878364870322" fill="#FFA07A" stroke="black" stroke-width="0.03" opacity="0.9"/>
<polygon points="20.5,-10.680979980008077 21.5,-10.680979980008077 21.0,-9.814954576223638" fill="#FFA07A" stroke="black" stroke-width="0.03" opacity="0.9"/>
<polygon points="22.0,-9.237604307034012 23.0,-9.237604307034012 22.5,-10.103629710818451" fill="#FFA07A" stroke="black" stroke-width="0.03" opacity="0.9"/>
<polygon points="-20.0,-13.279056191361391 -19.0,-13.279056191361391 -19.5,-12.413030787576952" fill="#FFA07A" stroke="black" stroke-width="0.03" opacity="0.9"/>
<polygon points="-18.5,-11.835680518387328 -17.5,-11.835680518387328 -18.0,-12.701705922171767" fill="#FFA07A" stroke="black" stroke-width="0.03" opacity="0.9"/>
<polygon points="-18.5,-10.680979980008077 -17.5,-10.680979980008077 -18.0,-9.814954576223638" fill="#FFA07A" stroke="black" stroke-width="0.03" opacity="0.9"/>
<polygon points="-21.5,-10.680979980008077 -20.5,-10.680979980008077 -21.0,-9.814954576223638" fill="#FFA07A" stroke="black" stroke-width="0.03" opacity="0.9"/>
<polygon points="-20.0,-9.237604307034012 -19.0,-9.237604307034012 -19.5,-10.103629710818451" fill="#FFA07A" stroke="black" stroke-width="0.03" opacity="0.9"/>
<polygon points="-23.0,-9.237604307034012 -22.0,-9.237604307034012 -22.5,-10.103629710818451" fill="#FFA07A" stroke="black" stroke-width="0.03" opacity="0.9"/>
<polygon points="-20.0,-8.08290376865476 -19.0,-8.08290376865476 -19.5,-7.216878364870322" fill="#FFA07A" stroke="black" stroke-width="0.03" opacity="0.9"/>
<polygon points="-18.5,-6.639528095680696 -17.5,-6.639528095680696 -18.0,-7.505553499465135" fill="#FFA07A" stroke="black" stroke-width="0.03" opacity="0.9"/>
<polygon points="-21.5,-6.639528095680696 -20.5,-6.639528095680696 -21.0,-7.505553499465135" fill="#FFA07A" stroke="black" stroke-width="0.03" opacity="0.9"/>
<polygon points="-21.5,-5.484827557301445 -20.5,-5.484827557301445 -21.0,-4.618802153517006" fill="#FFA07A" stroke="black" stroke-width="0.03" opacity="0.9"/>
<polygon points="-8.0,-18.475208614068023 -7.0,-18.475208614068023 -7.5,-17.609183210283586" fill="#FFA07A" stroke="black" stroke-width="0.03" opacity="0.9"/>
<polygon points="-8.0,-19.629909152447276 -7.0,-19.629909152447276 -7.5,-20.495934556231713" fill="#FFA07A" stroke="black" stroke-width="0.03" opacity="0.9"/>
<polygon points="-6.5,-21.07328482542134 -5.5,-21.07328482542134 -6.0,-20.207259421636902" fill="#FFA07A" stroke="black" stroke-width="0.03" opacity="0.9"/>
<polygon points="-5.0,-18.475208614068023 -4.0,-18.475208614068023 -4.5,-17.609183210283586" fill="#FFA07A" stroke="black" stroke-width="0.03" opacity="0.9"/>
<polygon points="-5.0,-19.629909152447276 -4.0,-19.629909152447276 -4.5,-20.495934556231713" fill="#FFA07A" stroke="black" stroke-width="0.03" opacity="0.9"/>
<polygon points="-3.5,-17.03183294109396 -2.5,-17.03183294109396 -3.0,-17.897858344878397" fill="#FFA07A" stroke="black" stroke-width="0.03" opacity="0.9"/>
<polygon points="-3.5,-21.07328482542134 -2.5,-21.07328482542134 -3.0,-20.207259421636902" fill="#FFA07A" stroke="black" stroke-width="0.03" opacity="0.9"/>
<polygon points="-3.5,-22.22798536380059 -2.5,-22.22798536380059 -3.0,-23.09401076758503" fill="#FFA07A" stroke="black" stroke-width="0.03" opacity="0.9"/>
<polygon points="-2.0,-19.629909152447276 -1.0,-19.629909152447276 -1.5,-20.495934556231713" fill="#FFA07A" stroke="black" stroke-width="0.03" opacity="0.9"/>
<polygon points="-0.5,-21.07328482542134 0.5,-21.07328482542134 0.0,-20.207259421636902" fill="#FFA07A" stroke="black" stroke-width="0.03" opacity="0.9"/>
<polygon points="1.0,-19.629909152447276 2.0,-19.629909152447276 1.5,-20.495934556231713" fill="#FFA07A" stroke="black" stroke-width="0.03" opacity="0.9"/>
<polygon points="2.5,-21.07328482542134 3.5,-21.07328482542134 3.0,-20.207259421636902" fill="#FFA07A" stroke="black" stroke-width="0.03" opacity="0.9"/>
<polygon points="2.5,-22.22798536380059 3.5,-22.22798536380059 3.0,-23.09401076758503" fill="#FFA07A" stroke="black" stroke-width="0.03" opacity="0.9"/>
<polygon points="-0.5,-22.22798536380059 0.5,-22.22798536380059 0.0,-23.09401076758503" fill="#FFA07A" stroke="black" stroke-width="0.03" opacity="0.9"/>
<polygon points="1.0,-23.671361036774652 2.0,-23.671361036774652 1.5,-22.805335632990214" fill="#FFA07A" stroke="black" stroke-width="0.03" opacity="0.9"/>
<polygon points="-2.0,-23.671361036774652 -1.0,-23.671361036774652 -1.5,-22.805335632990214" fill="#FFA07A" stroke="black" stroke-width="0.03" opacity="0.9"/>
<polygon points="1.0,-24.826061575153908 2.0,-24.826061575153908 1.5,-25.692086978938345" fill="#FFA07A" stroke="black" stroke-width="0.03" opacity="0.9"/>
<polygon points="2.5,-26.269437248127968 3.5,-26.269437248127968 3.0,-25.40341184434353" fill="#FFA07A" stroke="black" stroke-width="0.03" opacity="0.9"/>
<polygon points="-0.5,-26.269437248127968 0.5,-26.269437248127968 0.0,-25.40341184434353" fill="#FFA07A" stroke="black" stroke-width="0.03" opacity="0.9"/>
<polygon points="-0.5,-27.424137786507224 0.5,-27.424137786507224 0.0,-28.29016319029166" fill="#FFA07A" stroke="black" stroke-width="0.03" opacity="0.9"/>
<polygon points="-11.0,-28.867513459481284 -10.0,-28.867513459481284 -10.5,-28.001488055696846" fill="#FFA07A" stroke="black" stroke-width="0.03" opacity="0.9"/>
<polygon points="-12.5,-27.424137786507224 -11.5,-27.424137786507224 -12.0,-28.29016319029166" fill="#FFA07A" stroke="black" stroke-width="0.03" opacity="0.9"/>
<polygon points="-12.5,-26.269437248127968 -11.5,-26.269437248127968 -12.0,-25.40341184434353" fill="#FFA07A" stroke="black" stroke-width="0.03" opacity="0.9"/>
<polygon points="-9.5,-26.269437248127968 -8.5,-26.269437248127968 -9.0,-25.40341184434353" fill="#FFA07A" stroke="black" stroke-width="0.03" opacity="0.9"/>
<polygon points="-11.0,-24.826061575153908 -10.0,-24.826061575153908 -10.5,-25.692086978938345" fill="#FFA07A" stroke="black" stroke-width="0.03" opacity="0.9"/>
<polygon points="-8.0,-24.826061575153908 -7.0,-24.826061575153908 -7.5,-25.692086978938345" fill="#FFA07A" stroke="black" stroke-width="0.03" opacity="0.9"/>
<polygon points="-11.0,-23.671361036774652 -10.0,-23.671361036774652 -10.5,-22.805335632990214" fill="#FFA07A" stroke="black" stroke-width="0.03" opacity="0.9"/>
<polygon points="-12.5,-22.22798536380059 -11.5,-22.22798536380059 -12.0,-23.09401076758503" fill="#FFA07A" stroke="black" stroke-width="0.03" opacity="0.9"/>
<polygon points="-9.5,-22.22798536380059 -8.5,-22.22798536380059 -9.0,-23.09401076758503" fill="#FFA07A" stroke="black" stroke-width="0.03" opacity="0.9"/>
<polygon points="-9.5,-21.07328482542134 -8.5,-21.07328482542134 -9.0,-20.207259421636902" fill="#FFA07A" stroke="black" stroke-width="0.03" opacity="0.9"/>
<polygon points="-14.0,-23.671361036774652 -13.0,-23.671361036774652 -13.5,-22.805335632990214" fill="#FFA07A" stroke="black" stroke-width="0.03" opacity="0.9"/>
<polygon points="-15.5,-22.22798536380059 -14.5,-22.22798536380059 -15.0,-23.09401076758503" fill="#FFA07A" stroke="black" stroke-width="0.03" opacity="0.9"/>
<polygon points="-15.5,-21.07328482542134 -14.5,-21.07328482542134 -15.0,-20.207259421636902" fill="#FFA07A" stroke="black" stroke-width="0.03" opacity="0.9"/>
<polygon points="-12.5,-21.07328482542134 -11.5,-21.07328482542134 -12.0,-20.207259421636902" fill="#FFA07A" stroke="black" stroke-width="0.03" opacity="0.9"/>
<polygon points="-14.0,-19.629909152447276 -13.0,-19.629909152447276 -13.5,-20.495934556231713" fill="#FFA07A" stroke="black" stroke-width="0.03" opacity="0.9"/>
<polygon points="-11.0,-19.629909152447276 -10.0,-19.629909152447276 -10.5,-20.495934556231713" fill="#FFA07A" stroke="black" stroke-width="0.03" opacity="0.9"/>
<polygon points="-14.0,-18.475208614068023 -13.0,-18.475208614068023 -13.5,-17.609183210283586" fill="#FFA07A" stroke="black" stroke-width="0.03" opacity="0.9"/>
<polygon points="-15.5,-17.03183294109396 -14.5,-17.03183294109396 -15.0,-17.897858344878397" fill="#FFA07A" stroke="black" stroke-width="0.03" opacity="0.9"/>
<polygon points="-12.5,-17.03183294109396 -11.5,-17.03183294109396 -12.0,-17.897858344878397" fill="#FFA07A" stroke="black" stroke-width="0.03" opacity="0.9"/>
<polygon points="-12.5,-15.877132402714707 -11.5,-15.877132402714707 -12.0,-15.011106998930268" fill="#FFA07A" stroke="black" stroke-width="0.03" opacity="0.9"/>
</g>
</svg>