<svg width="1080" height="1236" xmlns="http://www.w3.org/2000/svg">
<rect width="100%" height="100%" fill="white"/>
<g transform="translate(540.0, 661.5767664977294) scale(20, 20)">
<polygon points="-0.5,-5.484827557301445 0.5,-5.484827557301445 0.0,-4.618802153517006" fill="#FF6B6B" stroke="black" stroke-width="0.05" opacity="0.8"/>
<polygon points="-2.0,-4.618802153517006 -1.0,-4.618802153517006 -1.5,-3.752776749732567" fill="#FF6B6B" stroke="black" stroke-width="0.05" opacity="0.8"/>
<polygon points="-2.0,-2.886751345948129 -1.0,-2.886751345948129 -1.5,-2.0207259421636903" fill="#FF6B6B" stroke="black" stroke-width="0.05" opacity="0.8"/>
<polygon points="1.0,-2.886751345948129 2.0,-2.886751345948129 1.5,-2.0207259421636903" fill="#FF6B6B" stroke="black" stroke-width="0.05" opacity="0.8"/>
<polygon points="-0.5,-2.02072594216369 0.5,-2.02072594216369 0.0,-1.1547005383792515" fill="#FF6B6B" stroke="black" stroke-width="0.05" opacity="0.8"/>
<polygon points="2.5,-2.02072594216369 3.5,-2.02072594216369 3.0,-1.1547005383792515" fill="#FF6B6B" stroke="black" stroke-width="0.05" opacity="0.8"/>
<polygon points="-0.5,-0.28867513459481287 0.5,-0.28867513459481287 0.0,0.5773502691896257" fill="#FF6B6B" stroke="black" stroke-width="0.05" opacity="0.8"/>
<polygon points="-2.0,0.5773502691896257 -1.0,0.5773502691896257 -1.5,1.4433756729740643" fill="#FF6B6B" stroke="black" stroke-width="0.05" opacity="0.8"/>
<polygon points="1.0,0.5773502691896257 2.0,0.5773502691896257 1.5,1.4433756729740643" fill="#FF6B6B" stroke="black" stroke-width="0.05" opacity="0.8"/>
<polygon points="1.0,2.309401076758503 2.0,2.309401076758503 1.5,3.1754264805429417" fill="#FF6B6B" stroke="black" stroke-width="0.05" opacity="0.8"/>
<polygon points="-6.5,8.371578903249572 -5.5,8.371578903249572 -6.0,9.237604307034012" fill="#4ECDC4" stroke="black" stroke-width="0.05" opacity="0.8"/>
<polygon points="-8.0,7.505553499465134 -7.0,7.505553499465134 -7.5,8.371578903249572" fill="#4ECDC4" stroke="black" stroke-width="0.05" opacity="0.8"/>
<polygon points="-8.0,5.773502691896257 -7.0,5.773502691896257 -7.5,6.639528095680696" fill="#4ECDC4" stroke="black" stroke-width="0.05" opacity="0.8"/>
<polygon points="-5.0,5.773502691896257 -4.0,5.773502691896257 -4.5,6.639528095680696" fill="#4ECDC4" stroke="black" stroke-width="0.05" opacity="0.8"/>
<polygon points="-6.5,4.907477288111819 -5.5,4.907477288111819 -6.0,5.773502691896258" fill="#4ECDC4" stroke="black" stroke-width="0.05" opacity="0.8"/>
<polygon points="-3.5,4.907477288111819 -2.5,4.907477288111819 -3.0,5.773502691896258" fill="#4ECDC4" stroke="black" stroke-width="0.05" opacity="0.8"/>
<polygon points="-6.5,3.1754264805429413 -5.5,3.1754264805429413 -6.0,4.04145188432738" fill="#4ECDC4" stroke="black" stroke-width="0.05" opacity="0.8"/>
<polygon points="-8.0,2.309401076758503 -7.0,2.309401076758503 -7.5,3.1754264805429417" fill="#4ECDC4" stroke="black" stroke-width="0.05" opacity="0.8"/>
<polygon points="-5.0,2.309401076758503 -4.0,2.309401076758503 -4.5,3.1754264805429417" fill="#4ECDC4" stroke="black" stroke-width="0.05" opacity="0.8"/>
<polygon points="-5.0,0.5773502691896257 -4.0,0.5773502691896257 -4.5,1.4433756729740643" fill="#4ECDC4" stroke="black" stroke-width="0.05" opacity="0.8"/>
<polygon points="-3.5,-0.28867513459481287 -2.5,-0.28867513459481287 -3.0,0.5773502691896257" fill="#4ECDC4" stroke="black" stroke-width="0.05" opacity="0.8"/>
<polygon points="-3.5,-2.02072594216369 -2.5,-2.02072594216369 -3.0,-1.1547005383792515" fill="#4ECDC4" stroke="black" stroke-width="0.05" opacity="0.8"/>
<polygon points="-5.0,-2.886751345948129 -4.0,-2.886751345948129 -4.5,-2.0207259421636903" fill="#4ECDC4" stroke="black" stroke-width="0.05" opacity="0.8"/>
<polygon points="-6.5,-0.28867513459481287 -5.5,-0.28867513459481287 -6.0,0.5773502691896257" fill="#4ECDC4" stroke="black" stroke-width="0.05" opacity="0.8"/>
<polygon points="-6.5,-2.02072594216369 -5.5,-2.02072594216369 -6.0,-1.1547005383792515" fill="#4ECDC4" stroke="black" stroke-width="0.05" opacity="0.8"/>
<polygon points="-8.0,0.5773502691896257 -7.0,0.5773502691896257 -7.5,1.4433756729740643" fill="#4ECDC4" stroke="black" stroke-width="0.05" opacity="0.8"/>
<polygon points="-8.0,-2.886751345948129 -7.0,-2.886751345948129 -7.5,-2.0207259421636903" fill="#4ECDC4" stroke="black" stroke-width="0.05" opacity="0.8"/>
<polygon points="-8.0,-4.618802153517006 -7.0,-4.618802153517006 -7.5,-3.752776749732567" fill="#4ECDC4" stroke="black" stroke-width="0.05" opacity="0.8"/>
<polygon points="-9.5,-2.02072594216369 -8.5,-2.02072594216369 -9.0,-1.1547005383792515" fill="#4ECDC4" stroke="black" stroke-width="0.05" opacity="0.8"/>
<polygon points="-11.0,-2.886751345948129 -10.0,-2.886751345948129 -10.5,-2.0207259421636903" fill="#4ECDC4" stroke="black" stroke-width="0.05" opacity="0.8"/>
<polygon points="-6.5,-5.484827557301445 -5.5,-5.484827557301445 -6.0,-4.618802153517006" fill="#4ECDC4" stroke="black" stroke-width="0.05" opacity="0.8"/>
<polygon points="-5.0,-4.618802153517006 -4.0,-4.618802153517006 -4.5,-3.752776749732567" fill="#4ECDC4" stroke="black" stroke-width="0.05" opacity="0.8"/>
<polygon points="-3.5,-5.484827557301445 -2.5,-5.484827557301445 -3.0,-4.618802153517006" fill="#4ECDC4" stroke="black" stroke-width="0.05" opacity="0.8"/>
<polygon points="-5.0,-8.08290376865476 -4.0,-8.08290376865476 -4.5,-7.216878364870322" fill="#4ECDC4" stroke="black" stroke-width="0.05" opacity="0.8"/>
<polygon points="-3.5,-7.216878364870322 -2.5,-7.216878364870322 -3.0,-6.350852961085883" fill="#4ECDC4" stroke="black" stroke-width="0.05" opacity="0.8"/>
<polygon points="-5.0,-9.814954576223638 -4.0,-9.814954576223638 -4.5,-8.948929172439199" fill="#4ECDC4" stroke="black" stroke-width="0.05" opacity="0.8"/>
<polygon points="-2.0,-8.08290376865476 -1.0,-8.08290376865476 -1.5,-7.216878364870322" fill="#4ECDC4" stroke="black" stroke-width="0.05" opacity="0.8"/>
<polygon points="-0.5,-7.216878364870322 0.5,-7.216878364870322 0.0,-6.350852961085883" fill="#4ECDC4" stroke="black" stroke-width="0.05" opacity="0.8"/>
<polygon points="-2.0,-9.814954576223638 -1.0,-9.814954576223638 -1.5,-8.948929172439199" fill="#4ECDC4" stroke="black" stroke-width="0.05" opacity="0.8"/>
<polygon points="-0.5,-10.680979980008077 0.5,-10.680979980008077 0.0,-9.814954576223638" fill="#4ECDC4" stroke="black" stroke-width="0.05" opacity="0.8"/>
<polygon points="2.5,-10.680979980008077 3.5,-10.680979980008077 3.0,-9.814954576223638" fill="#4ECDC4" stroke="black" stroke-width="0.05" opacity="0.8"/>
<polygon points="1.0,-9.814954576223638 2.0,-9.814954576223638 1.5,-8.948929172439199" fill="#4ECDC4" stroke="black" stroke-width="0.05" opacity="0.8"/>
<polygon points="1.0,-8.08290376865476 2.0,-8.08290376865476 1.5,-7.216878364870322" fill="#4ECDC4" stroke="black" stroke-width="0.05" opacity="0.8"/>
<polygon points="4.0,-8.08290376865476 5.0,-8.08290376865476 4.5,-7.216878364870322" fill="#4ECDC4" stroke="black" stroke-width="0.05" opacity="0.8"/>
<polygon points="2.5,-7.216878364870322 3.5,-7.216878364870322 3.0,-6.350852961085883" fill="#4ECDC4" stroke="black" stroke-width="0.05" opacity="0.8"/>
<polygon points="5.5,-7.216878364870322 6.5,-7.216878364870322 6.0,-6.350852961085883" fill="#4ECDC4" stroke="black" stroke-width="0.05" opacity="0.8"/>
<polygon points="2.5,-5.484827557301445 3.5,-5.484827557301445 3.0,-4.618802153517006" fill="#4ECDC4" stroke="black" stroke-width="0.05" opacity="0.8"/>
<polygon points="1.0,-4.618802153517006 2.0,-4.618802153517006 1.5,-3.752776749732567" fill="#4ECDC4" stroke="black" stroke-width="0.05" opacity="0.8"/>
<polygon points="4.0,-4.618802153517006 5.0,-4.618802153517006 4.5,-3.752776749732567" fill="#4ECDC4" stroke="black" stroke-width="0.05" opacity="0.8"/>
<polygon points="4.0,-2.886751345948129 5.0,-2.886751345948129 4.5,-2.0207259421636903" fill="#4ECDC4" stroke="black" stroke-width="0.05" opacity="0.8"/>
<polygon points="-3.5,3.1754264805429413 -2.5,3.1754264805429413 -3.0,4.04145188432738" fill="#4ECDC4" stroke="black" stroke-width="0.05" opacity="0.8"/>
<polygon points="-2.0,2.309401076758503 -1.0,2.309401076758503 -1.5,3.1754264805429417" fill="#4ECDC4" stroke="black" stroke-width="0.05" opacity="0.8"/>
<polygon points="-0.5,3.1754264805429413 0.5,3.1754264805429413 0.0,4.04145188432738" fill="#4ECDC4" stroke="black" stroke-width="0.05" opacity="0.8"/>
<polygon points="-2.0,5.773502691896257 -1.0,5.773502691896257 -1.5,6.639528095680696" fill="#4ECDC4" stroke="black" stroke-width="0.05" opacity="0.8"/>
<polygon points="-0.5,4.907477288111819 0.5,4.907477288111819 0.0,5.773502691896258" fill="#4ECDC4" stroke="black" stroke-width="0.05" opacity="0.8"/>
<polygon points="-2.0,7.505553499465134 -1.0,7.505553499465134 -1.5,8.371578903249572" fill="#4ECDC4" stroke="black" stroke-width="0.05" opacity="0.8"/>
<polygon points="1.0,5.773502691896257 2.0,5.773502691896257 1.5,6.639528095680696" fill="#4ECDC4" stroke="black" stroke-width="0.05" opacity="0.8"/>
<polygon points="2.5,4.907477288111819 3.5,4.907477288111819 3.0,5.773502691896258" fill="#4ECDC4" stroke="black" stroke-width="0.05" opacity="0.8"/>
<polygon points="1.0,7.505553499465134 2.0,7.505553499465134 1.5,8.371578903249572" fill="#4ECDC4" stroke="black" stroke-width="0.05" opacity="0.8"/>
<polygon points="2.5,8.371578903249572 3.5,8.371578903249572 3.0,9.237604307034012" fill="#4ECDC4" stroke="black" stroke-width="0.05" opacity="0.8"/>
<polygon points="8.5,-2.02072594216369 9.5,-2.02072594216369 9.0,-1.1547005383792515" fill="#4ECDC4" stroke="black" stroke-width="0.05" opacity="0.8"/>
<polygon points="7.0,-2.886751345948129 8.0,-2.886751345948129 7.5,-2.0207259421636903" fill="#4ECDC4" stroke="black" stroke-width="0.05" opacity="0.8"/>
<polygon points="5.5,-2.02072594216369 6.5,-2.02072594216369 6.0,-1.1547005383792515" fill="#4ECDC4" stroke="black" stroke-width="0.05" opacity="0.8"/>
<polygon points="7.0,0.5773502691896257 8.0,0.5773502691896257 7.5,1.4433756729740643" fill="#4ECDC4" stroke="black" stroke-width="0.05" opacity="0.8"/>
<polygon points="5.5,-0.28867513459481287 6.5,-0.28867513459481287 6.0,0.5773502691896257" fill="#4ECDC4" stroke="black" stroke-width="0.05" opacity="0.8"/>
<polygon points="7.0,2.309401076758503 8.0,2.309401076758503 7.5,3.1754264805429417" fill="#4ECDC4" stroke="black" stroke-width="0.05" opacity="0.8"/>
<polygon points="4.0,0.5773502691896257 5.0,0.5773502691896257 4.5,1.4433756729740643" fill="#4ECDC4" stroke="black" stroke-width="0.05" opacity="0.8"/>
<polygon points="2.5,-0.28867513459481287 3.5,-0.28867513459481287 3.0,0.5773502691896257" fill="#4ECDC4" stroke="black" stroke-width="0.05" opacity="0.8"/>
<polygon points="4.0,2.309401076758503 5.0,2.309401076758503 4.5,3.1754264805429417" fill="#4ECDC4" stroke="black" stroke-width="0.05" opacity="0.8"/>
<polygon points="2.5,3.1754264805429413 3.5,3.1754264805429413 3.0,4.04145188432738" fill="#4ECDC4" stroke="black" stroke-width="0.05" opacity="0.8"/>
<polygon points="8.5,8.371578903249572 9.5,8.371578903249572 9.0,9.237604307034012" fill="#FFA07A" stroke="black" stroke-width="0.05" opacity="0.8"/>
<polygon points="8.5,10.103629710818451 9.5,10.103629710818451 9.0,10.96965511460289" fill="#FFA07A" stroke="black" stroke-width="0.05" opacity="0.8"/>
<polygon points="10.0,10.969655114602888 11.0,10.969655114602888 10.5,11.835680518387328" fill="#FFA07A" stroke="black" stroke-width="0.05" opacity="0.8"/>
<polygon points="11.5,8.371578903249572 12.5,8.371578903249572 12.0,9.237604307034012" fill="#FFA07A" stroke="black" stroke-width="0.05" opacity="0.8"/>
<polygon points="11.5,10.103629710818451 12.5,10.103629710818451 12.0,10.96965511460289" fill="#FFA07A" stroke="black" stroke-width="0.05" opacity="0.8"/>
<polygon points="13.0,7.505553499465134 14.0,7.505553499465134 13.5,8.371578903249572" fill="#FFA07A" stroke="black" stroke-width="0.05" opacity="0.8"/>
<polygon points="13.0,10.969655114602888 14.0,10.969655114602888 13.5,11.835680518387328" fill="#FFA07A" stroke="black" stroke-width="0.05" opacity="0.8"/>
<polygon points="13.0,12.701705922171765 14.0,12.701705922171765 13.5,13.567731325956204" fill="#FFA07A" stroke="black" stroke-width="0.05" opacity="0.8"/>
<polygon points="14.5,10.103629710818451 15.5,10.103629710818451 15.0,10.96965511460289" fill="#FFA07A" stroke="black" stroke-width="0.05" opacity="0.8"/>
<polygon points="16.0,10.969655114602888 17.0,10.969655114602888 16.5,11.835680518387328" fill="#FFA07A" stroke="black" stroke-width="0.05" opacity="0.8"/>
<polygon points="-3.5,15.299782133525081 -2.5,15.299782133525081 -3.0,16.16580753730952" fill="#45B7D1" stroke="black" stroke-width="0.05" opacity="0.8"/>
<polygon points="-3.5,13.567731325956204 -2.5,13.567731325956204 -3.0,14.433756729740644" fill="#45B7D1" stroke="black" stroke-width="0.05" opacity="0.8"/>
<polygon points="-2.0,12.701705922171765 -1.0,12.701705922171765 -1.5,13.567731325956204" fill="#45B7D1" stroke="black" stroke-width="0.05" opacity="0.8"/>
<polygon points="-0.5,15.299782133525081 0.5,15.299782133525081 0.0,16.16580753730952" fill="#45B7D1" stroke="black" stroke-width="0.05" opacity="0.8"/>
<polygon points="-0.5,13.567731325956204 0.5,13.567731325956204 0.0,14.433756729740644" fill="#45B7D1" stroke="black" stroke-width="0.05" opacity="0.8"/>
<polygon points="1.0,16.165807537309522 2.0,16.165807537309522 1.5,17.03183294109396" fill="#45B7D1" stroke="black" stroke-width="0.05" opacity="0.8"/>
<polygon points="1.0,12.701705922171765 2.0,12.701705922171765 1.5,13.567731325956204" fill="#45B7D1" stroke="black" stroke-width="0.05" opacity="0.8"/>
<polygon points="1.0,10.969655114602888 2.0,10.969655114602888 1.5,11.835680518387328" fill="#45B7D1" stroke="black" stroke-width="0.05" opacity="0.8"/>
<polygon points="2.5,13.567731325956204 3.5,13.567731325956204 3.0,14.433756729740644" fill="#45B7D1" stroke="black" stroke-width="0.05" opacity="0.8"/>
<polygon points="4.0,12.701705922171765 5.0,12.701705922171765 4.5,13.567731325956204" fill="#45B7D1" stroke="black" stroke-width="0.05" opacity="0.8"/>
<polygon points="5.5,13.567731325956204 6.5,13.567731325956204 6.0,14.433756729740644" fill="#45B7D1" stroke="black" stroke-width="0.05" opacity="0.8"/>
<polygon points="7.0,12.701705922171765 8.0,12.701705922171765 7.5,13.567731325956204" fill="#45B7D1" stroke="black" stroke-width="0.05" opacity="0.8"/>
<polygon points="7.0,10.969655114602888 8.0,10.969655114602888 7.5,11.835680518387328" fill="#45B7D1" stroke="black" stroke-width="0.05" opacity="0.8"/>
<polygon points="4.0,10.969655114602888 5.0,10.969655114602888 4.5,11.835680518387328" fill="#45B7D1" stroke="black" stroke-width="0.05" opacity="0.8"/>
<polygon points="5.5,10.103629710818451 6.5,10.103629710818451 6.0,10.96965511460289" fill="#45B7D1" stroke="black" stroke-width="0.05" opacity="0.8"/>
<polygon points="2.5,10.103629710818451 3.5,10.103629710818451 3.0,10.96965511460289" fill="#45B7D1" stroke="black" stroke-width="0.05" opacity="0.8"/>
<polygon points="5.5,8.371578903249572 6.5,8.371578903249572 6.0,9.237604307034012" fill="#45B7D1" stroke="black" stroke-width="0.05" opacity="0.8"/>
<polygon points="7.0,7.505553499465134 8.0,7.505553499465134 7.5,8.371578903249572" fill="#45B7D1" stroke="black" stroke-width="0.05" opacity="0.8"/>
<polygon points="4.0,7.505553499465134 5.0,7.505553499465134 4.5,8.371578903249572" fill="#45B7D1" stroke="black" stroke-width="0.05" opacity="0.8"/>
<polygon points="4.0,5.773502691896257 5.0,5.773502691896257 4.5,6.639528095680696" fill="#45B7D1" stroke="black" stroke-width="0.05" opacity="0.8"/>
<polygon points="5.5,3.1754264805429413 6.5,3.1754264805429413 6.0,4.04145188432738" fill="#45B7D1" stroke="black" stroke-width="0.05" opacity="0.8"/>
<polygon points="5.5,4.907477288111819 6.5,4.907477288111819 6.0,5.773502691896258" fill="#45B7D1" stroke="black" stroke-width="0.05" opacity="0.8"/>
<polygon points="7.0,5.773502691896257 8.0,5.773502691896257 7.5,6.639528095680696" fill="#45B7D1" stroke="black" stroke-width="0.05" opacity="0.8"/>
<polygon points="8.5,3.1754264805429413 9.5,3.1754264805429413 9.0,4.04145188432738" fill="#45B7D1" stroke="black" stroke-width="0.05" opacity="0.8"/>
<polygon points="8.5,4.907477288111819 9.5,4.907477288111819 9.0,5.773502691896258" fill="#45B7D1" stroke="black" stroke-width="0.05" opacity="0.8"/>
<polygon points="10.0,2.309401076758503 11.0,2.309401076758503 10.5,3.1754264805429417" fill="#45B7D1" stroke="black" stroke-width="0.05" opacity="0.8"/>
<polygon points="10.0,5.773502691896257 11.0,5.773502691896257 10.5,6.639528095680696" fill="#45B7D1" stroke="black" stroke-width="0.05" opacity="0.8"/>
<polygon points="10.0,7.505553499465134 11.0,7.505553499465134 10.5,8.371578903249572" fill="#45B7D1" stroke="black" stroke-width="0.05" opacity="0.8"/>
<polygon points="11.5,4.907477288111819 12.5,4.907477288111819 12.0,5.773502691896258" fill="#45B7D1" stroke="black" stroke-width="0.05" opacity="0.8"/>
<polygon points="13.0,5.773502691896257 14.0,5.773502691896257 13.5,6.639528095680696" fill="#45B7D1" stroke="black" stroke-width="0.05" opacity="0.8"/>
<polygon points="-14.0,10.969655114602888 -13.0,10.969655114602888 -13.5,11.835680518387328" fill="#45B7D1" stroke="black" stroke-width="0.05" opacity="0.8"/>
<polygon points="-14.0,12.701705922171765 -13.0,12.701705922171765 -13.5,13.567731325956204" fill="#45B7D1" stroke="black" stroke-width="0.05" opacity="0.8"/>
<polygon points="-12.5,13.567731325956204 -11.5,13.567731325956204 -12.0,14.433756729740644" fill="#45B7D1" stroke="black" stroke-width="0.05" opacity="0.8"/>
<polygon points="-11.0,10.969655114602888 -10.0,10.969655114602888 -10.5,11.835680518387328" fill="#45B7D1" stroke="black" stroke-width="0.05" opacity="0.8"/>
<polygon points="-11.0,12.701705922171765 -10.0,12.701705922171765 -10.5,13.567731325956204" fill="#45B7D1" stroke="black" stroke-width="0.05" opacity="0.8"/>
<polygon points="-9.5,10.103629710818451 -8.5,10.103629710818451 -9.0,10.96965511460289" fill="#45B7D1" stroke="black" stroke-width="0.05" opacity="0.8"/>
<polygon points="-9.5,13.567731325956204 -8.5,13.567731325956204 -9.0,14.433756729740644" fill="#45B7D1" stroke="black" stroke-width="0.05" opacity="0.8"/>
<polygon points="-9.5,15.299782133525081 -8.5,15.299782133525081 -9.0,16.16580753730952" fill="#45B7D1" stroke="black" stroke-width="0.05" opacity="0.8"/>
<polygon points="-8.0,12.701705922171765 -7.0,12.701705922171765 -7.5,13.567731325956204" fill="#45B7D1" stroke="black" stroke-width="0.05" opacity="0.8"/>
<polygon points="-6.5,13.567731325956204 -5.5,13.567731325956204 -6.0,14.433756729740644" fill="#45B7D1" stroke="black" stroke-width="0.05" opacity="0.8"/>
<polygon points="-0.5,8.371578903249572 0.5,8.371578903249572 0.0,9.237604307034012" fill="#45B7D1" stroke="black" stroke-width="0.05" opacity="0.8"/>
<polygon points="-0.5,10.103629710818451 0.5,10.103629710818451 0.0,10.96965511460289" fill="#45B7D1" stroke="black" stroke-width="0.05" opacity="0.8"/>
<polygon points="-2.0,10.969655114602888 -1.0,10.969655114602888 -1.5,11.835680518387328" fill="#45B7D1" stroke="black" stroke-width="0.05" opacity="0.8"/>
<polygon points="-3.5,8.371578903249572 -2.5,8.371578903249572 -3.0,9.237604307034012" fill="#45B7D1" stroke="black" stroke-width="0.05" opacity="0.8"/>
<polygon points="-3.5,10.103629710818451 -2.5,10.103629710818451 -3.0,10.96965511460289" fill="#45B7D1" stroke="black" stroke-width="0.05" opacity="0.8"/>
<polygon points="-5.0,7.505553499465134 -4.0,7.505553499465134 -4.5,8.371578903249572" fill="#45B7D1" stroke="black" stroke-width="0.05" opacity="0.8"/>
<polygon points="-5.0,10.969655114602888 -4.0,10.969655114602888 -4.5,11.835680518387328" fill="#45B7D1" stroke="black" stroke-width="0.05" opacity="0.8"/>
<polygon points="-5.0,12.701705922171765 -4.0,12.701705922171765 -4.5,13.567731325956204" fill="#45B7D1" stroke="black" stroke-width="0.05" opacity="0.8"/>
<polygon points="-6.5,10.103629710818451 -5.5,10.103629710818451 -6.0,10.96965511460289" fill="#45B7D1" stroke="black" stroke-width="0.05" opacity="0.8"/>
<polygon points="-8.0,10.969655114602888 -7.0,10.969655114602888 -7.5,11.835680518387328" fill="#45B7D1" stroke="black" stroke-width="0.05" opacity="0.8"/>
<polygon points="-11.0,5.773502691896257 -10.0,5.773502691896257 -10.5,6.639528095680696" fill="#45B7D1" stroke="black" stroke-width="0.05" opacity="0.8"/>
<polygon points="-9.5,4.907477288111819 -8.5,4.907477288111819 -9.0,5.773502691896258" fill="#45B7D1" stroke="black" stroke-width="0.05" opacity="0.8"/>
<polygon points="-9.5,3.1754264805429413 -8.5,3.1754264805429413 -9.0,4.04145188432738" fill="#45B7D1" stroke="black" stroke-width="0.05" opacity="0.8"/>
<polygon points="-12.5,3.1754264805429413 -11.5,3.1754264805429413 -12.0,4.04145188432738" fill="#45B7D1" stroke="black" stroke-width="0.05" opacity="0.8"/>
<polygon points="-11.0,2.309401076758503 -10.0,2.309401076758503 -10.5,3.1754264805429417" fill="#45B7D1" stroke="black" stroke-width="0.05" opacity="0.8"/>
<polygon points="-14.0,2.309401076758503 -13.0,2.309401076758503 -13.5,3.1754264805429417" fill="#45B7D1" stroke="black" stroke-width="0.05" opacity="0.8"/>
<polygon points="-11.0,0.5773502691896257 -10.0,0.5773502691896257 -10.5,1.4433756729740643" fill="#45B7D1" stroke="black" stroke-width="0.05" opacity="0.8"/>
<polygon points="-9.5,-0.28867513459481287 -8.5,-0.28867513459481287 -9.0,0.5773502691896257" fill="#45B7D1" stroke="black" stroke-width="0.05" opacity="0.8"/>
<polygon points="-12.5,-0.28867513459481287 -11.5,-0.28867513459481287 -12.0,0.5773502691896257" fill="#45B7D1" stroke="black" stroke-width="0.05" opacity="0.8"/>
<polygon points="-12.5,-2.02072594216369 -11.5,-2.02072594216369 -12.0,-1.1547005383792515" fill="#45B7D1" stroke="black" stroke-width="0.05" opacity="0.8"/>
<polygon points="-17.0,5.773502691896257 -16.0,5.773502691896257 -16.5,6.639528095680696" fill="#45B7D1" stroke="black" stroke-width="0.05" opacity="0.8"/>
<polygon points="-17.0,7.505553499465134 -16.0,7.505553499465134 -16.5,8.371578903249572" fill="#45B7D1" stroke="black" stroke-width="0.05" opacity="0.8"/>
<polygon points="-15.5,8.371578903249572 -14.5,8.371578903249572 -15.0,9.237604307034012" fill="#45B7D1" stroke="black" stroke-width="0.05" opacity="0.8"/>
<polygon points="-14.0,5.773502691896257 -13.0,5.773502691896257 -13.5,6.639528095680696" fill="#45B7D1" stroke="black" stroke-width="0.05" opacity="0.8"/>
<polygon points="-14.0,7.505553499465134 -13.0,7.505553499465134 -13.5,8.371578903249572" fill="#45B7D1" stroke="black" stroke-width="0.05" opacity="0.8"/>
<polygon points="-12.5,4.907477288111819 -11.5,4.907477288111819 -12.0,5.773502691896258" fill="#45B7D1" stroke="black" stroke-width="0.05" opacity="0.8"/>
<polygon points="-12.5,8.371578903249572 -11.5,8.371578903249572 -12.0,9.237604307034012" fill="#45B7D1" stroke="black" stroke-width="0.05" opacity="0.8"/>
<polygon points="-12.5,10.103629710818451 -11.5,10.103629710818451 -12.0,10.96965511460289" fill="#45B7D1" stroke="black" stroke-width="0.05" opacity="0.8"/>
<polygon points="-11.0,7.505553499465134 -10.0,7.505553499465134 -10.5,8.371578903249572" fill="#45B7D1" stroke="black" stroke-width="0.05" opacity="0.8"/>
<polygon points="-9.5,8.371578903249572 -8.5,8.371578903249572 -9.0,9.237604307034012" fill="#45B7D1" stroke="black" stroke-width="0.05" opacity="0.8"/>
<polygon points="7.0,21.361959960016154 8.0,21.361959960016154 7.5,22.22798536380059" fill="#FFA07A" stroke="black" stroke-width="0.05" opacity="0.8"/>
<polygon points="5.5,20.495934556231717 6.5,20.495934556231717 6.0,21.361959960016154" fill="#FFA07A" stroke="black" stroke-width="0.05" opacity="0.8"/>
<polygon points="5.5,18.76388374866284 6.5,18.76388374866284 6.0,19.629909152447276" fill="#FFA07A" stroke="black" stroke-width="0.05" opacity="0.8"/>
<polygon points="8.5,18.76388374866284 9.5,18.76388374866284 9.0,19.629909152447276" fill="#FFA07A" stroke="black" stroke-width="0.05" opacity="0.8"/>
<polygon points="7.0,17.8978583448784 8.0,17.8978583448784 7.5,18.76388374866284" fill="#FFA07A" stroke="black" stroke-width="0.05" opacity="0.8"/>
<polygon points="10.0,17.8978583448784 11.0,17.8978583448784 10.5,18.76388374866284" fill="#FFA07A" stroke="black" stroke-width="0.05" opacity="0.8"/>
<polygon points="7.0,16.165807537309522 8.0,16.165807537309522 7.5,17.03183294109396" fill="#FFA07A" stroke="black" stroke-width="0.05" opacity="0.8"/>
<polygon points="5.5,15.299782133525081 6.5,15.299782133525081 6.0,16.16580753730952" fill="#FFA07A" stroke="black" stroke-width="0.05" opacity="0.8"/>
<polygon points="8.5,15.299782133525081 9.5,15.299782133525081 9.0,16.16580753730952" fill="#FFA07A" stroke="black" stroke-width="0.05" opacity="0.8"/>
<polygon points="8.5,13.567731325956204 9.5,13.567731325956204 9.0,14.433756729740644" fill="#FFA07A" stroke="black" stroke-width="0.05" opacity="0.8"/>
<polygon points="2.5,15.299782133525081 3.5,15.299782133525081 3.0,16.16580753730952" fill="#FFA07A" stroke="black" stroke-width="0.05" opacity="0.8"/>
<polygon points="4.0,16.165807537309522 5.0,16.165807537309522 4.5,17.03183294109396" fill="#FFA07A" stroke="black" stroke-width="0.05" opacity="0.8"/>
<polygon points="4.0,17.8978583448784 5.0,17.8978583448784 4.5,18.76388374866284" fill="#FFA07A" stroke="black" stroke-width="0.05" opacity="0.8"/>
<polygon points="1.0,17.8978583448784 2.0,17.8978583448784 1.5,18.76388374866284" fill="#FFA07A" stroke="black" stroke-width="0.05" opacity="0.8"/>
<polygon points="2.5,18.76388374866284 3.5,18.76388374866284 3.0,19.629909152447276" fill="#FFA07A" stroke="black" stroke-width="0.05" opacity="0.8"/>
<polygon points="-0.5,18.76388374866284 0.5,18.76388374866284 0.0,19.629909152447276" fill="#FFA07A" stroke="black" stroke-width="0.05" opacity="0.8"/>
<polygon points="2.5,20.495934556231717 3.5,20.495934556231717 3.0,21.361959960016154" fill="#FFA07A" stroke="black" stroke-width="0.05" opacity="0.8"/>
<polygon points="4.0,21.361959960016154 5.0,21.361959960016154 4.5,22.22798536380059" fill="#FFA07A" stroke="black" stroke-width="0.05" opacity="0.8"/>
<polygon points="1.0,21.361959960016154 2.0,21.361959960016154 1.5,22.22798536380059" fill="#FFA07A" stroke="black" stroke-width="0.05" opacity="0.8"/>
<polygon points="1.0,23.09401076758503 2.0,23.09401076758503 1.5,23.960036171369467" fill="#FFA07A" stroke="black" stroke-width="0.05" opacity="0.8"/>
<polygon points="5.5,-5.484827557301445 6.5,-5.484827557301445 6.0,-4.618802153517006" fill="#45B7D1" stroke="black" stroke-width="0.05" opacity="0.8"/>
<polygon points="7.0,-4.618802153517006 8.0,-4.618802153517006 7.5,-3.752776749732567" fill="#45B7D1" stroke="black" stroke-width="0.05" opacity="0.8"/>
<polygon points="8.5,-5.484827557301445 9.5,-5.484827557301445 9.0,-4.618802153517006" fill="#45B7D1" stroke="black" stroke-width="0.05" opacity="0.8"/>
<polygon points="7.0,-8.08290376865476 8.0,-8.08290376865476 7.5,-7.216878364870322" fill="#45B7D1" stroke="black" stroke-width="0.05" opacity="0.8"/>
<polygon points="8.5,-7.216878364870322 9.5,-7.216878364870322 9.0,-6.350852961085883" fill="#45B7D1" stroke="black" stroke-width="0.05" opacity="0.8"/>
<polygon points="7.0,-9.814954576223638 8.0,-9.814954576223638 7.5,-8.948929172439199" fill="#45B7D1" stroke="black" stroke-width="0.05" opacity="0.8"/>
<polygon points="10.0,-8.08290376865476 11.0,-8.08290376865476 10.5,-7.216878364870322" fill="#45B7D1" stroke="black" stroke-width="0.05" opacity="0.8"/>
<polygon points="11.5,-7.216878364870322 12.5,-7.216878364870322 12.0,-6.350852961085883" fill="#45B7D1" stroke="black" stroke-width="0.05" opacity="0.8"/>
<polygon points="10.0,-9.814954576223638 11.0,-9.814954576223638 10.5,-8.948929172439199" fill="#45B7D1" stroke="black" stroke-width="0.05" opacity="0.8"/>
<polygon points="11.5,-10.680979980008077 12.5,-10.680979980008077 12.0,-9.814954576223638" fill="#45B7D1" stroke="black" stroke-width="0.05" opacity="0.8"/>
<polygon points="-14.0,0.5773502691896257 -13.0,0.5773502691896257 -13.5,1.4433756729740643" fill="#FFA07A" stroke="black" stroke-width="0.05" opacity="0.8"/>
<polygon points="-15.5,-0.28867513459481287 -14.5,-0.28867513459481287 -15.0,0.5773502691896257" fill="#FFA07A" stroke="black" stroke-width="0.05" opacity="0.8"/>
<polygon points="-17.0,0.5773502691896257 -16.0,0.5773502691896257 -16.5,1.4433756729740643" fill="#FFA07A" stroke="black" stroke-width="0.05" opacity="0.8"/>
<polygon points="-15.5,3.1754264805429413 -14.5,3.1754264805429413 -15.0,4.04145188432738" fill="#FFA07A" stroke="black" stroke-width="0.05" opacity="0.8"/>
<polygon points="-17.0,2.309401076758503 -16.0,2.309401076758503 -16.5,3.1754264805429417" fill="#FFA07A" stroke="black" stroke-width="0.05" opacity="0.8"/>
<polygon points="-15.5,4.907477288111819 -14.5,4.907477288111819 -15.0,5.773502691896258" fill="#FFA07A" stroke="black" stroke-width="0.05" opacity="0.8"/>
<polygon points="-18.5,3.1754264805429413 -17.5,3.1754264805429413 -18.0,4.04145188432738" fill="#FFA07A" stroke="black" stroke-width="0.05" opacity="0.8"/>
<polygon points="-20.0,2.309401076758503 -19.0,2.309401076758503 -19.5,3.1754264805429417" fill="#FFA07A" stroke="black" stroke-width="0.05" opacity="0.8"/>
<polygon points="-18.5,4.907477288111819 -17.5,4.907477288111819 -18.0,5.773502691896258" fill="#FFA07A" stroke="black" stroke-width="0.05" opacity="0.8"/>
<polygon points="-20.0,5.773502691896257 -19.0,5.773502691896257 -19.5,6.639528095680696" fill="#FFA07A" stroke="black" stroke-width="0.05" opacity="0.8"/>
<polygon points="8.5,-10.680979980008077 9.5,-10.680979980008077 9.0,-9.814954576223638" fill="#45B7D1" stroke="black" stroke-width="0.05" opacity="0.8"/>
<polygon points="8.5,-12.413030787576954 9.5,-12.413030787576954 9.0,-11.547005383792515" fill="#45B7D1" stroke="black" stroke-width="0.05" opacity="0.8"/>
<polygon points="7.0,-13.279056191361391 8.0,-13.279056191361391 7.5,-12.413030787576952" fill="#45B7D1" stroke="black" stroke-width="0.05" opacity="0.8"/>
<polygon points="5.5,-10.680979980008077 6.5,-10.680979980008077 6.0,-9.814954576223638" fill="#45B7D1" stroke="black" stroke-width="0.05" opacity="0.8"/>
<polygon points="5.5,-12.413030787576954 6.5,-12.413030787576954 6.0,-11.547005383792515" fill="#45B7D1" stroke="black" stroke-width="0.05" opacity="0.8"/>
<polygon points="4.0,-9.814954576223638 5.0,-9.814954576223638 4.5,-8.948929172439199" fill="#45B7D1" stroke="black" stroke-width="0.05" opacity="0.8"/>
<polygon points="4.0,-13.279056191361391 5.0,-13.279056191361391 4.5,-12.413030787576952" fill="#45B7D1" stroke="black" stroke-width="0.05" opacity="0.8"/>
<polygon points="4.0,-15.01110699893027 5.0,-15.01110699893027 4.5,-14.14508159514583" fill="#45B7D1" stroke="black" stroke-width="0.05" opacity="0.8"/>
<polygon points="2.5,-12.413030787576954 3.5,-12.413030787576954 3.0,-11.547005383792515" fill="#45B7D1" stroke="black" stroke-width="0.05" opacity="0.8"/>
<polygon points="1.0,-13.279056191361391 2.0,-13.279056191361391 1.5,-12.413030787576952" fill="#45B7D1" stroke="black" stroke-width="0.05" opacity="0.8"/>
<polygon points="-5.0,-13.279056191361391 -4.0,-13.279056191361391 -4.5,-12.413030787576952" fill="#45B7D1" stroke="black" stroke-width="0.05" opacity="0.8"/>
<polygon points="-6.5,-12.413030787576954 -5.5,-12.413030787576954 -6.0,-11.547005383792515" fill="#45B7D1" stroke="black" stroke-width="0.05" opacity="0.8"/>
<polygon points="-8.0,-13.279056191361391 -7.0,-13.279056191361391 -7.5,-12.413030787576952" fill="#45B7D1" stroke="black" stroke-width="0.05" opacity="0.8"/>
<polygon points="-6.5,-15.877132402714707 -5.5,-15.877132402714707 -6.0,-15.011106998930268" fill="#45B7D1" stroke="black" stroke-width="0.05" opacity="0.8"/>
<polygon points="-8.0,-15.01110699893027 -7.0,-15.01110699893027 -7.5,-14.14508159514583" fill="#45B7D1" stroke="black" stroke-width="0.05" opacity="0.8"/>
<polygon points="-6.5,-17.609183210283582 -5.5,-17.609183210283582 -6.0,-16.743157806499145" fill="#45B7D1" stroke="black" stroke-width="0.05" opacity="0.8"/>
<polygon points="-9.5,-15.877132402714707 -8.5,-15.877132402714707 -9.0,-15.011106998930268" fill="#45B7D1" stroke="black" stroke-width="0.05" opacity="0.8"/>
<polygon points="-11.0,-15.01110699893027 -10.0,-15.01110699893027 -10.5,-14.14508159514583" fill="#45B7D1" stroke="black" stroke-width="0.05" opacity="0.8"/>
<polygon points="-9.5,-17.609183210283582 -8.5,-17.609183210283582 -9.0,-16.743157806499145" fill="#45B7D1" stroke="black" stroke-width="0.05" opacity="0.8"/>
<polygon points="-11.0,-18.475208614068023 -10.0,-18.475208614068023 -10.5,-17.609183210283586" fill="#45B7D1" stroke="black" stroke-width="0.05" opacity="0.8"/>
<polygon points="7.0,-20.2072594216369 8.0,-20.2072594216369 7.5,-19.34123401785246" fill="#FFA07A" stroke="black" stroke-width="0.05" opacity="0.8"/>
<polygon points="5.5,-21.07328482542134 6.5,-21.07328482542134 6.0,-20.207259421636902" fill="#FFA07A" stroke="black" stroke-width="0.05" opacity="0.8"/>
<polygon points="4.0,-20.2072594216369 5.0,-20.2072594216369 4.5,-19.34123401785246" fill="#FFA07A" stroke="black" stroke-width="0.05" opacity="0.8"/>
<polygon points="5.5,-17.609183210283582 6.5,-17.609183210283582 6.0,-16.743157806499145" fill="#FFA07A" stroke="black" stroke-width="0.05" opacity="0.8"/>
<polygon points="4.0,-18.475208614068023 5.0,-18.475208614068023 4.5,-17.609183210283586" fill="#FFA07A" stroke="black" stroke-width="0.05" opacity="0.8"/>
<polygon points="5.5,-15.877132402714707 6.5,-15.877132402714707 6.0,-15.011106998930268" fill="#FFA07A" stroke="black" stroke-width="0.05" opacity="0.8"/>
<polygon points="2.5,-17.609183210283582 3.5,-17.609183210283582 3.0,-16.743157806499145" fill="#FFA07A" stroke="black" stroke-width="0.05" opacity="0.8"/>
<polygon points="1.0,-18.475208614068023 2.0,-18.475208614068023 1.5,-17.609183210283586" fill="#FFA07A" stroke="black" stroke-width="0.05" opacity="0.8"/>
<polygon points="2.5,-15.877132402714707 3.5,-15.877132402714707 3.0,-15.011106998930268" fill="#FFA07A" stroke="black" stroke-width="0.05" opacity="0.8"/>
<polygon points="1.0,-15.01110699893027 2.0,-15.01110699893027 1.5,-14.14508159514583" fill="#FFA07A" stroke="black" stroke-width="0.05" opacity="0.8"/>
<polygon points="13.0,-13.279056191361391 14.0,-13.279056191361391 13.5,-12.413030787576952" fill="#FFA07A" stroke="black" stroke-width="0.05" opacity="0.8"/>
<polygon points="11.5,-12.413030787576954 12.5,-12.413030787576954 12.0,-11.547005383792515" fill="#FFA07A" stroke="black" stroke-width="0.05" opacity="0.8"/>
<polygon points="10.0,-13.279056191361391 11.0,-13.279056191361391 10.5,-12.413030787576952" fill="#FFA07A" stroke="black" stroke-width="0.05" opacity="0.8"/>
<polygon points="11.5,-15.877132402714707 12.5,-15.877132402714707 12.0,-15.011106998930268" fill="#FFA07A" stroke="black" stroke-width="0.05" opacity="0.8"/>
<polygon points="10.0,-15.01110699893027 11.0,-15.01110699893027 10.5,-14.14508159514583" fill="#FFA07A" stroke="black" stroke-width="0.05" opacity="0.8"/>
<polygon points="11.5,-17.609183210283582 12.5,-17.609183210283582 12.0,-16.743157806499145" fill="#FFA07A" stroke="black" stroke-width="0.05" opacity="0.8"/>
<polygon points="8.5,-15.877132402714707 9.5,-15.877132402714707 9.0,-15.011106998930268" fill="#FFA07A" stroke="black" stroke-width="0.05" opacity="0.8"/>
<polygon points="7.0,-15.01110699893027 8.0,-15.01110699893027 7.5,-14.14508159514583" fill="#FFA07A" stroke="black" stroke-width="0.05" opacity="0.8"/>
<polygon points="8.5,-17.609183210283582 9.5,-17.609183210283582 9.0,-16.743157806499145" fill="#FFA07A" stroke="black" stroke-width="0.05" opacity="0.8"/>
<polygon points="7.0,-18.475208614068023 8.0,-18.475208614068023 7.5,-17.609183210283586" fill="#FFA07A" stroke="black" stroke-width="0.05" opacity="0.8"/>
<polygon points="-2.0,-18.475208614068023 -1.0,-18.475208614068023 -1.5,-17.609183210283586" fill="#45B7D1" stroke="black" stroke-width="0.05" opacity="0.8"/>
<polygon points="-0.5,-17.609183210283582 0.5,-17.609183210283582 0.0,-16.743157806499145" fill="#45B7D1" stroke="black" stroke-width="0.05" opacity="0.8"/>
<polygon points="-0.5,-15.877132402714707 0.5,-15.877132402714707 0.0,-15.011106998930268" fill="#45B7D1" stroke="black" stroke-width="0.05" opacity="0.8"/>
<polygon points="-3.5,-15.877132402714707 -2.5,-15.877132402714707 -3.0,-15.011106998930268" fill="#45B7D1" stroke="black" stroke-width="0.05" opacity="0.8"/>
<polygon points="-2.0,-15.01110699893027 -1.0,-15.01110699893027 -1.5,-14.14508159514583" fill="#45B7D1" stroke="black" stroke-width="0.05" opacity="0.8"/>
<polygon points="-5.0,-15.01110699893027 -4.0,-15.01110699893027 -4.5,-14.14508159514583" fill="#45B7D1" stroke="black" stroke-width="0.05" opacity="0.8"/>
<polygon points="-2.0,-13.279056191361391 -1.0,-13.279056191361391 -1.5,-12.413030787576952" fill="#45B7D1" stroke="black" stroke-width="0.05" opacity="0.8"/>
<polygon points="-0.5,-12.413030787576954 0.5,-12.413030787576954 0.0,-11.547005383792515" fill="#45B7D1" stroke="black" stroke-width="0.05" opacity="0.8"/>
<polygon points="-3.5,-12.413030787576954 -2.5,-12.413030787576954 -3.0,-11.547005383792515" fill="#45B7D1" stroke="black" stroke-width="0.05" opacity="0.8"/>
<polygon points="-3.5,-10.680979980008077 -2.5,-10.680979980008077 -3.0,-9.814954576223638" fill="#45B7D1" stroke="black" stroke-width="0.05" opacity="0.8"/>
<polygon points="-12.5,-12.413030787576954 -11.5,-12.413030787576954 -12.0,-11.547005383792515" fill="#45B7D1" stroke="black" stroke-width="0.05" opacity="0.8"/>
<polygon points="-11.0,-13.279056191361391 -10.0,-13.279056191361391 -10.5,-12.413030787576952" fill="#45B7D1" stroke="black" stroke-width="0.05" opacity="0.8"/>
<polygon points="-9.5,-12.413030787576954 -8.5,-12.413030787576954 -9.0,-11.547005383792515" fill="#45B7D1" stroke="black" stroke-width="0.05" opacity="0.8"/>
<polygon points="-11.0,-9.814954576223638 -10.0,-9.814954576223638 -10.5,-8.948929172439199" fill="#45B7D1" stroke="black" stroke-width="0.05" opacity="0.8"/>
<polygon points="-9.5,-10.680979980008077 -8.5,-10.680979980008077 -9.0,-9.814954576223638" fill="#45B7D1" stroke="black" stroke-width="0.05" opacity="0.8"/>
<polygon points="-11.0,-8.08290376865476 -10.0,-8.08290376865476 -10.5,-7.216878364870322" fill="#45B7D1" stroke="black" stroke-width="0.05" opacity="0.8"/>
<polygon points="-8.0,-9.814954576223638 -7.0,-9.814954576223638 -7.5,-8.948929172439199" fill="#45B7D1" stroke="black" stroke-width="0.05" opacity="0.8"/>
<polygon points="-6.5,-10.680979980008077 -5.5,-10.680979980008077 -6.0,-9.814954576223638" fill="#45B7D1" stroke="black" stroke-width="0.05" opacity="0.8"/>
<polygon points="-8.0,-8.08290376865476 -7.0,-8.08290376865476 -7.5,-7.216878364870322" fill="#45B7D1" stroke="black" stroke-width="0.05" opacity="0.8"/>
<polygon points="-6.5,-7.216878364870322 -5.5,-7.216878364870322 -6.0,-6.350852961085883" fill="#45B7D1" stroke="black" stroke-width="0.05" opacity="0.8"/>
<polygon points="-9.5,-7.216878364870322 -8.5,-7.216878364870322 -9.0,-6.350852961085883" fill="#45B7D1" stroke="black" stroke-width="0.05" opacity="0.8"/>
<polygon points="-9.5,-5.484827557301445 -8.5,-5.484827557301445 -9.0,-4.618802153517006" fill="#45B7D1" stroke="black" stroke-width="0.05" opacity="0.8"/>
<polygon points="-11.0,-4.618802153517006 -10.0,-4.618802153517006 -10.5,-3.752776749732567" fill="#45B7D1" stroke="black" stroke-width="0.05" opacity="0.8"/>
<polygon points="-12.5,-7.216878364870322 -11.5,-7.216878364870322 -12.0,-6.350852961085883" fill="#45B7D1" stroke="black" stroke-width="0.05" opacity="0.8"/>
<polygon points="-12.5,-5.484827557301445 -11.5,-5.484827557301445 -12.0,-4.618802153517006" fill="#45B7D1" stroke="black" stroke-width="0.05" opacity="0.8"/>
<polygon points="-14.0,-8.08290376865476 -13.0,-8.08290376865476 -13.5,-7.216878364870322" fill="#45B7D1" stroke="black" stroke-width="0.05" opacity="0.8"/>
<polygon points="-14.0,-4.618802153517006 -13.0,-4.618802153517006 -13.5,-3.752776749732567" fill="#45B7D1" stroke="black" stroke-width="0.05" opacity="0.8"/>
<polygon points="-14.0,-2.886751345948129 -13.0,-2.886751345948129 -13.5,-2.0207259421636903" fill="#45B7D1" stroke="black" stroke-width="0.05" opacity="0.8"/>
<polygon points="-15.5,-5.484827557301445 -14.5,-5.484827557301445 -15.0,-4.618802153517006" fill="#45B7D1" stroke="black" stroke-width="0.05" opacity="0.8"/>
<polygon points="-17.0,-4.618802153517006 -16.0,-4.618802153517006 -16.5,-3.752776749732567" fill="#45B7D1" stroke="black" stroke-width="0.05" opacity="0.8"/>
<polygon points="11.5,3.1754264805429413 12.5,3.1754264805429413 12.0,4.04145188432738" fill="#45B7D1" stroke="black" stroke-width="0.05" opacity="0.8"/>
<polygon points="13.0,2.309401076758503 14.0,2.309401076758503 13.5,3.1754264805429417" fill="#45B7D1" stroke="black" stroke-width="0.05" opacity="0.8"/>
<polygon points="13.0,0.5773502691896257 14.0,0.5773502691896257 13.5,1.4433756729740643" fill="#45B7D1" stroke="black" stroke-width="0.05" opacity="0.8"/>
<polygon points="10.0,0.5773502691896257 11.0,0.5773502691896257 10.5,1.4433756729740643" fill="#45B7D1" stroke="black" stroke-width="0.05" opacity="0.8"/>
<polygon points="11.5,-0.28867513459481287 12.5,-0.28867513459481287 12.0,0.5773502691896257" fill="#45B7D1" stroke="black" stroke-width="0.05" opacity="0.8"/>
<polygon points="8.5,-0.28867513459481287 9.5,-0.28867513459481287 9.0,0.5773502691896257" fill="#45B7D1" stroke="black" stroke-width="0.05" opacity="0.8"/>
<polygon points="11.5,-2.02072594216369 12.5,-2.02072594216369 12.0,-1.1547005383792515" fill="#45B7D1" stroke="black" stroke-width="0.05" opacity="0.8"/>
<polygon points="13.0,-2.886751345948129 14.0,-2.886751345948129 13.5,-2.0207259421636903" fill="#45B7D1" stroke="black" stroke-width="0.05" opacity="0.8"/>
<polygon points="10.0,-2.886751345948129 11.0,-2.886751345948129 10.5,-2.0207259421636903" fill="#45B7D1" stroke="black" stroke-width="0.05" opacity="0.8"/>
<polygon points="10.0,-4.618802153517006 11.0,-4.618802153517006 10.5,-3.752776749732567" fill="#45B7D1" stroke="black" stroke-width="0.05" opacity="0.8"/>
<polygon points="-23.0,-4.618802153517006 -22.0,-4.618802153517006 -22.5,-3.752776749732567" fill="#FFA07A" stroke="black" stroke-width="0.05" opacity="0.8"/>
<polygon points="-23.0,-2.886751345948129 -22.0,-2.886751345948129 -22.5,-2.0207259421636903" fill="#FFA07A" stroke="black" stroke-width="0.05" opacity="0.8"/>
<polygon points="-21.5,-2.02072594216369 -20.5,-2.02072594216369 -21.0,-1.1547005383792515" fill="#FFA07A" stroke="black" stroke-width="0.05" opacity="0.8"/>
<polygon points="-20.0,-4.618802153517006 -19.0,-4.618802153517006 -19.5,-3.752776749732567" fill="#FFA07A" stroke="black" stroke-width="0.05" opacity="0.8"/>
<polygon points="-20.0,-2.886751345948129 -19.0,-2.886751345948129 -19.5,-2.0207259421636903" fill="#FFA07A" stroke="black" stroke-width="0.05" opacity="0.8"/>
<polygon points="-18.5,-5.484827557301445 -17.5,-5.484827557301445 -18.0,-4.618802153517006" fill="#FFA07A" stroke="black" stroke-width="0.05" opacity="0.8"/>
<polygon points="-18.5,-2.02072594216369 -17.5,-2.02072594216369 -18.0,-1.1547005383792515" fill="#FFA07A" stroke="black" stroke-width="0.05" opacity="0.8"/>
<polygon points="-18.5,-0.28867513459481287 -17.5,-0.28867513459481287 -18.0,0.5773502691896257" fill="#FFA07A" stroke="black" stroke-width="0.05" opacity="0.8"/>
<polygon points="-17.0,-2.886751345948129 -16.0,-2.886751345948129 -16.5,-2.0207259421636903" fill="#FFA07A" stroke="black" stroke-width="0.05" opacity="0.8"/>
<polygon points="-15.5,-2.02072594216369 -14.5,-2.02072594216369 -15.0,-1.1547005383792515" fill="#FFA07A" stroke="black" stroke-width="0.05" opacity="0.8"/>
<polygon points="14.5,-2.02072594216369 15.5,-2.02072594216369 15.0,-1.1547005383792515" fill="#FFA07A" stroke="black" stroke-width="0.05" opacity="0.8"/>
<polygon points="16.0,-2.886751345948129 17.0,-2.886751345948129 16.5,-2.0207259421636903" fill="#FFA07A" stroke="black" stroke-width="0.05" opacity="0.8"/>
<polygon points="16.0,-4.618802153517006 17.0,-4.618802153517006 16.5,-3.752776749732567" fill="#FFA07A" stroke="black" stroke-width="0.05" opacity="0.8"/>
<polygon points="13.0,-4.618802153517006 14.0,-4.618802153517006 13.5,-3.752776749732567" fill="#FFA07A" stroke="black" stroke-width="0.05" opacity="0.8"/>
<polygon points="14.5,-5.484827557301445 15.5,-5.484827557301445 15.0,-4.618802153517006" fill="#FFA07A" stroke="black" stroke-width="0.05" opacity="0.8"/>
<polygon points="11.5,-5.484827557301445 12.5,-5.484827557301445 12.0,-4.618802153517006" fill="#FFA07A" stroke="black" stroke-width="0.05" opacity="0.8"/>
<polygon points="14.5,-7.216878364870322 15.5,-7.216878364870322 15.0,-6.350852961085883" fill="#FFA07A" stroke="black" stroke-width="0.05" opacity="0.8"/>
<polygon points="16.0,-8.08290376865476 17.0,-8.08290376865476 16.5,-7.216878364870322" fill="#FFA07A" stroke="black" stroke-width="0.05" opacity="0.8"/>
<polygon points="13.0,-8.08290376865476 14.0,-8.08290376865476 13.5,-7.216878364870322" fill="#FFA07A" stroke="black" stroke-width="0.05" opacity="0.8"/>
<polygon points="13.0,-9.814954576223638 14.0,-9.814954576223638 13.5,-8.948929172439199" fill="#FFA07A" stroke="black" stroke-width="0.05" opacity="0.8"/>
<polygon points="16.0,5.773502691896257 17.0,5.773502691896257 16.5,6.639528095680696" fill="#FFA07A" stroke="black" stroke-width="0.05" opacity="0.8"/>
<polygon points="14.5,4.907477288111819 15.5,4.907477288111819 15.0,5.773502691896258" fill="#FFA07A" stroke="black" stroke-width="0.05" opacity="0.8"/>
<polygon points="14.5,3.1754264805429413 15.5,3.1754264805429413 15.0,4.04145188432738" fill="#FFA07A" stroke="black" stroke-width="0.05" opacity="0.8"/>
<polygon points="17.5,3.1754264805429413 18.5,3.1754264805429413 18.0,4.04145188432738" fill="#FFA07A" stroke="black" stroke-width="0.05" opacity="0.8"/>
<polygon points="16.0,2.309401076758503 17.0,2.309401076758503 16.5,3.1754264805429417" fill="#FFA07A" stroke="black" stroke-width="0.05" opacity="0.8"/>
<polygon points="19.0,2.309401076758503 20.0,2.309401076758503 19.5,3.1754264805429417" fill="#FFA07A" stroke="black" stroke-width="0.05" opacity="0.8"/>
<polygon points="16.0,0.5773502691896257 17.0,0.5773502691896257 16.5,1.4433756729740643" fill="#FFA07A" stroke="black" stroke-width="0.05" opacity="0.8"/>
<polygon points="14.5,-0.28867513459481287 15.5,-0.28867513459481287 15.0,0.5773502691896257" fill="#FFA07A" stroke="black" stroke-width="0.05" opacity="0.8"/>
<polygon points="17.5,-0.28867513459481287 18.5,-0.28867513459481287 18.0,0.5773502691896257" fill="#FFA07A" stroke="black" stroke-width="0.05" opacity="0.8"/>
<polygon points="17.5,-2.02072594216369 18.5,-2.02072594216369 18.0,-1.1547005383792515" fill="#FFA07A" stroke="black" stroke-width="0.05" opacity="0.8"/>
<polygon points="16.0,17.8978583448784 17.0,17.8978583448784 16.5,18.76388374866284" fill="#FFA07A" stroke="black" stroke-width="0.05" opacity="0.8"/>
<polygon points="14.5,18.76388374866284 15.5,18.76388374866284 15.0,19.629909152447276" fill="#FFA07A" stroke="black" stroke-width="0.05" opacity="0.8"/>
<polygon points="13.0,17.8978583448784 14.0,17.8978583448784 13.5,18.76388374866284" fill="#FFA07A" stroke="black" stroke-width="0.05" opacity="0.8"/>
<polygon points="14.5,15.299782133525081 15.5,15.299782133525081 15.0,16.16580753730952" fill="#FFA07A" stroke="black" stroke-width="0.05" opacity="0.8"/>
<polygon points="13.0,16.165807537309522 14.0,16.165807537309522 13.5,17.03183294109396" fill="#FFA07A" stroke="black" stroke-width="0.05" opacity="0.8"/>
<polygon points="14.5,13.567731325956204 15.5,13.567731325956204 15.0,14.433756729740644" fill="#FFA07A" stroke="black" stroke-width="0.05" opacity="0.8"/>
<polygon points="11.5,15.299782133525081 12.5,15.299782133525081 12.0,16.16580753730952" fill="#FFA07A" stroke="black" stroke-width="0.05" opacity="0.8"/>
<polygon points="10.0,16.165807537309522 11.0,16.165807537309522 10.5,17.03183294109396" fill="#FFA07A" stroke="black" stroke-width="0.05" opacity="0.8"/>
<polygon points="11.5,13.567731325956204 12.5,13.567731325956204 12.0,14.433756729740644" fill="#FFA07A" stroke="black" stroke-width="0.05" opacity="0.8"/>
<polygon points="10.0,12.701705922171765 11.0,12.701705922171765 10.5,13.567731325956204" fill="#FFA07A" stroke="black" stroke-width="0.05" opacity="0.8"/>
<polygon points="-0.5,20.495934556231717 0.5,20.495934556231717 0.0,21.361959960016154" fill="#FFA07A" stroke="black" stroke-width="0.05" opacity="0.8"/>
<polygon points="-2.0,21.361959960016154 -1.0,21.361959960016154 -1.5,22.22798536380059" fill="#FFA07A" stroke="black" stroke-width="0.05" opacity="0.8"/>
<polygon points="-3.5,20.495934556231717 -2.5,20.495934556231717 -3.0,21.361959960016154" fill="#FFA07A" stroke="black" stroke-width="0.05" opacity="0.8"/>
<polygon points="-2.0,17.8978583448784 -1.0,17.8978583448784 -1.5,18.76388374866284" fill="#FFA07A" stroke="black" stroke-width="0.05" opacity="0.8"/>
<polygon points="-3.5,18.76388374866284 -2.5,18.76388374866284 -3.0,19.629909152447276" fill="#FFA07A" stroke="black" stroke-width="0.05" opacity="0.8"/>
<polygon points="-2.0,16.165807537309522 -1.0,16.165807537309522 -1.5,17.03183294109396" fill="#FFA07A" stroke="black" stroke-width="0.05" opacity="0.8"/>
<polygon points="-5.0,17.8978583448784 -4.0,17.8978583448784 -4.5,18.76388374866284" fill="#FFA07A" stroke="black" stroke-width="0.05" opacity="0.8"/>
<polygon points="-6.5,18.76388374866284 -5.5,18.76388374866284 -6.0,19.629909152447276" fill="#FFA07A" stroke="black" stroke-width="0.05" opacity="0.8"/>
<polygon points="-5.0,16.165807537309522 -4.0,16.165807537309522 -4.5,17.03183294109396" fill="#FFA07A" stroke="black" stroke-width="0.05" opacity="0.8"/>
<polygon points="-6.5,15.299782133525081 -5.5,15.299782133525081 -6.0,16.16580753730952" fill="#FFA07A" stroke="black" stroke-width="0.05" opacity="0.8"/>
<polygon points="22.0,5.773502691896257 23.0,5.773502691896257 22.5,6.639528095680696" fill="#FFA07A" stroke="black" stroke-width="0.05" opacity="0.8"/>
<polygon points="22.0,7.505553499465134 23.0,7.505553499465134 22.5,8.371578903249572" fill="#FFA07A" stroke="black" stroke-width="0.05" opacity="0.8"/>
<polygon points="20.5,8.371578903249572 21.5,8.371578903249572 21.0,9.237604307034012" fill="#FFA07A" stroke="black" stroke-width="0.05" opacity="0.8"/>
<polygon points="19.0,5.773502691896257 20.0,5.773502691896257 19.5,6.639528095680696" fill="#FFA07A" stroke="black" stroke-width="0.05" opacity="0.8"/>
<polygon points="19.0,7.505553499465134 20.0,7.505553499465134 19.5,8.371578903249572" fill="#FFA07A" stroke="black" stroke-width="0.05" opacity="0.8"/>
<polygon points="17.5,4.907477288111819 18.5,4.907477288111819 18.0,5.773502691896258" fill="#FFA07A" stroke="black" stroke-width="0.05" opacity="0.8"/>
<polygon points="17.5,8.371578903249572 18.5,8.371578903249572 18.0,9.237604307034012" fill="#FFA07A" stroke="black" stroke-width="0.05" opacity="0.8"/>
<polygon points="17.5,10.103629710818451 18.5,10.103629710818451 18.0,10.96965511460289" fill="#FFA07A" stroke="black" stroke-width="0.05" opacity="0.8"/>
<polygon points="16.0,7.505553499465134 17.0,7.505553499465134 16.5,8.371578903249572" fill="#FFA07A" stroke="black" stroke-width="0.05" opacity="0.8"/>
<polygon points="14.5,8.371578903249572 15.5,8.371578903249572 15.0,9.237604307034012" fill="#FFA07A" stroke="black" stroke-width="0.05" opacity="0.8"/>
<polygon points="-23.0,17.8978583448784 -22.0,17.8978583448784 -22.5,18.76388374866284" fill="#FFA07A" stroke="black" stroke-width="0.05" opacity="0.8"/>
<polygon points="-23.0,16.165807537309522 -22.0,16.165807537309522 -22.5,17.03183294109396" fill="#FFA07A" stroke="black" stroke-width="0.05" opacity="0.8"/>
<polygon points="-21.5,15.299782133525081 -20.5,15.299782133525081 -21.0,16.16580753730952" fill="#FFA07A" stroke="black" stroke-width="0.05" opacity="0.8"/>
<polygon points="-20.0,17.8978583448784 -19.0,17.8978583448784 -19.5,18.76388374866284" fill="#FFA07A" stroke="black" stroke-width="0.05" opacity="0.8"/>
<polygon points="-20.0,16.165807537309522 -19.0,16.165807537309522 -19.5,17.03183294109396" fill="#FFA07A" stroke="black" stroke-width="0.05" opacity="0.8"/>
<polygon points="-18.5,18.76388374866284 -17.5,18.76388374866284 -18.0,19.629909152447276" fill="#FFA07A" stroke="black" stroke-width="0.05" opacity="0.8"/>
<polygon points="-18.5,15.299782133525081 -17.5,15.299782133525081 -18.0,16.16580753730952" fill="#FFA07A" stroke="black" stroke-width="0.05" opacity="0.8"/>
<polygon points="-18.5,13.567731325956204 -17.5,13.567731325956204 -18.0,14.433756729740644" fill="#FFA07A" stroke="black" stroke-width="0.05" opacity="0.8"/>
<polygon points="-17.0,16.165807537309522 -16.0,16.165807537309522 -16.5,17.03183294109396" fill="#FFA07A" stroke="black" stroke-width="0.05" opacity="0.8"/>
<polygon points="-15.5,15.299782133525081 -14.5,15.299782133525081 -15.0,16.16580753730952" fill="#FFA07A" stroke="black" stroke-width="0.05" opacity="0.8"/>
<polygon points="-21.5,8.371578903249572 -20.5,8.371578903249572 -21.0,9.237604307034012" fill="#FFA07A" stroke="black" stroke-width="0.05" opacity="0.8"/>
<polygon points="-20.0,7.505553499465134 -19.0,7.505553499465134 -19.5,8.371578903249572" fill="#FFA07A" stroke="black" stroke-width="0.05" opacity="0.8"/>
<polygon points="-18.5,8.371578903249572 -17.5,8.371578903249572 -18.0,9.237604307034012" fill="#FFA07A" stroke="black" stroke-width="0.05" opacity="0.8"/>
<polygon points="-20.0,10.969655114602888 -19.0,10.969655114602888 -19.5,11.835680518387328" fill="#FFA07A" stroke="black" stroke-width="0.05" opacity="0.8"/>
<polygon points="-18.5,10.103629710818451 -17.5,10.103629710818451 -18.0,10.96965511460289" fill="#FFA07A" stroke="black" stroke-width="0.05" opacity="0.8"/>
<polygon points="-20.0,12.701705922171765 -19.0,12.701705922171765 -19.5,13.567731325956204" fill="#FFA07A" stroke="black" stroke-width="0.05" opacity="0.8"/>
<polygon points="-17.0,10.969655114602888 -16.0,10.969655114602888 -16.5,11.835680518387328" fill="#FFA07A" stroke="black" stroke-width="0.05" opacity="0.8"/>
<polygon points="-15.5,10.103629710818451 -14.5,10.103629710818451 -15.0,10.96965511460289" fill="#FFA07A" stroke="black" stroke-width="0.05" opacity="0.8"/>
<polygon points="-17.0,12.701705922171765 -16.0,12.701705922171765 -16.5,13.567731325956204" fill="#FFA07A" stroke="black" stroke-width="0.05" opacity="0.8"/>
<polygon points="-15.5,13.567731325956204 -14.5,13.567731325956204 -15.0,14.433756729740644" fill="#FFA07A" stroke="black" stroke-width="0.05" opacity="0.8"/>
<polygon points="-9.5,23.96003617136947 -8.5,23.96003617136947 -9.0,24.826061575153908" fill="#FFA07A" stroke="black" stroke-width="0.05" opacity="0.8"/>
<polygon points="-11.0,23.09401076758503 -10.0,23.09401076758503 -10.5,23.960036171369467" fill="#FFA07A" stroke="black" stroke-width="0.05" opacity="0.8"/>
<polygon points="-11.0,21.361959960016154 -10.0,21.361959960016154 -10.5,22.22798536380059" fill="#FFA07A" stroke="black" stroke-width="0.05" opacity="0.8"/>
<polygon points="-8.0,21.361959960016154 -7.0,21.361959960016154 -7.5,22.22798536380059" fill="#FFA07A" stroke="black" stroke-width="0.05" opacity="0.8"/>
<polygon points="-9.5,20.495934556231717 -8.5,20.495934556231717 -9.0,21.361959960016154" fill="#FFA07A" stroke="black" stroke-width="0.05" opacity="0.8"/>
<polygon points="-6.5,20.495934556231717 -5.5,20.495934556231717 -6.0,21.361959960016154" fill="#FFA07A" stroke="black" stroke-width="0.05" opacity="0.8"/>
<polygon points="-9.5,18.76388374866284 -8.5,18.76388374866284 -9.0,19.629909152447276" fill="#FFA07A" stroke="black" stroke-width="0.05" opacity="0.8"/>
<polygon points="-11.0,17.8978583448784 -10.0,17.8978583448784 -10.5,18.76388374866284" fill="#FFA07A" stroke="black" stroke-width="0.05" opacity="0.8"/>
<polygon points="-8.0,17.8978583448784 -7.0,17.8978583448784 -7.5,18.76388374866284" fill="#FFA07A" stroke="black" stroke-width="0.05" opacity="0.8"/>
<polygon points="-8.0,16.165807537309522 -7.0,16.165807537309522 -7.5,17.03183294109396" fill="#FFA07A" stroke="black" stroke-width="0.05" opacity="0.8"/>
<polygon points="-11.0,16.165807537309522 -10.0,16.165807537309522 -10.5,17.03183294109396" fill="#FFA07A" stroke="black" stroke-width="0.05" opacity="0.8"/>
<polygon points="-12.5,15.299782133525081 -11.5,15.299782133525081 -12.0,16.16580753730952" fill="#FFA07A" stroke="black" stroke-width="0.05" opacity="0.8"/>
<polygon points="-14.0,16.165807537309522 -13.0,16.165807537309522 -13.5,17.03183294109396" fill="#FFA07A" stroke="black" stroke-width="0.05" opacity="0.8"/>
<polygon points="-12.5,18.76388374866284 -11.5,18.76388374866284 -12.0,19.629909152447276" fill="#FFA07A" stroke="black" stroke-width="0.05" opacity="0.8"/>
<polygon points="-14.0,17.8978583448784 -13.0,17.8978583448784 -13.5,18.76388374866284" fill="#FFA07A" stroke="black" stroke-width="0.05" opacity="0.8"/>
<polygon points="-12.5,20.495934556231717 -11.5,20.495934556231717 -12.0,21.361959960016154" fill="#FFA07A" stroke="black" stroke-width="0.05" opacity="0.8"/>
<polygon points="-15.5,18.76388374866284 -14.5,18.76388374866284 -15.0,19.629909152447276" fill="#FFA07A" stroke="black" stroke-width="0.05" opacity="0.8"/>
<polygon points="-17.0,17.8978583448784 -16.0,17.8978583448784 -16.5,18.76388374866284" fill="#FFA07A" stroke="black" stroke-width="0.05" opacity="0.8"/>
<polygon points="-15.5,20.495934556231717 -14.5,20.495934556231717 -15.0,21.361959960016154" fill="#FFA07A" stroke="black" stroke-width="0.05" opacity="0.8"/>
<polygon points="-17.0,21.361959960016154 -16.0,21.361959960016154 -16.5,22.22798536380059" fill="#FFA07A" stroke="black" stroke-width="0.05" opacity="0.8"/>
<polygon points="-15.5,-7.216878364870322 -14.5,-7.216878364870322 -15.0,-6.350852961085883" fill="#FFA07A" stroke="black" stroke-width="0.05" opacity="0.8"/>
<polygon points="-17.0,-8.08290376865476 -16.0,-8.08290376865476 -16.5,-7.216878364870322" fill="#FFA07A" stroke="black" stroke-width="0.05" opacity="0.8"/>
<polygon points="-17.0,-9.814954576223638 -16.0,-9.814954576223638 -16.5,-8.948929172439199" fill="#FFA07A" stroke="black" stroke-width="0.05" opacity="0.8"/>
<polygon points="-14.0,-9.814954576223638 -13.0,-9.814954576223638 -13.5,-8.948929172439199" fill="#FFA07A" stroke="black" stroke-width="0.05" opacity="0.8"/>
<polygon points="-15.5,-10.680979980008077 -14.5,-10.680979980008077 -15.0,-9.814954576223638" fill="#FFA07A" stroke="black" stroke-width="0.05" opacity="0.8"/>
<polygon points="-12.5,-10.680979980008077 -11.5,-10.680979980008077 -12.0,-9.814954576223638" fill="#FFA07A" stroke="black" stroke-width="0.05" opacity="0.8"/>
<polygon points="-15.5,-12.413030787576954 -14.5,-12.413030787576954 -15.0,-11.547005383792515" fill="#FFA07A" stroke="black" stroke-width="0.05" opacity="0.8"/>
<polygon points="-17.0,-13.279056191361391 -16.0,-13.279056191361391 -16.5,-12.413030787576952" fill="#FFA07A" stroke="black" stroke-width="0.05" opacity="0.8"/>
<polygon points="-14.0,-13.279056191361391 -13.0,-13.279056191361391 -13.5,-12.413030787576952" fill="#FFA07A" stroke="black" stroke-width="0.05" opacity="0.8"/>
<polygon points="-14.0,-15.01110699893027 -13.0,-15.01110699893027 -13.5,-14.14508159514583" fill="#FFA07A" stroke="black" stroke-width="0.05" opacity="0.8"/>
<polygon points="14.5,-12.413030787576954 15.5,-12.413030787576954 15.0,-11.547005383792515" fill="#FFA07A" stroke="black" stroke-width="0.05" opacity="0.8"/>
<polygon points="14.5,-10.680979980008077 15.5,-10.680979980008077 15.0,-9.814954576223638" fill="#FFA07A" stroke="black" stroke-width="0.05" opacity="0.8"/>
<polygon points="16.0,-9.814954576223638 17.0,-9.814954576223638 16.5,-8.948929172439199" fill="#FFA07A" stroke="black" stroke-width="0.05" opacity="0.8"/>
<polygon points="17.5,-12.413030787576954 18.5,-12.413030787576954 18.0,-11.547005383792515" fill="#FFA07A" stroke="black" stroke-width="0.05" opacity="0.8"/>
<polygon points="17.5,-10.680979980008077 18.5,-10.680979980008077 18.0,-9.814954576223638" fill="#FFA07A" stroke="black" stroke-width="0.05" opacity="0.8"/>
<polygon points="19.0,-13.279056191361391 20.0,-13.279056191361391 19.5,-12.413030787576952" fill="#FFA07A" stroke="black" stroke-width="0.05" opacity="0.8"/>
<polygon points="19.0,-9.814954576223638 20.0,-9.814954576223638 19.5,-8.948929172439199" fill="#FFA07A" stroke="black" stroke-width="0.05" opacity="0.8"/>
<polygon points="19.0,-8.08290376865476 20.0,-8.08290376865476 19.5,-7.216878364870322" fill="#FFA07A" stroke="black" stroke-width="0.05" opacity="0.8"/>
<polygon points="20.5,-10.680979980008077 21.5,-10.680979980008077 21.0,-9.814954576223638" fill="#FFA07A" stroke="black" stroke-width="0.05" opacity="0.8"/>
<polygon points="22.0,-9.814954576223638 23.0,-9.814954576223638 22.5,-8.948929172439199" fill="#FFA07A" stroke="black" stroke-width="0.05" opacity="0.8"/>
<polygon points="-20.0,-13.279056191361391 -19.0,-13.279056191361391 -19.5,-12.413030787576952" fill="#FFA07A" stroke="black" stroke-width="0.05" opacity="0.8"/>
<polygon points="-18.5,-12.413030787576954 -17.5,-12.413030787576954 -18.0,-11.547005383792515" fill="#FFA07A" stroke="black" stroke-width="0.05" opacity="0.8"/>
<polygon points="-18.5,-10.680979980008077 -17.5,-10.680979980008077 -18.0,-9.814954576223638" fill="#FFA07A" stroke="black" stroke-width="0.05" opacity="0.8"/>
<polygon points="-21.5,-10.680979980008077 -20.5,-10.680979980008077 -21.0,-9.814954576223638" fill="#FFA07A" stroke="black" stroke-width="0.05" opacity="0.8"/>
<polygon points="-20.0,-9.814954576223638 -19.0,-9.814954576223638 -19.5,-8.948929172439199" fill="#FFA07A" stroke="black" stroke-width="0.05" opacity="0.8"/>
<polygon points="-23.0,-9.814954576223638 -22.0,-9.814954576223638 -22.5,-8.948929172439199" fill="#FFA07A" stroke="black" stroke-width="0.05" opacity="0.8"/>
<polygon points="-20.0,-8.08290376865476 -19.0,-8.08290376865476 -19.5,-7.216878364870322" fill="#FFA07A" stroke="black" stroke-width="0.05" opacity="0.8"/>
<polygon points="-18.5,-7.216878364870322 -17.5,-7.216878364870322 -18.0,-6.350852961085883" fill="#FFA07A" stroke="black" stroke-width="0.05" opacity="0.8"/>
<polygon points="-21.5,-7.216878364870322 -20.5,-7.216878364870322 -21.0,-6.350852961085883" fill="#FFA07A" stroke="black" stroke-width="0.05" opacity="0.8"/>
<polygon points="-21.5,-5.484827557301445 -20.5,-5.484827557301445 -21.0,-4.618802153517006" fill="#FFA07A" stroke="black" stroke-width="0.05" opacity="0.8"/>
<polygon points="-8.0,-18.475208614068023 -7.0,-18.475208614068023 -7.5,-17.609183210283586" fill="#FFA07A" stroke="black" stroke-width="0.05" opacity="0.8"/>
<polygon points="-8.0,-20.2072594216369 -7.0,-20.2072594216369 -7.5,-19.34123401785246" fill="#FFA07A" stroke="black" stroke-width="0.05" opacity="0.8"/>
<polygon points="-6.5,-21.07328482542134 -5.5,-21.07328482542134 -6.0,-20.207259421636902" fill="#FFA07A" stroke="black" stroke-width="0.05" opacity="0.8"/>
<polygon points="-5.0,-18.475208614068023 -4.0,-18.475208614068023 -4.5,-17.609183210283586" fill="#FFA07A" stroke="black" stroke-width="0.05" opacity="0.8"/>
<polygon points="-5.0,-20.2072594216369 -4.0,-20.2072594216369 -4.5,-19.34123401785246" fill="#FFA07A" stroke="black" stroke-width="0.05" opacity="0.8"/>
<polygon points="-3.5,-17.609183210283582 -2.5,-17.609183210283582 -3.0,-16.743157806499145" fill="#FFA07A" stroke="black" stroke-width="0.05" opacity="0.8"/>
<polygon points="-3.5,-21.07328482542134 -2.5,-21.07328482542134 -3.0,-20.207259421636902" fill="#FFA07A" stroke="black" stroke-width="0.05" opacity="0.8"/>
<polygon points="-3.5,-22.805335632990214 -2.5,-22.805335632990214 -3.0,-21.939310229205777" fill="#FFA07A" stroke="black" stroke-width="0.05" opacity="0.8"/>
<polygon points="-2.0,-20.2072594216369 -1.0,-20.2072594216369 -1.5,-19.34123401785246" fill="#FFA07A" stroke="black" stroke-width="0.05" opacity="0.8"/>
<polygon points="-0.5,-21.07328482542134 0.5,-21.07328482542134 0.0,-20.207259421636902" fill="#FFA07A" stroke="black" stroke-width="0.05" opacity="0.8"/>
<polygon points="1.0,-20.2072594216369 2.0,-20.2072594216369 1.5,-19.34123401785246" fill="#FFA07A" stroke="black" stroke-width="0.05" opacity="0.8"/>
<polygon points="2.5,-21.07328482542134 3.5,-21.07328482542134 3.0,-20.207259421636902" fill="#FFA07A" stroke="black" stroke-width="0.05" opacity="0.8"/>
<polygon points="2.5,-22.805335632990214 3.5,-22.805335632990214 3.0,-21.939310229205777" fill="#FFA07A" stroke="black" stroke-width="0.05" opacity="0.8"/>
<polygon points="-0.5,-22.805335632990214 0.5,-22.805335632990214 0.0,-21.939310229205777" fill="#FFA07A" stroke="black" stroke-width="0.05" opacity="0.8"/>
<polygon points="1.0,-23.671361036774652 2.0,-23.671361036774652 1.5,-22.805335632990214" fill="#FFA07A" stroke="black" stroke-width="0.05" opacity="0.8"/>
<polygon points="-2.0,-23.671361036774652 -1.0,-23.671361036774652 -1.5,-22.805335632990214" fill="#FFA07A" stroke="black" stroke-width="0.05" opacity="0.8"/>
<polygon points="1.0,-25.40341184434353 2.0,-25.40341184434353 1.5,-24.537386440559093" fill="#FFA07A" stroke="black" stroke-width="0.05" opacity="0.8"/>
<polygon points="2.5,-26.269437248127968 3.5,-26.269437248127968 3.0,-25.40341184434353" fill="#FFA07A" stroke="black" stroke-width="0.05" opacity="0.8"/>
<polygon points="-0.5,-26.269437248127968 0.5,-26.269437248127968 0.0,-25.40341184434353" fill="#FFA07A" stroke="black" stroke-width="0.05" opacity="0.8"/>
<polygon points="-0.5,-28.001488055696846 0.5,-28.001488055696846 0.0,-27.13546265191241" fill="#FFA07A" stroke="black" stroke-width="0.05" opacity="0.8"/>
<polygon points="-11.0,-28.867513459481284 -10.0,-28.867513459481284 -10.5,-28.001488055696846" fill="#FFA07A" stroke="black" stroke-width="0.05" opacity="0.8"/>
<polygon points="-12.5,-28.001488055696846 -11.5,-28.001488055696846 -12.0,-27.13546265191241" fill="#FFA07A" stroke="black" stroke-width="0.05" opacity="0.8"/>
<polygon points="-12.5,-26.269437248127968 -11.5,-26.269437248127968 -12.0,-25.40341184434353" fill="#FFA07A" stroke="black" stroke-width="0.05" opacity="0.8"/>
<polygon points="-9.5,-26.269437248127968 -8.5,-26.269437248127968 -9.0,-25.40341184434353" fill="#FFA07A" stroke="black" stroke-width="0.05" opacity="0.8"/>
<polygon points="-11.0,-25.40341184434353 -10.0,-25.40341184434353 -10.5,-24.537386440559093" fill="#FFA07A" stroke="black" stroke-width="0.05" opacity="0.8"/>
<polygon points="-8.0,-25.40341184434353 -7.0,-25.40341184434353 -7.5,-24.537386440559093" fill="#FFA07A" stroke="black" stroke-width="0.05" opacity="0.8"/>
<polygon points="-11.0,-23.671361036774652 -10.0,-23.671361036774652 -10.5,-22.805335632990214" fill="#FFA07A" stroke="black" stroke-width="0.05" opacity="0.8"/>
<polygon points="-12.5,-22.805335632990214 -11.5,-22.805335632990214 -12.0,-21.939310229205777" fill="#FFA07A" stroke="black" stroke-width="0.05" opacity="0.8"/>
<polygon points="-9.5,-22.805335632990214 -8.5,-22.805335632990214 -9.0,-21.939310229205777" fill="#FFA07A" stroke="black" stroke-width="0.05" opacity="0.8"/>
<polygon points="-9.5,-21.07328482542134 -8.5,-21.07328482542134 -9.0,-20.207259421636902" fill="#FFA07A" stroke="black" stroke-width="0.05" opacity="0.8"/>
<polygon points="-14.0,-23.671361036774652 -13.0,-23.671361036774652 -13.5,-22.805335632990214" fill="#FFA07A" stroke="black" stroke-width="0.05" opacity="0.8"/>
<polygon points="-15.5,-22.805335632990214 -14.5,-22.805335632990214 -15.0,-21.939310229205777" fill="#FFA07A" stroke="black" stroke-width="0.05" opacity="0.8"/>
<polygon points="-15.5,-21.07328482542134 -14.5,-21.07328482542134 -15.0,-20.207259421636902" fill="#FFA07A" stroke="black" stroke-width="0.05" opacity="0.8"/>
<polygon points="-12.5,-21.07328482542134 -11.5,-21.07328482542134 -12.0,-20.207259421636902" fill="#FFA07A" stroke="black" stroke-width="0.05" opacity="0.8"/>
<polygon points="-14.0,-20.2072594216369 -13.0,-20.2072594216369 -13.5,-19.34123401785246" fill="#FFA07A" stroke="black" stroke-width="0.05" opacity="0.8"/>
<polygon points="-11.0,-20.2072594216369 -10.0,-20.2072594216369 -10.5,-19.34123401785246" fill="#FFA07A" stroke="black" stroke-width="0.05" opacity="0.8"/>
<polygon points="-14.0,-18.475208614068023 -13.0,-18.475208614068023 -13.5,-17.609183210283586" fill="#FFA07A" stroke="black" stroke-width="0.05" opacity="0.8"/>
<polygon points="-15.5,-17.609183210283582 -14.5,-17.609183210283582 -15.0,-16.743157806499145" fill="#FFA07A" stroke="black" stroke-width="0.05" opacity="0.8"/>
<polygon points="-12.5,-17.609183210283582 -11.5,-17.609183210283582 -12.0,-16.743157806499145" fill="#FFA07A" stroke="black" stroke-width="0.05" opacity="0.8"/>
<polygon points="-12.5,-15.877132402714707 -11.5,-15.877132402714707 -12.0,-15.011106998930268" fill="#FFA07A" stroke="black" stroke-width="0.05" opacity="0.8"/>
</g>
</svg>