<?xml version="1.0" encoding="UTF-8"?>
<svg xmlns="http://www.w3.org/2000/svg" xmlns:xlink="http://www.w3.org/1999/xlink" width="800" height="800" viewBox="0 0 800 800">
<rect x="-80" y="-80" width="960" height="960" fill="rgb(100%, 100%, 100%)" fill-opacity="1"/>
<path fill-rule="nonzero" fill="rgb(100%, 100%, 40%)" fill-opacity="1" stroke-width="0.0799408" stroke-linecap="butt" stroke-linejoin="miter" stroke="rgb(0%, 0%, 0%)" stroke-opacity="1" stroke-miterlimit="10" d="M 4.499897 -0.866025 L 1.49993 -0.866025 L 3.00007 1.732051 L 1.49993 4.330127 L 0.000103473 1.732051 L -2.999863 1.732051 L -1.500036 -0.866025 L -2.999863 -3.464102 L -1.500036 -6.062178 L 1.49993 -6.062178 L 0.000103473 -3.464102 L 3.00007 -3.464102 Z M 4.499897 -0.866025 " transform="matrix(12.509256, 0, 0, 12.509256, 371.854174, 410.833333)"/>
<path fill-rule="nonzero" fill="rgb(80%, 80%, 80%)" fill-opacity="1" stroke-width="0.0799408" stroke-linecap="butt" stroke-linejoin="miter" stroke="rgb(0%, 0%, 0%)" stroke-opacity="1" stroke-miterlimit="10" d="M -1.500036 4.330127 L 0.000103473 6.928203 L 1.49993 4.330127 L 4.499897 4.330127 L 3.00007 6.928203 L 4.499897 9.526279 L 1.49993 9.526279 L 0.000103473 12.124356 L -2.999863 12.124356 L -4.500002 9.526279 L -1.500036 9.526279 L -2.999863 6.928203 Z M -1.500036 4.330127 " transform="matrix(12.509256, 0, 0, 12.509256, 371.854174, 410.833333)"/>
<path fill-rule="nonzero" fill="rgb(80%, 80%, 80%)" fill-opacity="1" stroke-width="0.0799408" stroke-linecap="butt" stroke-linejoin="miter" stroke="rgb(0%, 0%, 0%)" stroke-opacity="1" stroke-miterlimit="10" d="M 7.499863 -11.25833 L 4.499897 -11.25833 L 6.000036 -13.856406 L 4.499897 -16.454483 L 3.00007 -13.856406 L 0.000103473 -13.856406 L 1.49993 -11.25833 L 0.000103473 -8.660254 L 1.49993 -6.062178 L 4.499897 -6.062178 L 3.00007 -8.660254 L 6.000036 -8.660254 Z M 7.499863 -11.25833 " transform="matrix(12.509256, 0, 0, 12.509256, 371.854174, 410.833333)"/>
<path fill-rule="nonzero" fill="rgb(80%, 80%, 80%)" fill-opacity="1" stroke-width="0.0799408" stroke-linecap="butt" stroke-linejoin="miter" stroke="rgb(0%, 0%, 0%)" stroke-opacity="1" stroke-miterlimit="10" d="M -9.000107 1.732051 L -7.499968 -0.866025 L -10.499934 -0.866025 L -12.000073 -3.464102 L -9.000107 -3.464102 L -7.499968 -6.062178 L -6.000141 -3.464102 L -2.999863 -3.464102 L -1.500036 -0.866025 L -2.999863 1.732051 L -4.500002 -0.866025 L -6.000141 1.732051 Z M -9.000107 1.732051 " transform="matrix(12.509256, 0, 0, 12.509256, 371.854174, 410.833333)"/>
<path fill-rule="nonzero" fill="rgb(80%, 80%, 80%)" fill-opacity="1" stroke-width="0.0799408" stroke-linecap="butt" stroke-linejoin="miter" stroke="rgb(0%, 0%, 0%)" stroke-opacity="1" stroke-miterlimit="10" d="M -4.500002 -11.25833 L -2.999863 -8.660254 L -1.500036 -11.25833 L 1.49993 -11.25833 L 0.000103473 -8.660254 L 1.49993 -6.062178 L -1.500036 -6.062178 L -2.999863 -3.464102 L -6.000141 -3.464102 L -7.499968 -6.062178 L -4.500002 -6.062178 L -6.000141 -8.660254 Z M -4.500002 -11.25833 " transform="matrix(12.509256, 0, 0, 12.509256, 371.854174, 410.833333)"/>
<path fill-rule="nonzero" fill="rgb(80%, 80%, 80%)" fill-opacity="1" stroke-width="0.0799408" stroke-linecap="butt" stroke-linejoin="miter" stroke="rgb(0%, 0%, 0%)" stroke-opacity="1" stroke-miterlimit="10" d="M 3.00007 -8.660254 L 4.499897 -6.062178 L 1.49993 -6.062178 L 0.000103473 -3.464102 L 3.00007 -3.464102 L 4.499897 -0.866025 L 6.000036 -3.464102 L 9.000002 -3.464102 L 10.500141 -6.062178 L 9.000002 -8.660254 L 7.499863 -6.062178 L 6.000036 -8.660254 Z M 3.00007 -8.660254 " transform="matrix(12.509256, 0, 0, 12.509256, 371.854174, 410.833333)"/>
<path fill-rule="nonzero" fill="rgb(80%, 80%, 80%)" fill-opacity="1" stroke-width="0.0799408" stroke-linecap="butt" stroke-linejoin="miter" stroke="rgb(0%, 0%, 0%)" stroke-opacity="1" stroke-miterlimit="10" d="M 7.499863 4.330127 L 6.000036 1.732051 L 4.499897 4.330127 L 1.49993 4.330127 L 3.00007 1.732051 L 1.49993 -0.866025 L 4.499897 -0.866025 L 6.000036 -3.464102 L 9.000002 -3.464102 L 10.500141 -0.866025 L 7.499863 -0.866025 L 9.000002 1.732051 Z M 7.499863 4.330127 " transform="matrix(12.509256, 0, 0, 12.509256, 371.854174, 410.833333)"/>
<path fill-rule="nonzero" fill="rgb(80%, 80%, 80%)" fill-opacity="1" stroke-width="0.0799408" stroke-linecap="butt" stroke-linejoin="miter" stroke="rgb(0%, 0%, 0%)" stroke-opacity="1" stroke-miterlimit="10" d="M -6.000141 6.928203 L -4.500002 4.330127 L -7.499968 4.330127 L -9.000107 1.732051 L -6.000141 1.732051 L -4.500002 -0.866025 L -2.999863 1.732051 L 0.000103473 1.732051 L 1.49993 4.330127 L 0.000103473 6.928203 L -1.500036 4.330127 L -2.999863 6.928203 Z M -6.000141 6.928203 " transform="matrix(12.509256, 0, 0, 12.509256, 371.854174, 410.833333)"/>
<path fill-rule="nonzero" fill="rgb(80%, 80%, 80%)" fill-opacity="1" stroke-width="0.0799408" stroke-linecap="butt" stroke-linejoin="miter" stroke="rgb(0%, 0%, 0%)" stroke-opacity="1" stroke-miterlimit="10" d="M 14.999934 6.928203 L 13.500107 9.526279 L 16.500073 9.526279 L 17.9999 12.124356 L 14.999934 12.124356 L 13.500107 14.722432 L 11.999968 12.124356 L 9.000002 12.124356 L 7.499863 9.526279 L 9.000002 6.928203 L 10.500141 9.526279 L 11.999968 6.928203 Z M 14.999934 6.928203 " transform="matrix(12.509256, 0, 0, 12.509256, 371.854174, 410.833333)"/>
<path fill-rule="nonzero" fill="rgb(50%, 50%, 50%)" fill-opacity="1" stroke-width="0.0799408" stroke-linecap="butt" stroke-linejoin="miter" stroke="rgb(0%, 0%, 0%)" stroke-opacity="1" stroke-miterlimit="10" d="M -1.500036 19.918584 L -2.999863 17.320508 L -4.500002 19.918584 L -7.499968 19.918584 L -6.000141 17.320508 L -7.499968 14.722432 L -4.500002 14.722432 L -2.999863 12.124356 L 0.000103473 12.124356 L 1.49993 14.722432 L -1.500036 14.722432 L 0.000103473 17.320508 Z M -1.500036 19.918584 " transform="matrix(12.509256, 0, 0, 12.509256, 371.854174, 410.833333)"/>
<path fill-rule="nonzero" fill="rgb(50%, 50%, 50%)" fill-opacity="1" stroke-width="0.0799408" stroke-linecap="butt" stroke-linejoin="miter" stroke="rgb(0%, 0%, 0%)" stroke-opacity="1" stroke-miterlimit="10" d="M -1.500036 14.722432 L 1.49993 14.722432 L 0.000103473 12.124356 L 1.49993 9.526279 L 3.00007 12.124356 L 6.000036 12.124356 L 4.499897 14.722432 L 6.000036 17.320508 L 4.499897 19.918584 L 1.49993 19.918584 L 3.00007 17.320508 L 0.000103473 17.320508 Z M -1.500036 14.722432 " transform="matrix(12.509256, 0, 0, 12.509256, 371.854174, 410.833333)"/>
<path fill-rule="nonzero" fill="rgb(50%, 50%, 50%)" fill-opacity="1" stroke-width="0.0799408" stroke-linecap="butt" stroke-linejoin="miter" stroke="rgb(0%, 0%, 0%)" stroke-opacity="1" stroke-miterlimit="10" d="M 1.49993 9.526279 L 4.499897 9.526279 L 3.00007 6.928203 L 4.499897 4.330127 L 6.000036 6.928203 L 9.000002 6.928203 L 7.499863 9.526279 L 9.000002 12.124356 L 7.499863 14.722432 L 4.499897 14.722432 L 6.000036 12.124356 L 3.00007 12.124356 Z M 1.49993 9.526279 " transform="matrix(12.509256, 0, 0, 12.509256, 371.854174, 410.833333)"/>
<path fill-rule="nonzero" fill="rgb(50%, 50%, 50%)" fill-opacity="1" stroke-width="0.0799408" stroke-linecap="butt" stroke-linejoin="miter" stroke="rgb(0%, 0%, 0%)" stroke-opacity="1" stroke-miterlimit="10" d="M 11.999968 1.732051 L 10.500141 4.330127 L 13.500107 4.330127 L 14.999934 6.928203 L 11.999968 6.928203 L 10.500141 9.526279 L 9.000002 6.928203 L 6.000036 6.928203 L 4.499897 4.330127 L 6.000036 1.732051 L 7.499863 4.330127 L 9.000002 1.732051 Z M 11.999968 1.732051 " transform="matrix(12.509256, 0, 0, 12.509256, 371.854174, 410.833333)"/>
<path fill-rule="nonzero" fill="rgb(50%, 50%, 50%)" fill-opacity="1" stroke-width="0.0799408" stroke-linecap="butt" stroke-linejoin="miter" stroke="rgb(0%, 0%, 0%)" stroke-opacity="1" stroke-miterlimit="10" d="M -1.500036 9.526279 L -4.500002 9.526279 L -2.999863 12.124356 L -4.500002 14.722432 L -6.000141 12.124356 L -9.000107 12.124356 L -7.499968 9.526279 L -9.000107 6.928203 L -7.499968 4.330127 L -4.500002 4.330127 L -6.000141 6.928203 L -2.999863 6.928203 Z M -1.500036 9.526279 " transform="matrix(12.509256, 0, 0, 12.509256, 371.854174, 410.833333)"/>
<path fill-rule="nonzero" fill="rgb(80%, 80%, 80%)" fill-opacity="1" stroke-width="0.0799408" stroke-linecap="butt" stroke-linejoin="miter" stroke="rgb(0%, 0%, 0%)" stroke-opacity="1" stroke-miterlimit="10" d="M -4.500002 14.722432 L -7.499968 14.722432 L -6.000141 17.320508 L -7.499968 19.918584 L -9.000107 17.320508 L -12.000073 17.320508 L -10.499934 14.722432 L -12.000073 12.124356 L -10.499934 9.526279 L -7.499968 9.526279 L -9.000107 12.124356 L -6.000141 12.124356 Z M -4.500002 14.722432 " transform="matrix(12.509256, 0, 0, 12.509256, 371.854174, 410.833333)"/>
<path fill-rule="nonzero" fill="rgb(50%, 50%, 50%)" fill-opacity="1" stroke-width="0.0799408" stroke-linecap="butt" stroke-linejoin="miter" stroke="rgb(0%, 0%, 0%)" stroke-opacity="1" stroke-miterlimit="10" d="M -15.000039 1.732051 L -12.000073 1.732051 L -13.4999 -0.866025 L -12.000073 -3.464102 L -10.499934 -0.866025 L -7.499968 -0.866025 L -9.000107 1.732051 L -7.499968 4.330127 L -9.000107 6.928203 L -12.000073 6.928203 L -10.499934 4.330127 L -13.4999 4.330127 Z M -15.000039 1.732051 " transform="matrix(12.509256, 0, 0, 12.509256, 371.854174, 410.833333)"/>
<path fill-rule="nonzero" fill="rgb(80%, 80%, 80%)" fill-opacity="1" stroke-width="0.0799408" stroke-linecap="butt" stroke-linejoin="miter" stroke="rgb(0%, 0%, 0%)" stroke-opacity="1" stroke-miterlimit="10" d="M -10.499934 4.330127 L -12.000073 6.928203 L -9.000107 6.928203 L -7.499968 9.526279 L -10.499934 9.526279 L -12.000073 12.124356 L -13.4999 9.526279 L -16.499866 9.526279 L -18.000006 6.928203 L -16.499866 4.330127 L -15.000039 6.928203 L -13.4999 4.330127 Z M -10.499934 4.330127 " transform="matrix(12.509256, 0, 0, 12.509256, 371.854174, 410.833333)"/>
<path fill-rule="nonzero" fill="rgb(80%, 80%, 80%)" fill-opacity="1" stroke-width="0.0799408" stroke-linecap="butt" stroke-linejoin="miter" stroke="rgb(0%, 0%, 0%)" stroke-opacity="1" stroke-miterlimit="10" d="M -15.000039 6.928203 L -16.499866 4.330127 L -18.000006 6.928203 L -20.999972 6.928203 L -19.500145 4.330127 L -20.999972 1.732051 L -18.000006 1.732051 L -16.499866 -0.866025 L -13.4999 -0.866025 L -12.000073 1.732051 L -15.000039 1.732051 L -13.4999 4.330127 Z M -15.000039 6.928203 " transform="matrix(12.509256, 0, 0, 12.509256, 371.854174, 410.833333)"/>
<path fill-rule="nonzero" fill="rgb(50%, 50%, 50%)" fill-opacity="1" stroke-width="0.0799408" stroke-linecap="butt" stroke-linejoin="miter" stroke="rgb(0%, 0%, 0%)" stroke-opacity="1" stroke-miterlimit="10" d="M 6.000036 -13.856406 L 4.499897 -16.454483 L 3.00007 -13.856406 L 0.000103473 -13.856406 L 1.49993 -16.454483 L 0.000103473 -19.052559 L 3.00007 -19.052559 L 4.499897 -21.650635 L 7.499863 -21.650635 L 9.000002 -19.052559 L 6.000036 -19.052559 L 7.499863 -16.454483 Z M 6.000036 -13.856406 " transform="matrix(12.509256, 0, 0, 12.509256, 371.854174, 410.833333)"/>
<path fill-rule="nonzero" fill="rgb(50%, 50%, 50%)" fill-opacity="1" stroke-width="0.0799408" stroke-linecap="butt" stroke-linejoin="miter" stroke="rgb(0%, 0%, 0%)" stroke-opacity="1" stroke-miterlimit="10" d="M -6.000141 -19.052559 L -2.999863 -19.052559 L -4.500002 -21.650635 L -2.999863 -24.248711 L -1.500036 -21.650635 L 1.49993 -21.650635 L 0.000103473 -19.052559 L 1.49993 -16.454483 L 0.000103473 -13.856406 L -2.999863 -13.856406 L -1.500036 -16.454483 L -4.500002 -16.454483 Z M -6.000141 -19.052559 " transform="matrix(12.509256, 0, 0, 12.509256, 371.854174, 410.833333)"/>
<path fill-rule="nonzero" fill="rgb(50%, 50%, 50%)" fill-opacity="1" stroke-width="0.0799408" stroke-linecap="butt" stroke-linejoin="miter" stroke="rgb(0%, 0%, 0%)" stroke-opacity="1" stroke-miterlimit="10" d="M -1.500036 -16.454483 L -2.999863 -13.856406 L 0.000103473 -13.856406 L 1.49993 -11.25833 L -1.500036 -11.25833 L -2.999863 -8.660254 L -4.500002 -11.25833 L -7.499968 -11.25833 L -9.000107 -13.856406 L -7.499968 -16.454483 L -6.000141 -13.856406 L -4.500002 -16.454483 Z M -1.500036 -16.454483 " transform="matrix(12.509256, 0, 0, 12.509256, 371.854174, 410.833333)"/>
<path fill-rule="nonzero" fill="rgb(50%, 50%, 50%)" fill-opacity="1" stroke-width="0.0799408" stroke-linecap="butt" stroke-linejoin="miter" stroke="rgb(0%, 0%, 0%)" stroke-opacity="1" stroke-miterlimit="10" d="M 11.999968 -13.856406 L 10.500141 -16.454483 L 9.000002 -13.856406 L 6.000036 -13.856406 L 7.499863 -16.454483 L 6.000036 -19.052559 L 9.000002 -19.052559 L 10.500141 -21.650635 L 13.500107 -21.650635 L 14.999934 -19.052559 L 11.999968 -19.052559 L 13.500107 -16.454483 Z M 11.999968 -13.856406 " transform="matrix(12.509256, 0, 0, 12.509256, 371.854174, 410.833333)"/>
<path fill-rule="nonzero" fill="rgb(50%, 50%, 50%)" fill-opacity="1" stroke-width="0.0799408" stroke-linecap="butt" stroke-linejoin="miter" stroke="rgb(0%, 0%, 0%)" stroke-opacity="1" stroke-miterlimit="10" d="M 7.499863 -6.062178 L 9.000002 -8.660254 L 10.500141 -6.062178 L 13.500107 -6.062178 L 11.999968 -8.660254 L 13.500107 -11.25833 L 10.500141 -11.25833 L 9.000002 -13.856406 L 6.000036 -13.856406 L 4.499897 -11.25833 L 7.499863 -11.25833 L 6.000036 -8.660254 Z M 7.499863 -6.062178 " transform="matrix(12.509256, 0, 0, 12.509256, 371.854174, 410.833333)"/>
<path fill-rule="nonzero" fill="rgb(50%, 50%, 50%)" fill-opacity="1" stroke-width="0.0799408" stroke-linecap="butt" stroke-linejoin="miter" stroke="rgb(0%, 0%, 0%)" stroke-opacity="1" stroke-miterlimit="10" d="M -10.499934 -6.062178 L -13.4999 -6.062178 L -12.000073 -3.464102 L -13.4999 -0.866025 L -15.000039 -3.464102 L -18.000006 -3.464102 L -16.499866 -6.062178 L -18.000006 -8.660254 L -16.499866 -11.25833 L -13.4999 -11.25833 L -15.000039 -8.660254 L -12.000073 -8.660254 Z M -10.499934 -6.062178 " transform="matrix(12.509256, 0, 0, 12.509256, 371.854174, 410.833333)"/>
<path fill-rule="nonzero" fill="rgb(50%, 50%, 50%)" fill-opacity="1" stroke-width="0.0799408" stroke-linecap="butt" stroke-linejoin="miter" stroke="rgb(0%, 0%, 0%)" stroke-opacity="1" stroke-miterlimit="10" d="M -10.499934 -11.25833 L -9.000107 -8.660254 L -7.499968 -11.25833 L -4.500002 -11.25833 L -6.000141 -8.660254 L -4.500002 -6.062178 L -7.499968 -6.062178 L -9.000107 -3.464102 L -12.000073 -3.464102 L -13.4999 -6.062178 L -10.499934 -6.062178 L -12.000073 -8.660254 Z M -10.499934 -11.25833 " transform="matrix(12.509256, 0, 0, 12.509256, 371.854174, 410.833333)"/>
<path fill-rule="nonzero" fill="rgb(80%, 80%, 80%)" fill-opacity="1" stroke-width="0.0799408" stroke-linecap="butt" stroke-linejoin="miter" stroke="rgb(0%, 0%, 0%)" stroke-opacity="1" stroke-miterlimit="10" d="M -15.000039 -8.660254 L -13.4999 -11.25833 L -16.499866 -11.25833 L -18.000006 -13.856406 L -15.000039 -13.856406 L -13.4999 -16.454483 L -12.000073 -13.856406 L -9.000107 -13.856406 L -7.499968 -11.25833 L -9.000107 -8.660254 L -10.499934 -11.25833 L -12.000073 -8.660254 Z M -15.000039 -8.660254 " transform="matrix(12.509256, 0, 0, 12.509256, 371.854174, 410.833333)"/>
<path fill-rule="nonzero" fill="rgb(50%, 50%, 50%)" fill-opacity="1" stroke-width="0.0799408" stroke-linecap="butt" stroke-linejoin="miter" stroke="rgb(0%, 0%, 0%)" stroke-opacity="1" stroke-miterlimit="10" d="M 7.499863 -0.866025 L 10.500141 -0.866025 L 9.000002 -3.464102 L 10.500141 -6.062178 L 11.999968 -3.464102 L 14.999934 -3.464102 L 13.500107 -0.866025 L 14.999934 1.732051 L 13.500107 4.330127 L 10.500141 4.330127 L 11.999968 1.732051 L 9.000002 1.732051 Z M 7.499863 -0.866025 " transform="matrix(12.509256, 0, 0, 12.509256, 371.854174, 410.833333)"/>
<path fill-rule="nonzero" fill="rgb(80%, 80%, 80%)" fill-opacity="1" stroke-width="0.0799408" stroke-linecap="butt" stroke-linejoin="miter" stroke="rgb(0%, 0%, 0%)" stroke-opacity="1" stroke-miterlimit="10" d="M -16.499866 -6.062178 L -18.000006 -3.464102 L -15.000039 -3.464102 L -13.4999 -0.866025 L -16.499866 -0.866025 L -18.000006 1.732051 L -19.500145 -0.866025 L -22.500111 -0.866025 L -23.999938 -3.464102 L -22.500111 -6.062178 L -20.999972 -3.464102 L -19.500145 -6.062178 Z M -16.499866 -6.062178 " transform="matrix(12.509256, 0, 0, 12.509256, 371.854174, 410.833333)"/>
<path fill-rule="nonzero" fill="rgb(50%, 50%, 50%)" fill-opacity="1" stroke-width="0.0799408" stroke-linecap="butt" stroke-linejoin="miter" stroke="rgb(0%, 0%, 0%)" stroke-opacity="1" stroke-miterlimit="10" d="M 10.500141 -6.062178 L 13.500107 -6.062178 L 11.999968 -8.660254 L 13.500107 -11.25833 L 14.999934 -8.660254 L 17.9999 -8.660254 L 16.500073 -6.062178 L 17.9999 -3.464102 L 16.500073 -0.866025 L 13.500107 -0.866025 L 14.999934 -3.464102 L 11.999968 -3.464102 Z M 10.500141 -6.062178 " transform="matrix(12.509256, 0, 0, 12.509256, 371.854174, 410.833333)"/>
<path fill-rule="nonzero" fill="rgb(80%, 80%, 80%)" fill-opacity="1" stroke-width="0.0799408" stroke-linecap="butt" stroke-linejoin="miter" stroke="rgb(0%, 0%, 0%)" stroke-opacity="1" stroke-miterlimit="10" d="M 20.999866 1.732051 L 17.9999 1.732051 L 19.500039 -0.866025 L 17.9999 -3.464102 L 16.500073 -0.866025 L 13.500107 -0.866025 L 14.999934 1.732051 L 13.500107 4.330127 L 14.999934 6.928203 L 17.9999 6.928203 L 16.500073 4.330127 L 19.500039 4.330127 Z M 20.999866 1.732051 " transform="matrix(12.509256, 0, 0, 12.509256, 371.854174, 410.833333)"/>
<path fill-rule="nonzero" fill="rgb(80%, 80%, 80%)" fill-opacity="1" stroke-width="0.0799408" stroke-linecap="butt" stroke-linejoin="miter" stroke="rgb(0%, 0%, 0%)" stroke-opacity="1" stroke-miterlimit="10" d="M 10.500141 19.918584 L 9.000002 17.320508 L 7.499863 19.918584 L 4.499897 19.918584 L 6.000036 17.320508 L 4.499897 14.722432 L 7.499863 14.722432 L 9.000002 12.124356 L 11.999968 12.124356 L 13.500107 14.722432 L 10.500141 14.722432 L 11.999968 17.320508 Z M 10.500141 19.918584 " transform="matrix(12.509256, 0, 0, 12.509256, 371.854174, 410.833333)"/>
<path fill-rule="nonzero" fill="rgb(80%, 80%, 80%)" fill-opacity="1" stroke-width="0.0799408" stroke-linecap="butt" stroke-linejoin="miter" stroke="rgb(0%, 0%, 0%)" stroke-opacity="1" stroke-miterlimit="10" d="M 16.500073 4.330127 L 17.9999 6.928203 L 14.999934 6.928203 L 13.500107 9.526279 L 16.500073 9.526279 L 17.9999 12.124356 L 19.500039 9.526279 L 22.500006 9.526279 L 24.000145 6.928203 L 22.500006 4.330127 L 20.999866 6.928203 L 19.500039 4.330127 Z M 16.500073 4.330127 " transform="matrix(12.509256, 0, 0, 12.509256, 371.854174, 410.833333)"/>
<path fill-rule="nonzero" fill="rgb(80%, 80%, 80%)" fill-opacity="1" stroke-width="0.0799408" stroke-linecap="butt" stroke-linejoin="miter" stroke="rgb(0%, 0%, 0%)" stroke-opacity="1" stroke-miterlimit="10" d="M 25.499972 -0.866025 L 24.000145 -3.464102 L 27.000111 -3.464102 L 28.499938 -6.062178 L 25.499972 -6.062178 L 24.000145 -8.660254 L 22.500006 -6.062178 L 19.500039 -6.062178 L 17.9999 -3.464102 L 19.500039 -0.866025 L 20.999866 -3.464102 L 22.500006 -0.866025 Z M 25.499972 -0.866025 " transform="matrix(12.509256, 0, 0, 12.509256, 371.854174, 410.833333)"/>
<path fill-rule="nonzero" fill="rgb(80%, 80%, 80%)" fill-opacity="1" stroke-width="0.0799408" stroke-linecap="butt" stroke-linejoin="miter" stroke="rgb(0%, 0%, 0%)" stroke-opacity="1" stroke-miterlimit="10" d="M 3.00007 17.320508 L 1.49993 19.918584 L 4.499897 19.918584 L 6.000036 22.51666 L 3.00007 22.51666 L 1.49993 25.114737 L 0.000103473 22.51666 L -2.999863 22.51666 L -4.500002 19.918584 L -2.999863 17.320508 L -1.500036 19.918584 L 0.000103473 17.320508 Z M 3.00007 17.320508 " transform="matrix(12.509256, 0, 0, 12.509256, 371.854174, 410.833333)"/>
<path fill-rule="nonzero" fill="rgb(80%, 80%, 80%)" fill-opacity="1" stroke-width="0.0799408" stroke-linecap="butt" stroke-linejoin="miter" stroke="rgb(0%, 0%, 0%)" stroke-opacity="1" stroke-miterlimit="10" d="M -7.499968 25.114737 L -4.500002 25.114737 L -6.000141 22.51666 L -4.500002 19.918584 L -2.999863 22.51666 L 0.000103473 22.51666 L -1.500036 25.114737 L 0.000103473 27.712813 L -1.500036 30.310889 L -4.500002 30.310889 L -2.999863 27.712813 L -6.000141 27.712813 Z M -7.499968 25.114737 " transform="matrix(12.509256, 0, 0, 12.509256, 371.854174, 410.833333)"/>
<path fill-rule="nonzero" fill="rgb(80%, 80%, 80%)" fill-opacity="1" stroke-width="0.0799408" stroke-linecap="butt" stroke-linejoin="miter" stroke="rgb(0%, 0%, 0%)" stroke-opacity="1" stroke-miterlimit="10" d="M -10.499934 25.114737 L -9.000107 22.51666 L -7.499968 25.114737 L -4.500002 25.114737 L -6.000141 22.51666 L -4.500002 19.918584 L -7.499968 19.918584 L -9.000107 17.320508 L -12.000073 17.320508 L -13.4999 19.918584 L -10.499934 19.918584 L -12.000073 22.51666 Z M -10.499934 25.114737 " transform="matrix(12.509256, 0, 0, 12.509256, 371.854174, 410.833333)"/>
<path fill-rule="nonzero" fill="rgb(80%, 80%, 80%)" fill-opacity="1" stroke-width="0.0799408" stroke-linecap="butt" stroke-linejoin="miter" stroke="rgb(0%, 0%, 0%)" stroke-opacity="1" stroke-miterlimit="10" d="M 1.49993 25.114737 L 4.499897 25.114737 L 3.00007 27.712813 L 4.499897 30.310889 L 6.000036 27.712813 L 9.000002 27.712813 L 7.499863 25.114737 L 9.000002 22.51666 L 7.499863 19.918584 L 4.499897 19.918584 L 6.000036 22.51666 L 3.00007 22.51666 Z M 1.49993 25.114737 " transform="matrix(12.509256, 0, 0, 12.509256, 371.854174, 410.833333)"/>
<path fill-rule="nonzero" fill="rgb(80%, 80%, 80%)" fill-opacity="1" stroke-width="0.0799408" stroke-linecap="butt" stroke-linejoin="miter" stroke="rgb(0%, 0%, 0%)" stroke-opacity="1" stroke-miterlimit="10" d="M 14.999934 -8.660254 L 17.9999 -8.660254 L 16.500073 -6.062178 L 17.9999 -3.464102 L 19.500039 -6.062178 L 22.500006 -6.062178 L 20.999866 -8.660254 L 22.500006 -11.25833 L 20.999866 -13.856406 L 17.9999 -13.856406 L 19.500039 -11.25833 L 16.500073 -11.25833 Z M 14.999934 -8.660254 " transform="matrix(12.509256, 0, 0, 12.509256, 371.854174, 410.833333)"/>
<path fill-rule="nonzero" fill="rgb(80%, 80%, 80%)" fill-opacity="1" stroke-width="0.0799408" stroke-linecap="butt" stroke-linejoin="miter" stroke="rgb(0%, 0%, 0%)" stroke-opacity="1" stroke-miterlimit="10" d="M 16.500073 -16.454483 L 14.999934 -13.856406 L 17.9999 -13.856406 L 19.500039 -11.25833 L 16.500073 -11.25833 L 14.999934 -8.660254 L 13.500107 -11.25833 L 10.500141 -11.25833 L 9.000002 -13.856406 L 10.500141 -16.454483 L 11.999968 -13.856406 L 13.500107 -16.454483 Z M 16.500073 -16.454483 " transform="matrix(12.509256, 0, 0, 12.509256, 371.854174, 410.833333)"/>
<path fill-rule="nonzero" fill="rgb(80%, 80%, 80%)" fill-opacity="1" stroke-width="0.0799408" stroke-linecap="butt" stroke-linejoin="miter" stroke="rgb(0%, 0%, 0%)" stroke-opacity="1" stroke-miterlimit="10" d="M -23.999938 -8.660254 L -20.999972 -8.660254 L -22.500111 -6.062178 L -20.999972 -3.464102 L -19.500145 -6.062178 L -16.499866 -6.062178 L -18.000006 -8.660254 L -16.499866 -11.25833 L -18.000006 -13.856406 L -20.999972 -13.856406 L -19.500145 -11.25833 L -22.500111 -11.25833 Z M -23.999938 -8.660254 " transform="matrix(12.509256, 0, 0, 12.509256, 371.854174, 410.833333)"/>
<path fill-rule="nonzero" fill="rgb(80%, 80%, 80%)" fill-opacity="1" stroke-width="0.0799408" stroke-linecap="butt" stroke-linejoin="miter" stroke="rgb(0%, 0%, 0%)" stroke-opacity="1" stroke-miterlimit="10" d="M -6.000141 -13.856406 L -7.499968 -16.454483 L -9.000107 -13.856406 L -12.000073 -13.856406 L -10.499934 -16.454483 L -12.000073 -19.052559 L -9.000107 -19.052559 L -7.499968 -21.650635 L -4.500002 -21.650635 L -2.999863 -19.052559 L -6.000141 -19.052559 L -4.500002 -16.454483 Z M -6.000141 -13.856406 " transform="matrix(12.509256, 0, 0, 12.509256, 371.854174, 410.833333)"/>
<path fill-rule="nonzero" fill="rgb(80%, 80%, 80%)" fill-opacity="1" stroke-width="0.0799408" stroke-linecap="butt" stroke-linejoin="miter" stroke="rgb(0%, 0%, 0%)" stroke-opacity="1" stroke-miterlimit="10" d="M 7.499863 -26.846788 L 9.000002 -24.248711 L 6.000036 -24.248711 L 4.499897 -21.650635 L 7.499863 -21.650635 L 9.000002 -19.052559 L 10.500141 -21.650635 L 13.500107 -21.650635 L 14.999934 -24.248711 L 13.500107 -26.846788 L 11.999968 -24.248711 L 10.500141 -26.846788 Z M 7.499863 -26.846788 " transform="matrix(12.509256, 0, 0, 12.509256, 371.854174, 410.833333)"/>
<path fill-rule="nonzero" fill="rgb(80%, 80%, 80%)" fill-opacity="1" stroke-width="0.0799408" stroke-linecap="butt" stroke-linejoin="miter" stroke="rgb(0%, 0%, 0%)" stroke-opacity="1" stroke-miterlimit="10" d="M -2.999863 -24.248711 L 0.000103473 -24.248711 L -1.500036 -26.846788 L 0.000103473 -29.444864 L 1.49993 -26.846788 L 4.499897 -26.846788 L 3.00007 -24.248711 L 4.499897 -21.650635 L 3.00007 -19.052559 L 0.000103473 -19.052559 L 1.49993 -21.650635 L -1.500036 -21.650635 Z M -2.999863 -24.248711 " transform="matrix(12.509256, 0, 0, 12.509256, 371.854174, 410.833333)"/>
<path fill-rule="nonzero" fill="rgb(80%, 80%, 80%)" fill-opacity="1" stroke-width="0.0799408" stroke-linecap="butt" stroke-linejoin="miter" stroke="rgb(0%, 0%, 0%)" stroke-opacity="1" stroke-miterlimit="10" d="M 1.49993 -26.846788 L 4.499897 -26.846788 L 3.00007 -24.248711 L 4.499897 -21.650635 L 6.000036 -24.248711 L 9.000002 -24.248711 L 7.499863 -26.846788 L 9.000002 -29.444864 L 7.499863 -32.04294 L 4.499897 -32.04294 L 6.000036 -29.444864 L 3.00007 -29.444864 Z M 1.49993 -26.846788 " transform="matrix(12.509256, 0, 0, 12.509256, 371.854174, 410.833333)"/>
<path fill-rule="nonzero" fill="rgb(80%, 80%, 80%)" fill-opacity="1" stroke-width="0.0799408" stroke-linecap="butt" stroke-linejoin="miter" stroke="rgb(0%, 0%, 0%)" stroke-opacity="1" stroke-miterlimit="10" d="M -10.499934 -26.846788 L -9.000107 -24.248711 L -7.499968 -26.846788 L -4.500002 -26.846788 L -6.000141 -24.248711 L -4.500002 -21.650635 L -7.499968 -21.650635 L -9.000107 -19.052559 L -12.000073 -19.052559 L -13.4999 -21.650635 L -10.499934 -21.650635 L -12.000073 -24.248711 Z M -10.499934 -26.846788 " transform="matrix(12.509256, 0, 0, 12.509256, 371.854174, 410.833333)"/>
<path fill-rule="nonzero" fill="rgb(80%, 80%, 80%)" fill-opacity="1" stroke-width="0.0799408" stroke-linecap="butt" stroke-linejoin="miter" stroke="rgb(0%, 0%, 0%)" stroke-opacity="1" stroke-miterlimit="10" d="M -7.499968 -26.846788 L -4.500002 -26.846788 L -6.000141 -24.248711 L -4.500002 -21.650635 L -2.999863 -24.248711 L 0.000103473 -24.248711 L -1.500036 -26.846788 L 0.000103473 -29.444864 L -1.500036 -32.04294 L -4.500002 -32.04294 L -2.999863 -29.444864 L -6.000141 -29.444864 Z M -7.499968 -26.846788 " transform="matrix(12.509256, 0, 0, 12.509256, 371.854174, 410.833333)"/>
<path fill-rule="nonzero" fill="rgb(80%, 80%, 80%)" fill-opacity="1" stroke-width="0.0799408" stroke-linecap="butt" stroke-linejoin="miter" stroke="rgb(0%, 0%, 0%)" stroke-opacity="1" stroke-miterlimit="10" d="M 11.999968 -19.052559 L 14.999934 -19.052559 L 13.500107 -21.650635 L 14.999934 -24.248711 L 16.500073 -21.650635 L 19.500039 -21.650635 L 17.9999 -19.052559 L 19.500039 -16.454483 L 17.9999 -13.856406 L 14.999934 -13.856406 L 16.500073 -16.454483 L 13.500107 -16.454483 Z M 11.999968 -19.052559 " transform="matrix(12.509256, 0, 0, 12.509256, 371.854174, 410.833333)"/>
</svg>
