<?xml version="1.0" encoding="UTF-8"?>
<svg xmlns="http://www.w3.org/2000/svg" width="800.0000" height="800.0000" viewBox="0 0 800.0000 800.0000">
  <defs>
    <path id="shape-c0" d="M -6.0000 12.1244 L -9.0000 12.1244 L -12.0000 12.1244 L -13.5000 9.5263 L -12.0000 6.9282 L -9.0000 6.9282 L -6.0000 6.9282 L -4.5000 4.3301 L -3.0000 1.7321 L -4.5000 -0.8660 L -1.5000 -0.8660 L 0.0000 1.7321 L 1.5000 4.3301 L 0.0000 6.9282 L -3.0000 6.9282 L -4.5000 9.5263 Z" fill="rgb(255,255,102)" stroke="black" stroke-width="0.1322"/>
    <path id="shape-c1" d="M -6.0000 12.1244 L -9.0000 12.1244 L -12.0000 12.1244 L -13.5000 9.5263 L -12.0000 6.9282 L -9.0000 6.9282 L -6.0000 6.9282 L -4.5000 4.3301 L -3.0000 1.7321 L -4.5000 -0.8660 L -1.5000 -0.8660 L 0.0000 1.7321 L 1.5000 4.3301 L 0.0000 6.9282 L -3.0000 6.9282 L -4.5000 9.5263 Z" fill="rgb(204,204,204)" stroke="black" stroke-width="0.1322"/>
    <path id="shape-c2" d="M -6.0000 12.1244 L -9.0000 12.1244 L -12.0000 12.1244 L -13.5000 9.5263 L -12.0000 6.9282 L -9.0000 6.9282 L -6.0000 6.9282 L -4.5000 4.3301 L -3.0000 1.7321 L -4.5000 -0.8660 L -1.5000 -0.8660 L 0.0000 1.7321 L 1.5000 4.3301 L 0.0000 6.9282 L -3.0000 6.9282 L -4.5000 9.5263 Z" fill="rgb(127,127,127)" stroke="black" stroke-width="0.1322"/>
    <path id="shape-c3" d="M -6.0000 12.1244 L -9.0000 12.1244 L -12.0000 12.1244 L -13.5000 9.5263 L -12.0000 6.9282 L -9.0000 6.9282 L -6.0000 6.9282 L -4.5000 4.3301 L -3.0000 1.7321 L -4.5000 -0.8660 L -1.5000 -0.8660 L 0.0000 1.7321 L 1.5000 4.3301 L 0.0000 6.9282 L -3.0000 6.9282 L -4.5000 9.5263 Z" fill="rgb(204,204,204)" stroke="black" stroke-width="0.1322"/>
    <path id="shape-c4" d="M -6.0000 12.1244 L -9.0000 12.1244 L -12.0000 12.1244 L -13.5000 9.5263 L -12.0000 6.9282 L -9.0000 6.9282 L -6.0000 6.9282 L -4.5000 4.3301 L -3.0000 1.7321 L -4.5000 -0.8660 L -1.5000 -0.8660 L 0.0000 1.7321 L 1.5000 4.3301 L 0.0000 6.9282 L -3.0000 6.9282 L -4.5000 9.5263 Z" fill="rgb(127,127,127)" stroke="black" stroke-width="0.1322"/>
  </defs>
  <rect width="100%" height="100%" fill="white"/>
  <g transform="translate(439.7015,367.2548) scale(7.5622)">
    <use href="#shape-c0" transform="matrix(1.0000,0.0000,0.0000,1.0000,0.0000,0.0000)"/>
    <use href="#shape-c1" transform="matrix(-0.5000,0.8660,-0.8660,-0.5000,1.5000,23.3827)"/>
    <use href="#shape-c1" transform="matrix(-0.5000,-0.8660,-0.8660,0.5000,6.0000,3.4641)"/>
    <use href="#shape-c1" transform="matrix(-0.5000,-0.8660,0.8660,-0.5000,-19.5000,12.9904)"/>
    <use href="#shape-c1" transform="matrix(-0.5000,0.8660,0.8660,0.5000,-19.5000,6.0622)"/>
    <use href="#shape-c1" transform="matrix(-0.5000,-0.8660,0.8660,-0.5000,-10.5000,-2.5981)"/>
    <use href="#shape-c3" transform="matrix(-1.0000,0.0000,0.0000,-1.0000,-22.5000,37.2391)"/>
    <use href="#shape-c3" transform="matrix(-0.5000,0.8660,0.8660,0.5000,-6.0000,29.4449)"/>
    <use href="#shape-c3" transform="matrix(1.0000,0.0000,0.0000,-1.0000,-22.5000,26.8468)"/>
    <use href="#shape-c3" transform="matrix(-0.5000,0.8660,0.8660,0.5000,-42.0000,13.8564)"/>
    <use href="#shape-c3" transform="matrix(0.5000,-0.8660,-0.8660,-0.5000,-7.5000,23.3827)"/>
    <use href="#shape-c2" transform="matrix(-0.5000,-0.8660,-0.8660,0.5000,-21.0000,3.4641)"/>
    <use href="#shape-c2" transform="matrix(1.0000,0.0000,0.0000,1.0000,9.0000,15.5885)"/>
    <use href="#shape-c2" transform="matrix(-1.0000,0.0000,0.0000,1.0000,9.0000,0.0000)"/>
    <use href="#shape-c2" transform="matrix(1.0000,0.0000,0.0000,-1.0000,-4.5000,26.8468)"/>
    <use href="#shape-c2" transform="matrix(-1.0000,0.0000,0.0000,1.0000,4.5000,7.7942)"/>
    <use href="#shape-c2" transform="matrix(1.0000,0.0000,0.0000,-1.0000,9.0000,3.4641)"/>
    <use href="#shape-c3" transform="matrix(1.0000,0.0000,0.0000,1.0000,-27.0000,0.0000)"/>
    <use href="#shape-c2" transform="matrix(0.5000,0.8660,0.8660,-0.5000,-15.0000,5.1962)"/>
    <use href="#shape-c2" transform="matrix(0.5000,-0.8660,0.8660,0.5000,-19.5000,-14.7224)"/>
    <use href="#shape-c2" transform="matrix(0.5000,0.8660,0.8660,-0.5000,-24.0000,5.1962)"/>
    <use href="#shape-c2" transform="matrix(-0.5000,0.8660,-0.8660,-0.5000,-16.5000,23.3827)"/>
    <use href="#shape-c2" transform="matrix(0.5000,0.8660,-0.8660,0.5000,24.0000,13.8564)"/>
    <use href="#shape-c3" transform="matrix(-1.0000,0.0000,0.0000,-1.0000,13.5000,6.0622)"/>
    <use href="#shape-c3" transform="matrix(0.5000,0.8660,-0.8660,0.5000,-7.5000,-14.7224)"/>
    <use href="#shape-c4" transform="matrix(-0.5000,-0.8660,-0.8660,0.5000,19.5000,-19.9186)"/>
    <use href="#shape-c2" transform="matrix(-0.5000,0.8660,0.8660,0.5000,-10.5000,-9.5263)"/>
    <use href="#shape-c3" transform="matrix(-0.5000,0.8660,-0.8660,-0.5000,-3.0000,-10.3923)"/>
    <use href="#shape-c3" transform="matrix(-0.5000,-0.8660,-0.8660,0.5000,10.5000,-19.9186)"/>
    <use href="#shape-c3" transform="matrix(-0.5000,0.8660,-0.8660,-0.5000,15.0000,0.0000)"/>
    <use href="#shape-c3" transform="matrix(0.5000,0.8660,-0.8660,0.5000,-21.0000,-1.7321)"/>
    <use href="#shape-c3" transform="matrix(-0.5000,-0.8660,-0.8660,0.5000,1.5000,-30.3109)"/>
    <use href="#shape-c3" transform="matrix(0.5000,-0.8660,-0.8660,-0.5000,-3.0000,31.1769)"/>
    <use href="#shape-c4" transform="matrix(-0.5000,0.8660,-0.8660,-0.5000,1.5000,49.3634)"/>
    <use href="#shape-c4" transform="matrix(-0.5000,-0.8660,0.8660,-0.5000,-42.0000,20.7846)"/>
    <use href="#shape-c4" transform="matrix(0.5000,-0.8660,0.8660,0.5000,-10.5000,32.0429)"/>
    <use href="#shape-c4" transform="matrix(0.5000,-0.8660,0.8660,0.5000,-28.5000,26.8468)"/>
    <use href="#shape-c4" transform="matrix(-0.5000,-0.8660,-0.8660,0.5000,6.0000,29.4449)"/>
    <use href="#shape-c4" transform="matrix(-1.0000,0.0000,0.0000,-1.0000,-27.0000,50.2295)"/>
    <use href="#shape-c4" transform="matrix(0.5000,0.8660,0.8660,-0.5000,-15.0000,51.9615)"/>
    <use href="#shape-c3" transform="matrix(-0.5000,-0.8660,-0.8660,0.5000,15.0000,19.0526)"/>
    <use href="#shape-c4" transform="matrix(-0.5000,0.8660,-0.8660,-0.5000,19.5000,38.9711)"/>
    <use href="#shape-c4" transform="matrix(-0.5000,0.8660,-0.8660,-0.5000,10.5000,49.3634)"/>
    <use href="#shape-c4" transform="matrix(0.5000,0.8660,0.8660,-0.5000,-46.5000,28.5788)"/>
    <use href="#shape-c4" transform="matrix(1.0000,0.0000,0.0000,-1.0000,-31.5000,6.0622)"/>
    <use href="#shape-c4" transform="matrix(-0.5000,0.8660,0.8660,0.5000,-55.5000,11.2583)"/>
    <use href="#shape-c3" transform="matrix(0.5000,0.8660,0.8660,-0.5000,-28.5000,-2.5981)"/>
    <use href="#shape-c4" transform="matrix(-0.5000,-0.8660,0.8660,-0.5000,-51.0000,0.0000)"/>
    <use href="#shape-c4" transform="matrix(1.0000,0.0000,0.0000,-1.0000,31.5000,37.2391)"/>
    <use href="#shape-c4" transform="matrix(0.5000,-0.8660,-0.8660,-0.5000,37.5000,18.1865)"/>
    <use href="#shape-c4" transform="matrix(-1.0000,0.0000,0.0000,-1.0000,27.0000,3.4641)"/>
    <use href="#shape-c3" transform="matrix(-1.0000,0.0000,0.0000,1.0000,18.0000,0.0000)"/>
    <use href="#shape-c4" transform="matrix(0.5000,0.8660,-0.8660,0.5000,37.5000,6.0622)"/>
    <use href="#shape-c3" transform="matrix(-1.0000,0.0000,0.0000,-1.0000,18.0000,24.2487)"/>
    <use href="#shape-c4" transform="matrix(0.5000,-0.8660,0.8660,0.5000,-33.0000,-22.5167)"/>
    <use href="#shape-c4" transform="matrix(-1.0000,0.0000,0.0000,1.0000,-22.5000,-28.5788)"/>
    <use href="#shape-c4" transform="matrix(0.5000,0.8660,-0.8660,0.5000,-30.0000,-12.1244)"/>
    <use href="#shape-c4" transform="matrix(-0.5000,-0.8660,0.8660,-0.5000,-39.0000,-25.9808)"/>
    <use href="#shape-c4" transform="matrix(-1.0000,0.0000,0.0000,1.0000,-49.5000,-18.1865)"/>
    <use href="#shape-c4" transform="matrix(0.5000,0.8660,-0.8660,0.5000,33.0000,-6.9282)"/>
    <use href="#shape-c4" transform="matrix(-0.5000,-0.8660,0.8660,-0.5000,12.0000,-20.7846)"/>
    <use href="#shape-c4" transform="matrix(1.0000,0.0000,0.0000,1.0000,13.5000,-33.7750)"/>
    <use href="#shape-c3" transform="matrix(-0.5000,0.8660,0.8660,0.5000,-1.5000,-19.9186)"/>
    <use href="#shape-c4" transform="matrix(0.5000,-0.8660,0.8660,0.5000,-15.0000,-38.1051)"/>
    <use href="#shape-c4" transform="matrix(-0.5000,0.8660,0.8660,0.5000,-10.5000,-30.3109)"/>
    <use href="#shape-c4" transform="matrix(0.5000,-0.8660,0.8660,0.5000,3.0000,-43.3013)"/>
    <use href="#shape-c4" transform="matrix(1.0000,0.0000,0.0000,1.0000,43.5000,2.5981)"/>
    <use href="#shape-c4" transform="matrix(0.5000,-0.8660,0.8660,0.5000,13.5000,-40.7032)"/>
    <use href="#shape-c4" transform="matrix(0.5000,0.8660,-0.8660,0.5000,25.5000,42.4352)"/>
  </g>
</svg>
