<?xml version="1.0" encoding="UTF-8"?>
<svg xmlns="http://www.w3.org/2000/svg" xmlns:xlink="http://www.w3.org/1999/xlink" width="800" height="800" viewBox="0 0 800 800">
<rect x="-80" y="-80" width="960" height="960" fill="rgb(100%, 100%, 100%)" fill-opacity="1"/>
<path fill-rule="nonzero" fill="rgb(100%, 100%, 40%)" fill-opacity="1" stroke-width="0.128846" stroke-linecap="butt" stroke-linejoin="miter" stroke="rgb(0%, 0%, 0%)" stroke-opacity="1" stroke-miterlimit="10" d="M -5.999925 12.124313 L -11.999827 12.124313 L -13.50018 9.526251 L -11.999827 6.928189 L -5.999925 6.928189 L -3.000225 1.732065 L -4.500075 -0.865997 L -1.499872 -0.865997 L 1.499827 4.330127 L -0.0000225361 6.928189 L -3.000225 6.928189 Z M -5.999925 12.124313 " transform="matrix(7.761194, 0, 0, 7.761194, 440.746269, 366.393044)"/>
<path fill-rule="nonzero" fill="rgb(80%, 80%, 80%)" fill-opacity="1" stroke-width="0.128846" stroke-linecap="butt" stroke-linejoin="miter" stroke="rgb(0%, 0%, 0%)" stroke-opacity="1" stroke-miterlimit="10" d="M -5.999925 12.124313 L -3.000225 6.928189 L -0.0000225361 6.928189 L 1.499827 9.526251 L -1.499872 14.722375 L 1.499827 19.918498 L 4.50003 19.918498 L 3.00018 22.51656 L -3.000225 22.51656 L -4.500075 19.918498 L -3.000225 17.320437 Z M -5.999925 12.124313 " transform="matrix(7.761194, 0, 0, 7.761194, 440.746269, 366.393044)"/>
<path fill-rule="nonzero" fill="rgb(80%, 80%, 80%)" fill-opacity="1" stroke-width="0.128846" stroke-linecap="butt" stroke-linejoin="miter" stroke="rgb(0%, 0%, 0%)" stroke-opacity="1" stroke-miterlimit="10" d="M -1.499872 14.722375 L 1.499827 19.918498 L 4.50003 19.918498 L 5.99988 17.320437 L 3.00018 12.124313 L 5.99988 6.928189 L 9.000083 6.928189 L 7.500233 4.330127 L 1.499827 4.330127 L -0.0000225361 6.928189 L 1.499827 9.526251 Z M -1.499872 14.722375 " transform="matrix(7.761194, 0, 0, 7.761194, 440.746269, 366.393044)"/>
<path fill-rule="nonzero" fill="rgb(80%, 80%, 80%)" fill-opacity="1" stroke-width="0.128846" stroke-linecap="butt" stroke-linejoin="miter" stroke="rgb(0%, 0%, 0%)" stroke-opacity="1" stroke-miterlimit="10" d="M -5.999925 12.124313 L -3.000225 17.320437 L -4.500075 19.918498 L -7.499775 19.918498 L -9.000128 17.320437 L -10.499977 14.722375 L -16.49988 14.722375 L -18.000233 17.320437 L -19.500083 14.722375 L -18.000233 12.124313 L -16.49988 9.526251 L -13.50018 9.526251 L -11.999827 12.124313 Z M -5.999925 12.124313 " transform="matrix(7.761194, 0, 0, 7.761194, 440.746269, 366.393044)"/>
<path fill-rule="nonzero" fill="rgb(80%, 80%, 80%)" fill-opacity="1" stroke-width="0.128846" stroke-linecap="butt" stroke-linejoin="miter" stroke="rgb(0%, 0%, 0%)" stroke-opacity="1" stroke-miterlimit="10" d="M -5.999925 6.928189 L -3.000225 1.732065 L -4.500075 -0.865997 L -7.499775 -0.865997 L -9.000128 1.732065 L -10.499977 4.330127 L -16.49988 4.330127 L -18.000233 1.732065 L -19.500083 4.330127 L -18.000233 6.928189 L -16.49988 9.526251 L -13.50018 9.526251 L -11.999827 6.928189 Z M -5.999925 6.928189 " transform="matrix(7.761194, 0, 0, 7.761194, 440.746269, 366.393044)"/>
<path fill-rule="nonzero" fill="rgb(80%, 80%, 80%)" fill-opacity="1" stroke-width="0.128846" stroke-linecap="butt" stroke-linejoin="miter" stroke="rgb(0%, 0%, 0%)" stroke-opacity="1" stroke-miterlimit="10" d="M 3.00018 -3.464059 L 5.99988 1.732065 L 4.50003 4.330127 L 1.499827 4.330127 L -1.499872 -0.865997 L -7.499775 -0.865997 L -9.000128 1.732065 L -10.499977 -0.865997 L -9.000128 -3.464059 L -7.499775 -6.062121 L -4.500075 -6.062121 L -3.000225 -3.464059 Z M 3.00018 -3.464059 " transform="matrix(7.761194, 0, 0, 7.761194, 440.746269, 366.393044)"/>
<path fill-rule="nonzero" fill="rgb(80%, 80%, 80%)" fill-opacity="1" stroke-width="0.128846" stroke-linecap="butt" stroke-linejoin="miter" stroke="rgb(0%, 0%, 0%)" stroke-opacity="1" stroke-miterlimit="10" d="M -16.49988 25.114622 L -10.499977 25.114622 L -9.000128 27.712684 L -10.499977 30.310746 L -16.49988 30.310746 L -18.000233 32.908808 L -19.500083 35.50687 L -18.000233 38.104932 L -20.999932 38.104932 L -22.499782 35.50687 L -24.000135 32.908808 L -22.499782 30.310746 L -19.500083 30.310746 L -18.000233 27.712684 Z M -16.49988 25.114622 " transform="matrix(7.761194, 0, 0, 7.761194, 440.746269, 366.393044)"/>
<path fill-rule="nonzero" fill="rgb(80%, 80%, 80%)" fill-opacity="1" stroke-width="0.128846" stroke-linecap="butt" stroke-linejoin="miter" stroke="rgb(0%, 0%, 0%)" stroke-opacity="1" stroke-miterlimit="10" d="M 7.500233 30.310746 L 10.499932 25.114622 L 9.000083 22.51656 L 5.99988 22.51656 L 3.00018 27.712684 L -3.000225 27.712684 L -4.500075 25.114622 L -5.999925 27.712684 L -3.000225 32.908808 L -0.0000225361 32.908808 L 1.499827 30.310746 Z M 7.500233 30.310746 " transform="matrix(7.761194, 0, 0, 7.761194, 440.746269, 366.393044)"/>
<path fill-rule="nonzero" fill="rgb(80%, 80%, 80%)" fill-opacity="1" stroke-width="0.128846" stroke-linecap="butt" stroke-linejoin="miter" stroke="rgb(0%, 0%, 0%)" stroke-opacity="1" stroke-miterlimit="10" d="M -28.500188 14.722375 L -34.50009 14.722375 L -35.99994 17.320437 L -34.50009 19.918498 L -28.500188 19.918498 L -26.999835 22.51656 L -25.499985 25.114622 L -26.999835 27.712684 L -24.000135 27.712684 L -22.499782 25.114622 L -20.999932 22.51656 L -22.499782 19.918498 L -25.499985 19.918498 L -26.999835 17.320437 Z M -28.500188 14.722375 " transform="matrix(7.761194, 0, 0, 7.761194, 440.746269, 366.393044)"/>
<path fill-rule="nonzero" fill="rgb(80%, 80%, 80%)" fill-opacity="1" stroke-width="0.128846" stroke-linecap="butt" stroke-linejoin="miter" stroke="rgb(0%, 0%, 0%)" stroke-opacity="1" stroke-miterlimit="10" d="M -28.500188 14.722375 L -26.999835 12.124313 L -25.499985 9.526251 L -26.999835 6.928189 L -30.000038 6.928189 L -31.499887 9.526251 L -33.00024 12.124313 L -39.000143 12.124313 L -40.499992 9.526251 L -41.999842 12.124313 L -39.000143 17.320437 L -35.99994 17.320437 L -34.50009 14.722375 Z M -28.500188 14.722375 " transform="matrix(7.761194, 0, 0, 7.761194, 440.746269, 366.393044)"/>
<path fill-rule="nonzero" fill="rgb(80%, 80%, 80%)" fill-opacity="1" stroke-width="0.128846" stroke-linecap="butt" stroke-linejoin="miter" stroke="rgb(0%, 0%, 0%)" stroke-opacity="1" stroke-miterlimit="10" d="M -20.999932 22.51656 L -22.499782 25.114622 L -24.000135 27.712684 L -22.499782 30.310746 L -19.500083 30.310746 L -18.000233 27.712684 L -16.49988 25.114622 L -10.499977 25.114622 L -9.000128 27.712684 L -7.499775 25.114622 L -9.000128 22.51656 L -10.499977 19.918498 L -13.50018 19.918498 L -15.00003 22.51656 Z M -20.999932 22.51656 " transform="matrix(7.761194, 0, 0, 7.761194, 440.746269, 366.393044)"/>
<path fill-rule="nonzero" fill="rgb(50%, 50%, 50%)" fill-opacity="1" stroke-width="0.128846" stroke-linecap="butt" stroke-linejoin="miter" stroke="rgb(0%, 0%, 0%)" stroke-opacity="1" stroke-miterlimit="10" d="M -28.500188 14.722375 L -26.999835 17.320437 L -25.499985 19.918498 L -22.499782 19.918498 L -20.999932 17.320437 L -22.499782 14.722375 L -24.000135 12.124313 L -22.499782 9.526251 L -20.999932 6.928189 L -18.000233 6.928189 L -19.500083 4.330127 L -25.499985 4.330127 L -26.999835 6.928189 L -25.499985 9.526251 L -26.999835 12.124313 Z M -28.500188 14.722375 " transform="matrix(7.761194, 0, 0, 7.761194, 440.746269, 366.393044)"/>
<path fill-rule="nonzero" fill="rgb(50%, 50%, 50%)" fill-opacity="1" stroke-width="0.128846" stroke-linecap="butt" stroke-linejoin="miter" stroke="rgb(0%, 0%, 0%)" stroke-opacity="1" stroke-miterlimit="10" d="M 3.00018 27.712684 L -3.000225 27.712684 L -4.500075 25.114622 L -3.000225 22.51656 L 3.00018 22.51656 L 5.99988 17.320437 L 4.50003 14.722375 L 7.500233 14.722375 L 10.499932 19.918498 L 9.000083 22.51656 L 5.99988 22.51656 Z M 3.00018 27.712684 " transform="matrix(7.761194, 0, 0, 7.761194, 440.746269, 366.393044)"/>
<path fill-rule="nonzero" fill="rgb(50%, 50%, 50%)" fill-opacity="1" stroke-width="0.128846" stroke-linecap="butt" stroke-linejoin="miter" stroke="rgb(0%, 0%, 0%)" stroke-opacity="1" stroke-miterlimit="10" d="M 14.999985 12.124313 L 20.999887 12.124313 L 22.50024 9.526251 L 20.999887 6.928189 L 14.999985 6.928189 L 13.500135 4.330127 L 11.999782 1.732065 L 13.500135 -0.865997 L 10.499932 -0.865997 L 7.500233 4.330127 L 9.000083 6.928189 L 11.999782 6.928189 L 13.500135 9.526251 Z M 14.999985 12.124313 " transform="matrix(7.761194, 0, 0, 7.761194, 440.746269, 366.393044)"/>
<path fill-rule="nonzero" fill="rgb(50%, 50%, 50%)" fill-opacity="1" stroke-width="0.128846" stroke-linecap="butt" stroke-linejoin="miter" stroke="rgb(0%, 0%, 0%)" stroke-opacity="1" stroke-miterlimit="10" d="M -10.499977 14.722375 L -16.49988 14.722375 L -18.000233 17.320437 L -16.49988 19.918498 L -10.499977 19.918498 L -9.000128 22.51656 L -7.499775 25.114622 L -9.000128 27.712684 L -5.999925 27.712684 L -3.000225 22.51656 L -4.500075 19.918498 L -7.499775 19.918498 L -9.000128 17.320437 Z M -10.499977 14.722375 " transform="matrix(7.761194, 0, 0, 7.761194, 440.746269, 366.393044)"/>
<path fill-rule="nonzero" fill="rgb(50%, 50%, 50%)" fill-opacity="1" stroke-width="0.128846" stroke-linecap="butt" stroke-linejoin="miter" stroke="rgb(0%, 0%, 0%)" stroke-opacity="1" stroke-miterlimit="10" d="M 10.499932 19.918498 L 16.499835 19.918498 L 18.000188 17.320437 L 16.499835 14.722375 L 10.499932 14.722375 L 7.500233 9.526251 L 9.000083 6.928189 L 5.99988 6.928189 L 3.00018 12.124313 L 4.50003 14.722375 L 7.500233 14.722375 Z M 10.499932 19.918498 " transform="matrix(7.761194, 0, 0, 7.761194, 440.746269, 366.393044)"/>
<path fill-rule="nonzero" fill="rgb(50%, 50%, 50%)" fill-opacity="1" stroke-width="0.128846" stroke-linecap="butt" stroke-linejoin="miter" stroke="rgb(0%, 0%, 0%)" stroke-opacity="1" stroke-miterlimit="10" d="M 3.00018 -8.660182 L -3.000225 -8.660182 L -4.500075 -6.062121 L -3.000225 -3.464059 L 3.00018 -3.464059 L 5.99988 1.732065 L 4.50003 4.330127 L 7.500233 4.330127 L 10.499932 -0.865997 L 9.000083 -3.464059 L 5.99988 -3.464059 Z M 3.00018 -8.660182 " transform="matrix(7.761194, 0, 0, 7.761194, 440.746269, 366.393044)"/>
<path fill-rule="nonzero" fill="rgb(80%, 80%, 80%)" fill-opacity="1" stroke-width="0.128846" stroke-linecap="butt" stroke-linejoin="miter" stroke="rgb(0%, 0%, 0%)" stroke-opacity="1" stroke-miterlimit="10" d="M -33.00024 12.124313 L -39.000143 12.124313 L -40.499992 9.526251 L -39.000143 6.928189 L -33.00024 6.928189 L -31.499887 4.330127 L -30.000038 1.732065 L -31.499887 -0.865997 L -28.500188 -0.865997 L -26.999835 1.732065 L -25.499985 4.330127 L -26.999835 6.928189 L -30.000038 6.928189 L -31.499887 9.526251 Z M -33.00024 12.124313 " transform="matrix(7.761194, 0, 0, 7.761194, 440.746269, 366.393044)"/>
<path fill-rule="nonzero" fill="rgb(50%, 50%, 50%)" fill-opacity="1" stroke-width="0.128846" stroke-linecap="butt" stroke-linejoin="miter" stroke="rgb(0%, 0%, 0%)" stroke-opacity="1" stroke-miterlimit="10" d="M -7.499775 -6.062121 L -9.000128 -8.660182 L -10.499977 -11.258244 L -13.50018 -11.258244 L -15.00003 -8.660182 L -13.50018 -6.062121 L -11.999827 -3.464059 L -13.50018 -0.865997 L -15.00003 1.732065 L -18.000233 1.732065 L -16.49988 4.330127 L -10.499977 4.330127 L -9.000128 1.732065 L -10.499977 -0.865997 L -9.000128 -3.464059 Z M -7.499775 -6.062121 " transform="matrix(7.761194, 0, 0, 7.761194, 440.746269, 366.393044)"/>
<path fill-rule="nonzero" fill="rgb(50%, 50%, 50%)" fill-opacity="1" stroke-width="0.128846" stroke-linecap="butt" stroke-linejoin="miter" stroke="rgb(0%, 0%, 0%)" stroke-opacity="1" stroke-miterlimit="10" d="M -11.999827 -3.464059 L -13.50018 -0.865997 L -15.00003 1.732065 L -18.000233 1.732065 L -19.500083 -0.865997 L -18.000233 -3.464059 L -16.49988 -6.062121 L -18.000233 -8.660182 L -19.500083 -11.258244 L -22.499782 -11.258244 L -20.999932 -13.856306 L -15.00003 -13.856306 L -13.50018 -11.258244 L -15.00003 -8.660182 L -13.50018 -6.062121 Z M -11.999827 -3.464059 " transform="matrix(7.761194, 0, 0, 7.761194, 440.746269, 366.393044)"/>
<path fill-rule="nonzero" fill="rgb(50%, 50%, 50%)" fill-opacity="1" stroke-width="0.128846" stroke-linecap="butt" stroke-linejoin="miter" stroke="rgb(0%, 0%, 0%)" stroke-opacity="1" stroke-miterlimit="10" d="M -16.49988 -6.062121 L -18.000233 -8.660182 L -19.500083 -11.258244 L -22.499782 -11.258244 L -24.000135 -8.660182 L -22.499782 -6.062121 L -20.999932 -3.464059 L -22.499782 -0.865997 L -24.000135 1.732065 L -26.999835 1.732065 L -25.499985 4.330127 L -19.500083 4.330127 L -18.000233 1.732065 L -19.500083 -0.865997 L -18.000233 -3.464059 Z M -16.49988 -6.062121 " transform="matrix(7.761194, 0, 0, 7.761194, 440.746269, 366.393044)"/>
<path fill-rule="nonzero" fill="rgb(50%, 50%, 50%)" fill-opacity="1" stroke-width="0.128846" stroke-linecap="butt" stroke-linejoin="miter" stroke="rgb(0%, 0%, 0%)" stroke-opacity="1" stroke-miterlimit="10" d="M -24.000135 12.124313 L -22.499782 9.526251 L -20.999932 6.928189 L -18.000233 6.928189 L -16.49988 9.526251 L -18.000233 12.124313 L -19.500083 14.722375 L -18.000233 17.320437 L -16.49988 19.918498 L -13.50018 19.918498 L -15.00003 22.51656 L -20.999932 22.51656 L -22.499782 19.918498 L -20.999932 17.320437 L -22.499782 14.722375 Z M -24.000135 12.124313 " transform="matrix(7.761194, 0, 0, 7.761194, 440.746269, 366.393044)"/>
<path fill-rule="nonzero" fill="rgb(50%, 50%, 50%)" fill-opacity="1" stroke-width="0.128846" stroke-linecap="butt" stroke-linejoin="miter" stroke="rgb(0%, 0%, 0%)" stroke-opacity="1" stroke-miterlimit="10" d="M 10.499932 14.722375 L 7.500233 9.526251 L 9.000083 6.928189 L 11.999782 6.928189 L 13.500135 9.526251 L 14.999985 12.124313 L 20.999887 12.124313 L 22.50024 9.526251 L 24.00009 12.124313 L 22.50024 14.722375 L 20.999887 17.320437 L 18.000188 17.320437 L 16.499835 14.722375 Z M 10.499932 14.722375 " transform="matrix(7.761194, 0, 0, 7.761194, 440.746269, 366.393044)"/>
<path fill-rule="nonzero" fill="rgb(80%, 80%, 80%)" fill-opacity="1" stroke-width="0.128846" stroke-linecap="butt" stroke-linejoin="miter" stroke="rgb(0%, 0%, 0%)" stroke-opacity="1" stroke-miterlimit="10" d="M 19.500038 -6.062121 L 25.49994 -6.062121 L 26.99979 -3.464059 L 25.49994 -0.865997 L 19.500038 -0.865997 L 18.000188 1.732065 L 16.499835 4.330127 L 18.000188 6.928189 L 14.999985 6.928189 L 13.500135 4.330127 L 11.999782 1.732065 L 13.500135 -0.865997 L 16.499835 -0.865997 L 18.000188 -3.464059 Z M 19.500038 -6.062121 " transform="matrix(7.761194, 0, 0, 7.761194, 440.746269, 366.393044)"/>
<path fill-rule="nonzero" fill="rgb(80%, 80%, 80%)" fill-opacity="1" stroke-width="0.128846" stroke-linecap="butt" stroke-linejoin="miter" stroke="rgb(0%, 0%, 0%)" stroke-opacity="1" stroke-miterlimit="10" d="M -20.999932 -13.856306 L -22.499782 -16.454368 L -24.000135 -19.05243 L -22.499782 -21.650492 L -19.500083 -21.650492 L -18.000233 -19.05243 L -16.49988 -16.454368 L -10.499977 -16.454368 L -9.000128 -19.05243 L -7.499775 -16.454368 L -9.000128 -13.856306 L -10.499977 -11.258244 L -13.50018 -11.258244 L -15.00003 -13.856306 Z M -20.999932 -13.856306 " transform="matrix(7.761194, 0, 0, 7.761194, 440.746269, 366.393044)"/>
<path fill-rule="nonzero" fill="rgb(50%, 50%, 50%)" fill-opacity="1" stroke-width="0.128846" stroke-linecap="butt" stroke-linejoin="miter" stroke="rgb(0%, 0%, 0%)" stroke-opacity="1" stroke-miterlimit="10" d="M 11.999782 -8.660182 L 13.500135 -6.062121 L 14.999985 -3.464059 L 18.000188 -3.464059 L 19.500038 -6.062121 L 18.000188 -8.660182 L 16.499835 -11.258244 L 18.000188 -13.856306 L 19.500038 -16.454368 L 22.50024 -16.454368 L 20.999887 -19.05243 L 14.999985 -19.05243 L 13.500135 -16.454368 L 14.999985 -13.856306 L 13.500135 -11.258244 Z M 11.999782 -8.660182 " transform="matrix(7.761194, 0, 0, 7.761194, 440.746269, 366.393044)"/>
<path fill-rule="nonzero" fill="rgb(50%, 50%, 50%)" fill-opacity="1" stroke-width="0.128846" stroke-linecap="butt" stroke-linejoin="miter" stroke="rgb(0%, 0%, 0%)" stroke-opacity="1" stroke-miterlimit="10" d="M 3.00018 -8.660182 L 5.99988 -13.856306 L 4.50003 -16.454368 L 1.499827 -16.454368 L -1.499872 -11.258244 L -7.499775 -11.258244 L -9.000128 -13.856306 L -10.499977 -11.258244 L -9.000128 -8.660182 L -7.499775 -6.062121 L -4.500075 -6.062121 L -3.000225 -8.660182 Z M 3.00018 -8.660182 " transform="matrix(7.761194, 0, 0, 7.761194, 440.746269, 366.393044)"/>
<path fill-rule="nonzero" fill="rgb(80%, 80%, 80%)" fill-opacity="1" stroke-width="0.128846" stroke-linecap="butt" stroke-linejoin="miter" stroke="rgb(0%, 0%, 0%)" stroke-opacity="1" stroke-miterlimit="10" d="M -10.499977 -21.650492 L -9.000128 -24.248554 L -7.499775 -26.846616 L -4.500075 -26.846616 L -3.000225 -24.248554 L -5.999925 -19.05243 L -3.000225 -13.856306 L -0.0000225361 -13.856306 L -1.499872 -11.258244 L -7.499775 -11.258244 L -9.000128 -13.856306 L -7.499775 -16.454368 L -9.000128 -19.05243 Z M -10.499977 -21.650492 " transform="matrix(7.761194, 0, 0, 7.761194, 440.746269, 366.393044)"/>
<path fill-rule="nonzero" fill="rgb(80%, 80%, 80%)" fill-opacity="1" stroke-width="0.128846" stroke-linecap="butt" stroke-linejoin="miter" stroke="rgb(0%, 0%, 0%)" stroke-opacity="1" stroke-miterlimit="10" d="M 3.00018 -8.660182 L 5.99988 -3.464059 L 9.000083 -3.464059 L 10.499932 -6.062121 L 7.500233 -11.258244 L 10.499932 -16.454368 L 13.500135 -16.454368 L 11.999782 -19.05243 L 5.99988 -19.05243 L 4.50003 -16.454368 L 5.99988 -13.856306 Z M 3.00018 -8.660182 " transform="matrix(7.761194, 0, 0, 7.761194, 440.746269, 366.393044)"/>
<path fill-rule="nonzero" fill="rgb(80%, 80%, 80%)" fill-opacity="1" stroke-width="0.128846" stroke-linecap="butt" stroke-linejoin="miter" stroke="rgb(0%, 0%, 0%)" stroke-opacity="1" stroke-miterlimit="10" d="M 7.500233 -11.258244 L 10.499932 -16.454368 L 13.500135 -16.454368 L 14.999985 -13.856306 L 13.500135 -11.258244 L 11.999782 -8.660182 L 13.500135 -6.062121 L 14.999985 -3.464059 L 18.000188 -3.464059 L 16.499835 -0.865997 L 10.499932 -0.865997 L 9.000083 -3.464059 L 10.499932 -6.062121 Z M 7.500233 -11.258244 " transform="matrix(7.761194, 0, 0, 7.761194, 440.746269, 366.393044)"/>
<path fill-rule="nonzero" fill="rgb(80%, 80%, 80%)" fill-opacity="1" stroke-width="0.128846" stroke-linecap="butt" stroke-linejoin="miter" stroke="rgb(0%, 0%, 0%)" stroke-opacity="1" stroke-miterlimit="10" d="M -34.50009 -0.865997 L -37.49979 -6.062121 L -35.99994 -8.660182 L -33.00024 -8.660182 L -31.499887 -6.062121 L -30.000038 -3.464059 L -24.000135 -3.464059 L -22.499782 -6.062121 L -20.999932 -3.464059 L -22.499782 -0.865997 L -24.000135 1.732065 L -26.999835 1.732065 L -28.500188 -0.865997 Z M -34.50009 -0.865997 " transform="matrix(7.761194, 0, 0, 7.761194, 440.746269, 366.393044)"/>
<path fill-rule="nonzero" fill="rgb(80%, 80%, 80%)" fill-opacity="1" stroke-width="0.128846" stroke-linecap="butt" stroke-linejoin="miter" stroke="rgb(0%, 0%, 0%)" stroke-opacity="1" stroke-miterlimit="10" d="M -5.999925 -19.05243 L -3.000225 -13.856306 L -0.0000225361 -13.856306 L 1.499827 -16.454368 L -1.499872 -21.650492 L 1.499827 -26.846616 L 4.50003 -26.846616 L 3.00018 -29.444678 L -3.000225 -29.444678 L -4.500075 -26.846616 L -3.000225 -24.248554 Z M -5.999925 -19.05243 " transform="matrix(7.761194, 0, 0, 7.761194, 440.746269, 366.393044)"/>
<path fill-rule="nonzero" fill="rgb(80%, 80%, 80%)" fill-opacity="1" stroke-width="0.128846" stroke-linecap="butt" stroke-linejoin="miter" stroke="rgb(0%, 0%, 0%)" stroke-opacity="1" stroke-miterlimit="10" d="M -16.49988 30.310746 L -18.000233 32.908808 L -19.500083 35.50687 L -18.000233 38.104932 L -15.00003 38.104932 L -13.50018 35.50687 L -11.999827 32.908808 L -5.999925 32.908808 L -4.500075 35.50687 L -3.000225 32.908808 L -5.999925 27.712684 L -9.000128 27.712684 L -10.499977 30.310746 Z M -16.49988 30.310746 " transform="matrix(7.761194, 0, 0, 7.761194, 440.746269, 366.393044)"/>
<path fill-rule="nonzero" fill="rgb(50%, 50%, 50%)" fill-opacity="1" stroke-width="0.128846" stroke-linecap="butt" stroke-linejoin="miter" stroke="rgb(0%, 0%, 0%)" stroke-opacity="1" stroke-miterlimit="10" d="M -5.999925 38.104932 L -3.000225 32.908808 L -0.0000225361 32.908808 L 1.499827 35.50687 L -1.499872 40.702994 L 1.499827 45.899117 L 4.50003 45.899117 L 3.00018 48.497179 L -3.000225 48.497179 L -4.500075 45.899117 L -3.000225 43.301056 Z M -5.999925 38.104932 " transform="matrix(7.761194, 0, 0, 7.761194, 440.746269, 366.393044)"/>
<path fill-rule="nonzero" fill="rgb(50%, 50%, 50%)" fill-opacity="1" stroke-width="0.128846" stroke-linecap="butt" stroke-linejoin="miter" stroke="rgb(0%, 0%, 0%)" stroke-opacity="1" stroke-miterlimit="10" d="M -28.500188 19.918498 L -26.999835 22.51656 L -25.499985 25.114622 L -26.999835 27.712684 L -30.000038 27.712684 L -31.499887 25.114622 L -33.00024 22.51656 L -39.000143 22.51656 L -40.499992 25.114622 L -41.999842 22.51656 L -39.000143 17.320437 L -35.99994 17.320437 L -34.50009 19.918498 Z M -28.500188 19.918498 " transform="matrix(7.761194, 0, 0, 7.761194, 440.746269, 366.393044)"/>
<path fill-rule="nonzero" fill="rgb(50%, 50%, 50%)" fill-opacity="1" stroke-width="0.128846" stroke-linecap="butt" stroke-linejoin="miter" stroke="rgb(0%, 0%, 0%)" stroke-opacity="1" stroke-miterlimit="10" d="M -3.000225 43.301056 L -5.999925 48.497179 L -9.000128 48.497179 L -10.499977 45.899117 L -9.000128 43.301056 L -7.499775 40.702994 L -9.000128 38.104932 L -10.499977 35.50687 L -13.50018 35.50687 L -11.999827 32.908808 L -5.999925 32.908808 L -4.500075 35.50687 L -5.999925 38.104932 Z M -3.000225 43.301056 " transform="matrix(7.761194, 0, 0, 7.761194, 440.746269, 366.393044)"/>
<path fill-rule="nonzero" fill="rgb(50%, 50%, 50%)" fill-opacity="1" stroke-width="0.128846" stroke-linecap="butt" stroke-linejoin="miter" stroke="rgb(0%, 0%, 0%)" stroke-opacity="1" stroke-miterlimit="10" d="M -20.999932 38.104932 L -22.499782 40.702994 L -24.000135 43.301056 L -26.999835 43.301056 L -28.500188 40.702994 L -26.999835 38.104932 L -25.499985 35.50687 L -26.999835 32.908808 L -28.500188 30.310746 L -31.499887 30.310746 L -30.000038 27.712684 L -24.000135 27.712684 L -22.499782 30.310746 L -24.000135 32.908808 L -22.499782 35.50687 Z M -20.999932 38.104932 " transform="matrix(7.761194, 0, 0, 7.761194, 440.746269, 366.393044)"/>
<path fill-rule="nonzero" fill="rgb(50%, 50%, 50%)" fill-opacity="1" stroke-width="0.128846" stroke-linecap="butt" stroke-linejoin="miter" stroke="rgb(0%, 0%, 0%)" stroke-opacity="1" stroke-miterlimit="10" d="M -1.499872 40.702994 L 1.499827 45.899117 L 4.50003 45.899117 L 5.99988 43.301056 L 3.00018 38.104932 L 5.99988 32.908808 L 9.000083 32.908808 L 7.500233 30.310746 L 1.499827 30.310746 L -0.0000225361 32.908808 L 1.499827 35.50687 Z M -1.499872 40.702994 " transform="matrix(7.761194, 0, 0, 7.761194, 440.746269, 366.393044)"/>
<path fill-rule="nonzero" fill="rgb(50%, 50%, 50%)" fill-opacity="1" stroke-width="0.128846" stroke-linecap="butt" stroke-linejoin="miter" stroke="rgb(0%, 0%, 0%)" stroke-opacity="1" stroke-miterlimit="10" d="M -20.999932 38.104932 L -15.00003 38.104932 L -13.50018 40.702994 L -15.00003 43.301056 L -20.999932 43.301056 L -22.499782 45.899117 L -24.000135 48.497179 L -22.499782 51.095745 L -25.499985 51.095745 L -26.999835 48.497179 L -28.500188 45.899117 L -26.999835 43.301056 L -24.000135 43.301056 L -22.499782 40.702994 Z M -20.999932 38.104932 " transform="matrix(7.761194, 0, 0, 7.761194, 440.746269, 366.393044)"/>
<path fill-rule="nonzero" fill="rgb(50%, 50%, 50%)" fill-opacity="1" stroke-width="0.128846" stroke-linecap="butt" stroke-linejoin="miter" stroke="rgb(0%, 0%, 0%)" stroke-opacity="1" stroke-miterlimit="10" d="M -7.499775 40.702994 L -9.000128 38.104932 L -10.499977 35.50687 L -13.50018 35.50687 L -15.00003 38.104932 L -13.50018 40.702994 L -11.999827 43.301056 L -13.50018 45.899117 L -15.00003 48.497179 L -18.000233 48.497179 L -16.49988 51.095745 L -10.499977 51.095745 L -9.000128 48.497179 L -10.499977 45.899117 L -9.000128 43.301056 Z M -7.499775 40.702994 " transform="matrix(7.761194, 0, 0, 7.761194, 440.746269, 366.393044)"/>
<path fill-rule="nonzero" fill="rgb(80%, 80%, 80%)" fill-opacity="1" stroke-width="0.128846" stroke-linecap="butt" stroke-linejoin="miter" stroke="rgb(0%, 0%, 0%)" stroke-opacity="1" stroke-miterlimit="10" d="M 7.500233 30.310746 L 10.499932 35.50687 L 13.500135 35.50687 L 14.999985 32.908808 L 13.500135 30.310746 L 11.999782 27.712684 L 13.500135 25.114622 L 14.999985 22.51656 L 18.000188 22.51656 L 16.499835 19.918498 L 10.499932 19.918498 L 9.000083 22.51656 L 10.499932 25.114622 Z M 7.500233 30.310746 " transform="matrix(7.761194, 0, 0, 7.761194, 440.746269, 366.393044)"/>
<path fill-rule="nonzero" fill="rgb(50%, 50%, 50%)" fill-opacity="1" stroke-width="0.128846" stroke-linecap="butt" stroke-linejoin="miter" stroke="rgb(0%, 0%, 0%)" stroke-opacity="1" stroke-miterlimit="10" d="M 11.999782 27.712684 L 13.500135 25.114622 L 14.999985 22.51656 L 18.000188 22.51656 L 19.500038 25.114622 L 18.000188 27.712684 L 16.499835 30.310746 L 18.000188 32.908808 L 19.500038 35.50687 L 22.50024 35.50687 L 20.999887 38.104932 L 14.999985 38.104932 L 13.500135 35.50687 L 14.999985 32.908808 L 13.500135 30.310746 Z M 11.999782 27.712684 " transform="matrix(7.761194, 0, 0, 7.761194, 440.746269, 366.393044)"/>
<path fill-rule="nonzero" fill="rgb(50%, 50%, 50%)" fill-opacity="1" stroke-width="0.128846" stroke-linecap="butt" stroke-linejoin="miter" stroke="rgb(0%, 0%, 0%)" stroke-opacity="1" stroke-miterlimit="10" d="M 3.00018 38.104932 L 5.99988 32.908808 L 9.000083 32.908808 L 10.499932 35.50687 L 7.500233 40.702994 L 10.499932 45.899117 L 13.500135 45.899117 L 11.999782 48.497179 L 5.99988 48.497179 L 4.50003 45.899117 L 5.99988 43.301056 Z M 3.00018 38.104932 " transform="matrix(7.761194, 0, 0, 7.761194, 440.746269, 366.393044)"/>
<path fill-rule="nonzero" fill="rgb(50%, 50%, 50%)" fill-opacity="1" stroke-width="0.128846" stroke-linecap="butt" stroke-linejoin="miter" stroke="rgb(0%, 0%, 0%)" stroke-opacity="1" stroke-miterlimit="10" d="M -39.000143 17.320437 L -41.999842 12.124313 L -45.000045 12.124313 L -46.499895 14.722375 L -43.500195 19.918498 L -46.499895 25.114622 L -49.500098 25.114622 L -48.000248 27.712684 L -41.999842 27.712684 L -40.499992 25.114622 L -41.999842 22.51656 Z M -39.000143 17.320437 " transform="matrix(7.761194, 0, 0, 7.761194, 440.746269, 366.393044)"/>
<path fill-rule="nonzero" fill="rgb(50%, 50%, 50%)" fill-opacity="1" stroke-width="0.128846" stroke-linecap="butt" stroke-linejoin="miter" stroke="rgb(0%, 0%, 0%)" stroke-opacity="1" stroke-miterlimit="10" d="M -37.49979 -6.062121 L -43.500195 -6.062121 L -45.000045 -3.464059 L -43.500195 -0.865997 L -37.49979 -0.865997 L -34.50009 4.330127 L -35.99994 6.928189 L -33.00024 6.928189 L -31.499887 4.330127 L -30.000038 1.732065 L -31.499887 -0.865997 L -34.50009 -0.865997 Z M -37.49979 -6.062121 " transform="matrix(7.761194, 0, 0, 7.761194, 440.746269, 366.393044)"/>
<path fill-rule="nonzero" fill="rgb(50%, 50%, 50%)" fill-opacity="1" stroke-width="0.128846" stroke-linecap="butt" stroke-linejoin="miter" stroke="rgb(0%, 0%, 0%)" stroke-opacity="1" stroke-miterlimit="10" d="M -41.999842 12.124313 L -39.000143 6.928189 L -40.499992 4.330127 L -43.500195 4.330127 L -46.499895 9.526251 L -52.499797 9.526251 L -54.00015 6.928189 L -55.5 9.526251 L -54.00015 12.124313 L -52.499797 14.722375 L -49.500098 14.722375 L -48.000248 12.124313 Z M -41.999842 12.124313 " transform="matrix(7.761194, 0, 0, 7.761194, 440.746269, 366.393044)"/>
<path fill-rule="nonzero" fill="rgb(80%, 80%, 80%)" fill-opacity="1" stroke-width="0.128846" stroke-linecap="butt" stroke-linejoin="miter" stroke="rgb(0%, 0%, 0%)" stroke-opacity="1" stroke-miterlimit="10" d="M -20.999932 -13.856306 L -22.499782 -16.454368 L -24.000135 -19.05243 L -26.999835 -19.05243 L -28.500188 -16.454368 L -26.999835 -13.856306 L -25.499985 -11.258244 L -26.999835 -8.660182 L -28.500188 -6.062121 L -31.499887 -6.062121 L -30.000038 -3.464059 L -24.000135 -3.464059 L -22.499782 -6.062121 L -24.000135 -8.660182 L -22.499782 -11.258244 Z M -20.999932 -13.856306 " transform="matrix(7.761194, 0, 0, 7.761194, 440.746269, 366.393044)"/>
<path fill-rule="nonzero" fill="rgb(50%, 50%, 50%)" fill-opacity="1" stroke-width="0.128846" stroke-linecap="butt" stroke-linejoin="miter" stroke="rgb(0%, 0%, 0%)" stroke-opacity="1" stroke-miterlimit="10" d="M -37.49979 -0.865997 L -34.50009 4.330127 L -35.99994 6.928189 L -39.000143 6.928189 L -41.999842 1.732065 L -48.000248 1.732065 L -49.500098 4.330127 L -50.999947 1.732065 L -48.000248 -3.464059 L -45.000045 -3.464059 L -43.500195 -0.865997 Z M -37.49979 -0.865997 " transform="matrix(7.761194, 0, 0, 7.761194, 440.746269, 366.393044)"/>
<path fill-rule="nonzero" fill="rgb(50%, 50%, 50%)" fill-opacity="1" stroke-width="0.128846" stroke-linecap="butt" stroke-linejoin="miter" stroke="rgb(0%, 0%, 0%)" stroke-opacity="1" stroke-miterlimit="10" d="M 25.49994 25.114622 L 19.500038 25.114622 L 18.000188 27.712684 L 19.500038 30.310746 L 25.49994 30.310746 L 26.99979 32.908808 L 28.500143 35.50687 L 26.99979 38.104932 L 29.999992 38.104932 L 31.499842 35.50687 L 33.000195 32.908808 L 31.499842 30.310746 L 28.500143 30.310746 L 26.99979 27.712684 Z M 25.49994 25.114622 " transform="matrix(7.761194, 0, 0, 7.761194, 440.746269, 366.393044)"/>
<path fill-rule="nonzero" fill="rgb(50%, 50%, 50%)" fill-opacity="1" stroke-width="0.128846" stroke-linecap="butt" stroke-linejoin="miter" stroke="rgb(0%, 0%, 0%)" stroke-opacity="1" stroke-miterlimit="10" d="M 24.00009 17.320437 L 22.50024 19.918498 L 20.999887 22.51656 L 22.50024 25.114622 L 25.49994 25.114622 L 26.99979 22.51656 L 28.500143 19.918498 L 34.500045 19.918498 L 35.999895 22.51656 L 37.500248 19.918498 L 35.999895 17.320437 L 34.500045 14.722375 L 31.499842 14.722375 L 29.999992 17.320437 Z M 24.00009 17.320437 " transform="matrix(7.761194, 0, 0, 7.761194, 440.746269, 366.393044)"/>
<path fill-rule="nonzero" fill="rgb(50%, 50%, 50%)" fill-opacity="1" stroke-width="0.128846" stroke-linecap="butt" stroke-linejoin="miter" stroke="rgb(0%, 0%, 0%)" stroke-opacity="1" stroke-miterlimit="10" d="M 33.000195 -8.660182 L 39.000098 -8.660182 L 40.499947 -6.062121 L 39.000098 -3.464059 L 33.000195 -3.464059 L 31.499842 -0.865997 L 29.999992 1.732065 L 31.499842 4.330127 L 28.500143 4.330127 L 26.99979 1.732065 L 25.49994 -0.865997 L 26.99979 -3.464059 L 29.999992 -3.464059 L 31.499842 -6.062121 Z M 33.000195 -8.660182 " transform="matrix(7.761194, 0, 0, 7.761194, 440.746269, 366.393044)"/>
<path fill-rule="nonzero" fill="rgb(80%, 80%, 80%)" fill-opacity="1" stroke-width="0.128846" stroke-linecap="butt" stroke-linejoin="miter" stroke="rgb(0%, 0%, 0%)" stroke-opacity="1" stroke-miterlimit="10" d="M 24.00009 12.124313 L 29.999992 12.124313 L 31.499842 9.526251 L 29.999992 6.928189 L 24.00009 6.928189 L 22.50024 4.330127 L 20.999887 1.732065 L 22.50024 -0.865997 L 19.500038 -0.865997 L 18.000188 1.732065 L 16.499835 4.330127 L 18.000188 6.928189 L 20.999887 6.928189 L 22.50024 9.526251 Z M 24.00009 12.124313 " transform="matrix(7.761194, 0, 0, 7.761194, 440.746269, 366.393044)"/>
<path fill-rule="nonzero" fill="rgb(50%, 50%, 50%)" fill-opacity="1" stroke-width="0.128846" stroke-linecap="butt" stroke-linejoin="miter" stroke="rgb(0%, 0%, 0%)" stroke-opacity="1" stroke-miterlimit="10" d="M 24.00009 6.928189 L 22.50024 4.330127 L 20.999887 1.732065 L 22.50024 -0.865997 L 25.49994 -0.865997 L 26.99979 1.732065 L 28.500143 4.330127 L 34.500045 4.330127 L 35.999895 1.732065 L 37.500248 4.330127 L 35.999895 6.928189 L 34.500045 9.526251 L 31.499842 9.526251 L 29.999992 6.928189 Z M 24.00009 6.928189 " transform="matrix(7.761194, 0, 0, 7.761194, 440.746269, 366.393044)"/>
<path fill-rule="nonzero" fill="rgb(80%, 80%, 80%)" fill-opacity="1" stroke-width="0.128846" stroke-linecap="butt" stroke-linejoin="miter" stroke="rgb(0%, 0%, 0%)" stroke-opacity="1" stroke-miterlimit="10" d="M 24.00009 12.124313 L 29.999992 12.124313 L 31.499842 14.722375 L 29.999992 17.320437 L 24.00009 17.320437 L 22.50024 19.918498 L 20.999887 22.51656 L 22.50024 25.114622 L 19.500038 25.114622 L 18.000188 22.51656 L 16.499835 19.918498 L 18.000188 17.320437 L 20.999887 17.320437 L 22.50024 14.722375 Z M 24.00009 12.124313 " transform="matrix(7.761194, 0, 0, 7.761194, 440.746269, 366.393044)"/>
<path fill-rule="nonzero" fill="rgb(50%, 50%, 50%)" fill-opacity="1" stroke-width="0.128846" stroke-linecap="butt" stroke-linejoin="miter" stroke="rgb(0%, 0%, 0%)" stroke-opacity="1" stroke-miterlimit="10" d="M -25.499985 -11.258244 L -26.999835 -8.660182 L -28.500188 -6.062121 L -31.499887 -6.062121 L -33.00024 -8.660182 L -31.499887 -11.258244 L -30.000038 -13.856306 L -31.499887 -16.454368 L -33.00024 -19.05243 L -35.99994 -19.05243 L -34.50009 -21.650492 L -28.500188 -21.650492 L -26.999835 -19.05243 L -28.500188 -16.454368 L -26.999835 -13.856306 Z M -25.499985 -11.258244 " transform="matrix(7.761194, 0, 0, 7.761194, 440.746269, 366.393044)"/>
<path fill-rule="nonzero" fill="rgb(50%, 50%, 50%)" fill-opacity="1" stroke-width="0.128846" stroke-linecap="butt" stroke-linejoin="miter" stroke="rgb(0%, 0%, 0%)" stroke-opacity="1" stroke-miterlimit="10" d="M -16.49988 -16.454368 L -10.499977 -16.454368 L -9.000128 -19.05243 L -10.499977 -21.650492 L -16.49988 -21.650492 L -18.000233 -24.248554 L -19.500083 -26.846616 L -18.000233 -29.444678 L -20.999932 -29.444678 L -22.499782 -26.846616 L -24.000135 -24.248554 L -22.499782 -21.650492 L -19.500083 -21.650492 L -18.000233 -19.05243 Z M -16.49988 -16.454368 " transform="matrix(7.761194, 0, 0, 7.761194, 440.746269, 366.393044)"/>
<path fill-rule="nonzero" fill="rgb(50%, 50%, 50%)" fill-opacity="1" stroke-width="0.128846" stroke-linecap="butt" stroke-linejoin="miter" stroke="rgb(0%, 0%, 0%)" stroke-opacity="1" stroke-miterlimit="10" d="M -43.500195 -11.258244 L -46.499895 -16.454368 L -45.000045 -19.05243 L -41.999842 -19.05243 L -39.000143 -13.856306 L -33.00024 -13.856306 L -31.499887 -16.454368 L -30.000038 -13.856306 L -31.499887 -11.258244 L -33.00024 -8.660182 L -35.99994 -8.660182 L -37.49979 -11.258244 Z M -43.500195 -11.258244 " transform="matrix(7.761194, 0, 0, 7.761194, 440.746269, 366.393044)"/>
<path fill-rule="nonzero" fill="rgb(50%, 50%, 50%)" fill-opacity="1" stroke-width="0.128846" stroke-linecap="butt" stroke-linejoin="miter" stroke="rgb(0%, 0%, 0%)" stroke-opacity="1" stroke-miterlimit="10" d="M -25.499985 -26.846616 L -24.000135 -24.248554 L -22.499782 -21.650492 L -24.000135 -19.05243 L -26.999835 -19.05243 L -28.500188 -21.650492 L -30.000038 -24.248554 L -35.99994 -24.248554 L -37.49979 -21.650492 L -39.000143 -24.248554 L -37.49979 -26.846616 L -35.99994 -29.444678 L -33.00024 -29.444678 L -31.499887 -26.846616 Z M -25.499985 -26.846616 " transform="matrix(7.761194, 0, 0, 7.761194, 440.746269, 366.393044)"/>
<path fill-rule="nonzero" fill="rgb(50%, 50%, 50%)" fill-opacity="1" stroke-width="0.128846" stroke-linecap="butt" stroke-linejoin="miter" stroke="rgb(0%, 0%, 0%)" stroke-opacity="1" stroke-miterlimit="10" d="M -43.500195 -6.062121 L -37.49979 -6.062121 L -35.99994 -8.660182 L -37.49979 -11.258244 L -43.500195 -11.258244 L -46.499895 -16.454368 L -45.000045 -19.05243 L -48.000248 -19.05243 L -50.999947 -13.856306 L -49.500098 -11.258244 L -46.499895 -11.258244 Z M -43.500195 -6.062121 " transform="matrix(7.761194, 0, 0, 7.761194, 440.746269, 366.393044)"/>
<path fill-rule="nonzero" fill="rgb(50%, 50%, 50%)" fill-opacity="1" stroke-width="0.128846" stroke-linecap="butt" stroke-linejoin="miter" stroke="rgb(0%, 0%, 0%)" stroke-opacity="1" stroke-miterlimit="10" d="M 19.500038 -6.062121 L 18.000188 -8.660182 L 16.499835 -11.258244 L 18.000188 -13.856306 L 20.999887 -13.856306 L 22.50024 -11.258244 L 24.00009 -8.660182 L 29.999992 -8.660182 L 31.499842 -11.258244 L 33.000195 -8.660182 L 31.499842 -6.062121 L 29.999992 -3.464059 L 26.99979 -3.464059 L 25.49994 -6.062121 Z M 19.500038 -6.062121 " transform="matrix(7.761194, 0, 0, 7.761194, 440.746269, 366.393044)"/>
<path fill-rule="nonzero" fill="rgb(50%, 50%, 50%)" fill-opacity="1" stroke-width="0.128846" stroke-linecap="butt" stroke-linejoin="miter" stroke="rgb(0%, 0%, 0%)" stroke-opacity="1" stroke-miterlimit="10" d="M 25.49994 -21.650492 L 26.99979 -19.05243 L 28.500143 -16.454368 L 26.99979 -13.856306 L 24.00009 -13.856306 L 22.50024 -16.454368 L 20.999887 -19.05243 L 14.999985 -19.05243 L 13.500135 -16.454368 L 11.999782 -19.05243 L 13.500135 -21.650492 L 14.999985 -24.248554 L 18.000188 -24.248554 L 19.500038 -21.650492 Z M 25.49994 -21.650492 " transform="matrix(7.761194, 0, 0, 7.761194, 440.746269, 366.393044)"/>
<path fill-rule="nonzero" fill="rgb(50%, 50%, 50%)" fill-opacity="1" stroke-width="0.128846" stroke-linecap="butt" stroke-linejoin="miter" stroke="rgb(0%, 0%, 0%)" stroke-opacity="1" stroke-miterlimit="10" d="M 7.500233 -21.650492 L 1.499827 -21.650492 L -0.0000225361 -24.248554 L 1.499827 -26.846616 L 7.500233 -26.846616 L 10.499932 -32.04274 L 9.000083 -34.640801 L 11.999782 -34.640801 L 13.500135 -32.04274 L 14.999985 -29.444678 L 13.500135 -26.846616 L 10.499932 -26.846616 Z M 7.500233 -21.650492 " transform="matrix(7.761194, 0, 0, 7.761194, 440.746269, 366.393044)"/>
<path fill-rule="nonzero" fill="rgb(80%, 80%, 80%)" fill-opacity="1" stroke-width="0.128846" stroke-linecap="butt" stroke-linejoin="miter" stroke="rgb(0%, 0%, 0%)" stroke-opacity="1" stroke-miterlimit="10" d="M 11.999782 -19.05243 L 13.500135 -21.650492 L 14.999985 -24.248554 L 13.500135 -26.846616 L 10.499932 -26.846616 L 7.500233 -21.650492 L 1.499827 -21.650492 L -0.0000225361 -24.248554 L -1.499872 -21.650492 L 1.499827 -16.454368 L 4.50003 -16.454368 L 5.99988 -19.05243 Z M 11.999782 -19.05243 " transform="matrix(7.761194, 0, 0, 7.761194, 440.746269, 366.393044)"/>
<path fill-rule="nonzero" fill="rgb(50%, 50%, 50%)" fill-opacity="1" stroke-width="0.128846" stroke-linecap="butt" stroke-linejoin="miter" stroke="rgb(0%, 0%, 0%)" stroke-opacity="1" stroke-miterlimit="10" d="M -7.499775 -26.846616 L -9.000128 -24.248554 L -10.499977 -21.650492 L -13.50018 -21.650492 L -15.00003 -24.248554 L -13.50018 -26.846616 L -11.999827 -29.444678 L -13.50018 -32.04274 L -15.00003 -34.640801 L -18.000233 -34.640801 L -16.49988 -37.238863 L -10.499977 -37.238863 L -9.000128 -34.640801 L -10.499977 -32.04274 L -9.000128 -29.444678 Z M -7.499775 -26.846616 " transform="matrix(7.761194, 0, 0, 7.761194, 440.746269, 366.393044)"/>
<path fill-rule="nonzero" fill="rgb(50%, 50%, 50%)" fill-opacity="1" stroke-width="0.128846" stroke-linecap="butt" stroke-linejoin="miter" stroke="rgb(0%, 0%, 0%)" stroke-opacity="1" stroke-miterlimit="10" d="M 3.00018 -29.444678 L 5.99988 -34.640801 L 4.50003 -37.238863 L 1.499827 -37.238863 L -1.499872 -32.04274 L -7.499775 -32.04274 L -9.000128 -34.640801 L -10.499977 -32.04274 L -9.000128 -29.444678 L -7.499775 -26.846616 L -4.500075 -26.846616 L -3.000225 -29.444678 Z M 3.00018 -29.444678 " transform="matrix(7.761194, 0, 0, 7.761194, 440.746269, 366.393044)"/>
<path fill-rule="nonzero" fill="rgb(50%, 50%, 50%)" fill-opacity="1" stroke-width="0.128846" stroke-linecap="butt" stroke-linejoin="miter" stroke="rgb(0%, 0%, 0%)" stroke-opacity="1" stroke-miterlimit="10" d="M 10.499932 -32.04274 L 7.500233 -26.846616 L 4.50003 -26.846616 L 3.00018 -29.444678 L 5.99988 -34.640801 L 3.00018 -39.836925 L -0.0000225361 -39.836925 L 1.499827 -42.43549 L 7.500233 -42.43549 L 9.000083 -39.836925 L 7.500233 -37.238863 Z M 10.499932 -32.04274 " transform="matrix(7.761194, 0, 0, 7.761194, 440.746269, 366.393044)"/>
<path fill-rule="nonzero" fill="rgb(50%, 50%, 50%)" fill-opacity="1" stroke-width="0.128846" stroke-linecap="butt" stroke-linejoin="miter" stroke="rgb(0%, 0%, 0%)" stroke-opacity="1" stroke-miterlimit="10" d="M 37.500248 14.722375 L 31.499842 14.722375 L 29.999992 12.124313 L 31.499842 9.526251 L 37.500248 9.526251 L 40.499947 4.330127 L 39.000098 1.732065 L 41.999797 1.732065 L 43.50015 4.330127 L 45 6.928189 L 43.50015 9.526251 L 40.499947 9.526251 Z M 37.500248 14.722375 " transform="matrix(7.761194, 0, 0, 7.761194, 440.746269, 366.393044)"/>
<path fill-rule="nonzero" fill="rgb(50%, 50%, 50%)" fill-opacity="1" stroke-width="0.128846" stroke-linecap="butt" stroke-linejoin="miter" stroke="rgb(0%, 0%, 0%)" stroke-opacity="1" stroke-miterlimit="10" d="M 20.999887 -29.444678 L 18.000188 -24.248554 L 14.999985 -24.248554 L 13.500135 -26.846616 L 16.499835 -32.04274 L 13.500135 -37.238863 L 10.499932 -37.238863 L 11.999782 -39.836925 L 18.000188 -39.836925 L 19.500038 -37.238863 L 18.000188 -34.640801 Z M 20.999887 -29.444678 " transform="matrix(7.761194, 0, 0, 7.761194, 440.746269, 366.393044)"/>
<path fill-rule="nonzero" fill="rgb(50%, 50%, 50%)" fill-opacity="1" stroke-width="0.128846" stroke-linecap="butt" stroke-linejoin="miter" stroke="rgb(0%, 0%, 0%)" stroke-opacity="1" stroke-miterlimit="10" d="M 11.999782 43.301056 L 9.000083 38.104932 L 10.499932 35.50687 L 13.500135 35.50687 L 16.499835 40.702994 L 22.50024 40.702994 L 24.00009 38.104932 L 25.49994 40.702994 L 22.50024 45.899117 L 19.500038 45.899117 L 18.000188 43.301056 Z M 11.999782 43.301056 " transform="matrix(7.761194, 0, 0, 7.761194, 440.746269, 366.393044)"/>
</svg>
